<svg xmlns="http://www.w3.org/2000/svg" viewBox="0 0 12 12" width="1" height="1">
  <defs/>
  <g data-name="Group 4267" transform="translate(-351 -1066)">
    <circle cx="6" cy="6" r="6" fill="#1a254f" data-name="Ellipse 519" transform="translate(351 1066)"/>
    <path fill="#fff" stroke="#fff" stroke-linecap="square" stroke-width=".4" d="M356.894 1073.618a5 5 0 01-1.179-.106.9.9 0 01-.644-.518 3.222 3.222 0 01-.167-1.231 7.854 7.854 0 01.054-.867q.05-.421.1-.693l.035-.181a.1.1 0 000-.016.1.1 0 00-.086-.1l-.658-.1h-.014a.1.1 0 00-.1.08c-.011.042-.018.074-.038.174-.038.194-.072.383-.111.659a8.58 8.58 0 00-.074.9 4.608 4.608 0 000 .632 3.068 3.068 0 00.288 1.339 1.523 1.523 0 00.9.721 5.481 5.481 0 001.759.215h.095a5.474 5.474 0 001.759-.215 1.531 1.531 0 00.9-.721 3.069 3.069 0 00.288-1.339 4.687 4.687 0 000-.632 8.581 8.581 0 00-.074-.9c-.039-.272-.073-.461-.111-.659-.021-.1-.026-.132-.038-.174a.1.1 0 00-.1-.08h-.017l-.658.1a.1.1 0 00-.086.1.1.1 0 000 .016l.035.181q.05.273.1.693a7.937 7.937 0 01.054.867 3.15 3.15 0 01-.167 1.23.9.9 0 01-.641.519 5 5 0 01-1.179.106z" data-name="Path 5362"/>
  </g>
</svg>
