<svg id="Laag_1" data-name="Laag 1" xmlns="http://www.w3.org/2000/svg" viewBox="0 0 130 280.81"><defs><style>.cls-1{fill:#68676b;opacity:0.1;isolation:isolate;}.cls-2{fill:#8f97b9;}.cls-3{fill:#37474f;}.cls-4{fill:#455a64;}.cls-5{fill:#ffdfae;}.cls-6{fill:#f4ca92;}.cls-7{fill:#9499ea;}.cls-8{fill:#ddd;}.cls-9{fill:#ff6369;}</style></defs><title>advice-01</title><ellipse id="Ellipse_387" data-name="Ellipse 387" class="cls-1" cx="65" cy="264.28" rx="65" ry="16.53"/><g id="Person-31"><path id="Shape-702" class="cls-2" d="M34.81,258.79a45.19,45.19,0,0,1-4.27-4.51H20.17c-2.45,2.09-2,12.71-2,12.71H51.46C52.37,262.44,38.54,261.54,34.81,258.79Z"/><path id="Shape-703" class="cls-2" d="M71.45,258.79a45.19,45.19,0,0,1-4.27-4.51H56.81c-2.45,2.09-2,12.71-2,12.71H88.09C89,262.44,75.18,261.54,71.45,258.79Z"/><path id="Shape-704" class="cls-3" d="M68.39,254.85H56s-4.66-64.3-4.74-64.49c-4.74-11.59-7-32.7-7-32.7L31.53,254.85s-12.41.29-12.44,0c-2.14-19.3,5.1-61.9,5.1-61.9L20,133.5H68.1l2.19,55Z"/><path id="Shape-705" class="cls-4" d="M27.86,36.88c0,10.9,7.81,25.95,16.21,25.95S55.22,51.19,61.14,42.41c2.51-3.73,3.62-12.94-1.65-14a19.74,19.74,0,0,0-5.32-.21C44.46,19.24,27.86,26,27.86,36.88Z"/><rect id="Shape-706" class="cls-5" x="38.68" y="58.58" width="14" height="18.24"/><rect id="Shape-707" class="cls-5" x="2.32" y="15.94" width="7.3" height="7.87"/><path id="Shape-708" class="cls-6" d="M53.61,63s-8.08-8.44-13.4-9.71a43.57,43.57,0,0,1-1.47,6.8c1.66,3.63,6.46,9.73,9.8,10.16C51.23,70.6,53.61,63,53.61,63Z"/><path id="Shape-709" class="cls-5" d="M119.18,50.19c1.49,1.75.38,4.41-2.24,6.64s-5.77,3.19-7.26,1.44-.12-4.73,2.5-7S117.69,48.44,119.18,50.19Z"/><path id="Shape-710" class="cls-7" d="M69.69,136.15l-50.86-.36,4-50.87c0-1.46-15.72-11.25-20.31-20.76-3.33-6.9-1.06-42.39-1.06-42.39l8.68,1,4.77,35.19c4.41.94,22.29,9.27,23.72,9.27,0,0,3.71,7.19,8,7.15A6,6,0,0,0,52.7,68.9l17.74,4.26,22.11-2.5,17.1-17.22,6.81,4.19S104.05,75.86,98.69,81.18,66.92,87.1,66.92,87.1Z"/><path id="Shape-711" class="cls-5" d="M31.27,45.15c.24,3.08,3.26,4.09,3.81,6.84C36.57,59.35,43,66.76,49,66.76c5.09,0,12.51-9.66,12.51-20.55A49.51,49.51,0,0,0,61,38.42c-.72-4.5-11.24,7.8-20.83-2.38-2.24-2.37-1.94,7.87-4.84,7.87C35.19,43.91,30.83,39.29,31.27,45.15Z"/><g id="Shape-712"><g id="Group_795" data-name="Group 795"><ellipse id="Ellipse_31" data-name="Ellipse 31" class="cls-8" cx="103.7" cy="46.79" rx="2.99" ry="5.36" transform="translate(1.19 96.13) rotate(-49.99)"/><path id="Path_732" data-name="Path 732" class="cls-3" d="M121.23,54.65l-1.86,2.21a.88.88,0,0,1-1.25,0l-7.8-6.55a.88.88,0,0,1-.18-1.23L112,46.9a.89.89,0,0,1,1.25,0L119,53l2.08.37A.89.89,0,0,1,121.23,54.65Z"/><circle id="Ellipse_32" data-name="Ellipse 32" class="cls-8" cx="121.26" cy="27.59" r="4.89"/><path id="Path_733" data-name="Path 733" class="cls-8" d="M128.52,34.9c-8,1.36-18.1,12.49-18.1,12.49l-8-6.71s11.18-12.07,8.68-20.4C111.07,20.19,128.59,34.89,128.52,34.9Z"/><path id="Path_4914" data-name="Path 4914" class="cls-9" d="M99.25,41.05l3.15-3.75a1.66,1.66,0,0,1,2.34-.2h0l8.32,7a1.65,1.65,0,0,1,.21,2.34h0l-3.15,3.75a1.66,1.66,0,0,1-2.34.2h0l-8.32-7a1.65,1.65,0,0,1-.21-2.34Z"/></g><path id="Path_4915" data-name="Path 4915" class="cls-9" d="M110.78,19.81a.93.93,0,0,1,1.31-.11h0l16.84,14.13a.93.93,0,0,1,.11,1.31h0a.92.92,0,0,1-1.31.12h0L110.89,21.12a.93.93,0,0,1-.11-1.31Z"/></g><ellipse id="Shape-713" class="cls-5" cx="116.78" cy="50.52" rx="2.2" ry="4.12" transform="translate(6.61 114.18) rotate(-53.42)"/><path id="Shape-714" class="cls-5" d="M1.55,15c.44-2.38,1.17-3.88,6.07-2.74,3.06.71,5.55,2.41,5.11,4.78s-3.36,3.31-6.44,2.75S1.12,17.37,1.55,15Z"/></g></svg>