<svg id="Laag_1" data-name="Laag 1" xmlns="http://www.w3.org/2000/svg" viewBox="0 0 130 280.81"><defs><style>.cls-1{fill:#68676b;opacity:0.1;isolation:isolate;}.cls-2{fill:#e2555b;}.cls-3{fill:#9499ea;}.cls-4{fill:#7a7fd1;}.cls-5{fill:#ff6369;}.cls-6{fill:#694a52;}.cls-7{fill:#f6b89f;}.cls-8{fill:#efa88f;}.cls-9{fill:#37474f;}.cls-10{fill:#fff;}.cls-11{fill:#8f97b9;}.cls-12{fill:#d8d6dd;}</style></defs><title>advice-01</title><ellipse id="Ellipse_387" data-name="Ellipse 387" class="cls-1" cx="65" cy="264.28" rx="65" ry="16.53"/><g id="Person-29"><path id="Shape-655" class="cls-2" d="M66.34,71.41C64.77,66.86,69,61.28,75.78,58.94s13.56-.56,15.13,4S67.91,76,66.34,71.41Z"/><path id="Shape-656" class="cls-3" d="M88.34,260.08H79.28s-4-56.2-4.09-56.37c-2.37-10.48-10.26-28.62-10.26-28.62L53.58,216.85,14.44,202.54s2.51-8.84,2.92-8.76c24.24,4.67,27.16,3.5,27.16,3.5s-.63-36,3.29-46.05c.29-.76,40.73,6.77,40.73,6.77l3.6,47.17Z"/><g id="Shape-659"><path id="Path_2156" data-name="Path 2156" class="cls-4" d="M45.82,161.94c-.36,1.4-.69,8-.69,8s5.5-4.37,7.14-6.4c2.6-3.24,4.47-9.74,4.47-9.74L48,152S46.63,158.83,45.82,161.94Z"/></g><ellipse id="Shape-660" class="cls-5" cx="82.44" cy="70.99" rx="20.45" ry="9.35" transform="translate(-20.5 35.8) rotate(-21.86)"/><path id="Shape-661" class="cls-6" d="M67.31,74c-1.17,1.16.73,13.09,3.52,15,5.33,3.58,5.43-3.28,9.62-5.33,9.8-4.81,14.94.79,18.4-6.72,3.09-6.68-1.25-15.4-8.47-8.18C90.09,69.05,76.36,65,67.31,74Z"/><path id="Shape-662" class="cls-7" d="M71.53,105.89l11.8,2,2.08-15.55-11.85-2Z"/><path id="Shape-663" class="cls-8" d="M84.62,97.2A7.83,7.83,0,0,1,78,101.07c-5.79-1.24-5.49-11.59-3.38-13.62,1.1-1,3.64,1.44,4.5.26,2-2.56,3.75,4.91,4.64,7S86.08,94.45,84.62,97.2Z"/><path id="Shape-664" class="cls-7" d="M98.25,100.23l10.9-4.51,12-18.52,4.55-.36s-5.58,19.26-8.74,24.92c-1.69,3-9.07,7.31-15.29,9.79C100.58,107.64,99.49,104,98.25,100.23Z"/><path id="Shape-665" class="cls-7" d="M34.88,58.24,38.47,57,51.32,86c.86.34,4.15,4.25,5.86,5.27-1.65,5.14-3.34,7.51-6.24,12.15-3.36-3.94-7.2-8.92-8.52-13.43C40.57,83.7,34.88,58.24,34.88,58.24Z"/><path id="Shape-666" class="cls-9" d="M72.56,97.68s2.12,6.61,5.72,7.17a5.12,5.12,0,0,0,5.92-3.76l16.22-2.37,8.66-3.38,10.81-16.06L124,82.49c-.31.24-3.51,12.85-7,20.15-2.78,5.8-23.28,15.86-23.28,15.86l-4.56,41.9-43-7.45,10.57-42.5c.1-.59-2.62-3.34-5.75-7,.36-.57-4.72-3-8.75-12.78C38.62,82,36.35,65.55,36.35,65.55a56.87,56.87,0,0,1,5.25-2.34c.35-.12,9.94,22.2,9.94,22.2s5.59,6,5.63,5.88A77.35,77.35,0,0,0,72.56,97.68Z"/><path id="Shape-667" class="cls-10" d="M72.63,97.77s2.08,5.53,5.5,6.49c4.5,1.27,6.11-3.16,6.11-3.16l-6.82,57.31-15.81-2.74S72.29,97.71,72.63,97.77Z"/><path id="Shape-668" class="cls-7" d="M32.84,58.24c.87-2.41.92-5.21,4.88-3.51,2.47,1.06,2.42,4.1,2.42,7,0,2.57-1.27,2.66-3.79,1.75S32,60.66,32.84,58.24Z"/><path id="Shape-669" class="cls-7" d="M68.12,77.75c-.23,2.64,2.18,3.92,2.27,6.32.22,6.44,4.61,13.62,9.7,14.47,4.3.71,12-6.42,13.48-15.64a42.56,42.56,0,0,0,.65-6.66c0-3.91-11.47,3.36-18.15-6.61-1.56-2.33-1.9,8-4.35,7.64C71.61,77.25,68.57,72.73,68.12,77.75Z"/><path id="Shape-670" class="cls-11" d="M79.12,259.18h9.15a50.88,50.88,0,0,0,8.44,5.75c3.26,1.69,7,.3,8.44,3.69a5.77,5.77,0,0,1,0,1.66H78.27v-1.66Z"/><path id="Shape-671" class="cls-12" d="M78.83,259.18H88.7a41.81,41.81,0,0,0,8,5.55c3.26,1.68,8.55.44,8.48,3.89,0,.41-26.88,0-26.88,0Z"/><path id="Shape-672" class="cls-11" d="M18,194l-2.29,8.68a34.91,34.91,0,0,0-7.81,6.08c-2.49,2.7-2.14,7.26-5.78,7.73A5.94,5.94,0,0,1,.47,216l7.12-25.92,1.59.44Z"/><rect id="Shape-673" class="cls-7" x="36.03" y="46.99" width="2.02" height="9.06" rx="1.01"/><rect id="Shape-674" class="cls-7" x="33.11" y="47.87" width="2.02" height="9.06" rx="1.01" transform="translate(-21.63 24.08) rotate(-30)"/><path id="Shape-675" class="cls-12" d="M18.14,193.59l-2.61,9.53a41.51,41.51,0,0,0-7.46,6.21c-2.49,2.7-2.69,8.13-6,7.15-.4-.12,7.11-25.92,7.11-25.92Z"/><path id="Shape-676" class="cls-7" d="M128,74.6c-.87-2.42-.92-5.22-4.88-3.52-2.48,1.07-2.43,4.1-2.43,7,0,2.56,1.27,2.66,3.8,1.75S128.91,77,128,74.6Z"/><rect id="Shape-677" class="cls-7" x="122.82" y="63.35" width="2.02" height="9.06" rx="1.01"/><rect id="Shape-678" class="cls-7" x="122.23" y="67.74" width="9.06" height="2.02" rx="1.01" transform="translate(3.84 144.15) rotate(-60)"/><path id="Shape-679" class="cls-9" d="M83.42,104.68a39.26,39.26,0,0,0-.24,5.74c1.27-.18,2.31-3.33,2.23-5.26s-.91-4.35-1.19-4.06A16.86,16.86,0,0,0,83.42,104.68Z"/><path id="Shape-680" class="cls-9" d="M72.15,101.36a51.11,51.11,0,0,1-1.49,5.57c-1.15-.58-1.26-4-.54-5.77s2.27-3.81,2.45-3.45A17.24,17.24,0,0,1,72.15,101.36Z"/></g></svg>