<svg id="Laag_1" data-name="Laag 1" xmlns="http://www.w3.org/2000/svg" viewBox="0 0 130 280.81"><defs><style>.cls-1{fill:#68676b;opacity:0.1;}.cls-1,.cls-15{isolation:isolate;}.cls-2{fill:#d8d6dd;}.cls-3{fill:#69964b;}.cls-4{fill:#8fba73;}.cls-5{fill:#37474f;}.cls-6{fill:#f4d3ab;}.cls-7{fill:#ffe0b2;}.cls-8{fill:#777dd6;}.cls-9{fill:#9499ea;}.cls-10{fill:#9133c7;}.cls-11{fill:#9f44d3;}.cls-12{fill:#bfbfbf;}.cls-13{fill:#fff;}.cls-14{fill:#694a52;}.cls-15{fill:#6fafd8;opacity:0.5;}</style></defs><title>advice-01</title><ellipse id="Ellipse_387" data-name="Ellipse 387" class="cls-1" cx="65" cy="264.28" rx="65" ry="16.53"/><g id="Person-15"><path id="Shape-311" class="cls-2" d="M39.94,193.09h6.39v66.14H39.94Z"/><path id="Shape-312" class="cls-3" d="M65.09,196.92H14.48c-3-.19-7.62-5.61-6-8,3.4-5,11.93-18.38,11.93-28.24,0-9-14.95-42-17.8-48.19a4,4,0,0,1-.33-2.19c1.37-9.2,8.81-14.87,13.5-14.87H65.09C67.55,95.46,67.55,196.92,65.09,196.92Z"/><path id="Shape-313" class="cls-4" d="M65.47,196.92H14.86a3.94,3.94,0,0,1-3.67-4.19,4.06,4.06,0,0,1,.61-1.85c3.4-5.32,13.42-21.89,13.42-32.36S7,106.34,7,106.34c-2.6-6.16,4.1-10.87,8.2-10.87H65.47a4.42,4.42,0,0,1,4.47,4.34v97.11Z"/><path id="Shape-314" class="cls-3" d="M13,186.26h50a5.55,5.55,0,1,1,0,11.09H13a5.55,5.55,0,0,1,0-11.09Z"/><path id="Shape-315" class="cls-5" d="M87.79,77C81.75,85.67,77.6,97.2,67,96.9c-6.69-.2-11.17-7.13-10-17.7,1.56-13.74,15.23-17.4,23.86-13.88C87.62,68.07,90.13,73.65,87.79,77Z"/><path id="Shape-316" class="cls-6" d="M71.57,109.33l-16.35-2.89,7.25-17,9.09,5.67Z"/><path id="Shape-317" class="cls-7" d="M61.74,86.9C60.12,95.62,73,98.1,76.8,98.25c4.67.19,9.81-12.13,11.88-20.25a8.6,8.6,0,0,0,0-4.42c-3.49-.46-5.31,2.47-8,2.36-6.2-.27-11.84-3.55-12.11-3.17-2.79,3.89-2.52,2.25-4.79,6.28-.73,1.29-5.4-2-5.45,3.14C58.34,85.08,62.08,85.06,61.74,86.9Z"/><path id="Shape-318" class="cls-7" d="M82.77,159.51l5.64-3.66L84.61,133c-.13-6-2-19-2-19l-12.7.42s3.09,17.37,4.22,22C75.67,142.82,82.77,159.51,82.77,159.51Z"/><path id="Shape-319" class="cls-8" d="M107,252.77l-10.23,0L84.81,188.4l-34.5-25.05,21.49-.75,29.14,9.07a4.51,4.51,0,0,1,3.17,4.15Z"/><path id="Shape-320" class="cls-5" d="M111.27,256.54a45.35,45.35,0,0,1-4.22-4.46H96.79c-2.42,2.06-2,12.57-2,12.57h32.93C128.65,260.16,115,259.27,111.27,256.54Z"/><path id="Shape-321" class="cls-9" d="M47.29,232.73s-6.17-7.79-6-8.1c18.17-26.71,22.35-37.77,22.35-37.77s-27.78,0-33.13-5.34c-4.58-4.58-1.6-17.1-1.6-17.1H62.6c4.73,1.81,36.7,13.32,29.45,20.14Z"/><path id="Shape-322" class="cls-5" d="M48.25,237.53a44.12,44.12,0,0,1,.51-6.12l-6.86-7.64c-3.15-.42-10.69,6.92-10.69,6.92l22,24.52C57.16,252.88,48.69,242.1,48.25,237.53Z"/><path id="Shape-323" class="cls-10" d="M71.59,103.14l3.84.42c2.6.67,6.54,5.33,7.22,7.62l1.17,10.72-15.17.8Z"/><path id="Shape-324" class="cls-11" d="M29.11,159.16l16-44.22c-.77-.7,9.89-13.44,9.89-13.44l18.43,1.7L76.71,118,72.87,164.1l-40.52,3.16C27.36,165.84,27.58,163.59,29.11,159.16Z"/><path id="Shape-325" class="cls-12" d="M62.32,265.31c0-4.11-8.59-7.43-19.18-7.43S24,261.21,24,265.31C24,266,62.32,266.43,62.32,265.31Z"/><path id="Shape-326" class="cls-2" d="M80.78,163.3l-40.31,3.35,37.67,4.63Z"/><path id="Shape-327" class="cls-7" d="M66.71,164.29c-1.93-2.55,1.75-6.59,6.78-5.46,3.13.7,5.52,3.86,6.2,7s-5.12,1.28-6.4.85C70.28,165.65,68.18,166.23,66.71,164.29Z"/><path id="Shape-328" class="cls-12" d="M77.89,172.8l-36.53-3.92a1,1,0,0,1-.89-1v-1.17l37.6,4.11Z"/><path id="Shape-329" class="cls-2" d="M82.41,172.47c-5.28,1.43-7.46.69-7.15-2.83l3.21-34.56c.31-3.5,4.12-5.44,8.11-4.64l23.33,3.35c3.31.66,5.61,3.31,5.41,6.2,0,.06,0,.11,0,.16l-4.12,22.06c-.25,2.88-2.93,4.44-6.26,5.25Z"/><path id="Shape-330" class="cls-7" d="M66.85,163.88,70.13,160,57,131.34c-.13-6-3.38-13.12-3.38-13.12l-11,.26s-1.55,9.46-.42,14.07C43.76,139,66.85,163.88,66.85,163.88Z"/><path id="Shape-331" class="cls-10" d="M55.08,101.43l-6.77,2.29c-2.59.86-4.82,5.49-5.51,8.43l-1.9,14,15.91.8Z"/><circle id="Shape-332" class="cls-13" cx="98.03" cy="150.19" r="3"/><g id="Shape-333"><circle id="Ellipse_450" data-name="Ellipse 450" class="cls-7" cx="74.23" cy="80.51" r="4.19"/><path id="Path_3449" data-name="Path 3449" class="cls-14" d="M74.24,85.13a4.62,4.62,0,1,1,2.25-.59A4.63,4.63,0,0,1,74.24,85.13Zm0-8.39a3.77,3.77,0,1,0,3.63,4.79h0a3.77,3.77,0,0,0-2.62-4.65A3.85,3.85,0,0,0,74.23,76.74Z"/></g><g id="Shape-334"><circle id="Ellipse_451" data-name="Ellipse 451" class="cls-7" cx="82.71" cy="82.33" r="4.19"/><path id="Path_3450" data-name="Path 3450" class="cls-14" d="M82.72,87a4.85,4.85,0,0,1-1.26-.17,4.62,4.62,0,1,1,5.7-3.2h0A4.62,4.62,0,0,1,82.72,87Zm0-8.39a3.77,3.77,0,1,0,3.63,4.79h0a3.77,3.77,0,0,0-2.62-4.65A3.85,3.85,0,0,0,82.71,78.56Z"/></g><circle id="Shape-335" class="cls-15" cx="74.9" cy="81.28" r="4.19"/><circle id="Shape-336" class="cls-15" cx="83.38" cy="83.1" r="4.19"/><path id="Shape-337" class="cls-5" d="M77.9,98c-3.55,1.07-12.2-1.87-14.52-4.47a8.44,8.44,0,0,1-2-4.33l.7-10.1h1.47l1.65,10.12s4.27-1.8,6.25-.51c1.35.89,9.4,2.65,10.43,4.08C83.82,95.45,78.18,97.91,77.9,98Z"/><path id="Shape-338" class="cls-7" d="M78.79,93.61c-.25.89-2.05,1.16-4,.6s-3.37-1.73-3.12-2.62S79,92.72,78.79,93.61Z"/><rect id="Shape-339" class="cls-14" x="66.59" y="75.89" width="0.85" height="5.81" transform="translate(-21.97 131.55) rotate(-80.28)"/></g></svg>