<svg id="Laag_1" data-name="Laag 1" xmlns="http://www.w3.org/2000/svg" viewBox="0 0 130 280.81"><defs><style>.cls-1{fill:#68676b;opacity:0.1;isolation:isolate;}.cls-2{fill:#efa88f;}.cls-3{fill:#56557e;}.cls-4{fill:#fff;}.cls-5{fill:#814c74;}.cls-6{fill:#a25d91;}.cls-7{fill:#37474f;}.cls-8{fill:#f6b89f;}.cls-9{fill:#90a4ae;}</style></defs><title>advice-01</title><ellipse id="Ellipse_387" data-name="Ellipse 387" class="cls-1" cx="65" cy="264.28" rx="65" ry="16.53"/><g id="Group_3634" data-name="Group 3634"><path id="Shape" class="cls-2" d="M99.47,128.3,76.9,107.9S61.52,79.05,63.13,69.76c.46-2.65,4.08-6,6.7-5.26C79,67,84.4,99.62,84.4,99.62l18.24,24.94Z"/><g id="Note"><path id="Shape-2" class="cls-3" d="M96.34,101.12c-2.06.5-27.8,20.92-27.7,21.13,1,2.12,16.22,17.9,18.09,17.44,2.06-.51,22.41-21.2,21.55-23.69S98.4,100.61,96.34,101.12Z"/><path id="Shape-3" class="cls-4" d="M95.88,103.55C94.08,104,71.6,121.83,71.69,122c.88,1.85,14.16,15.64,15.8,15.23,1.8-.44,19.57-18.51,18.82-20.69S97.68,103.11,95.88,103.55Z"/><path id="Shape-4" class="cls-3" d="M101.73,105.3a9.35,9.35,0,0,0-3.63,2.14c.34.94,4.91,6.78,6.12,6.62s3.07-1,2.87-2.11S103.06,105.13,101.73,105.3Z"/></g><path id="Shape-5" class="cls-5" d="M61.07,122.63l13.57-5c2.47,0,10.58,126.36,9.92,128.56l-6.8-.51c-1.44,0-10.2-35.87-18.26-60.12-6-18-6.66-60.13-6.66-60.13C52.84,122.34,58.6,122.63,61.07,122.63Z"/><path id="Shape-6" class="cls-6" d="M44.12,123.84l20.26-1.13c5.58-1.55-6.52,123.55-7.82,123.52H49.78c-1.43,0-12.44-101.66-12.18-106.33C38,132.91,41.65,123.78,44.12,123.84Z"/><path id="Shape-7" class="cls-7" d="M57.9,125.43c-4.8-2-19,1.75-19,1.75-2.47,0-.78-8-.18-10.9,2.85-13.92-.55-39.07,7-52.21,7.41-13,22.59-9.53,28.49-3.24,2.31,2.48,3,8.21,6,13.17,2.57,4.25,3.05,14.86-1.95,18.38-3.66,2.58-.34,28.86-.34,28.86C77.91,123.69,65.64,128.66,57.9,125.43Z"/><path id="Shape-8" class="cls-8" d="M62.82,87.07c3.82-.58,8.73,1.74,14.53,3.66,15,5,26.82-21,26.63-19.56l4.25,3.89C108,76.49,98,108,77.5,104.12c-8-1.51-19.51-2.19-20.32-9.85C57.17,94.21,58.63,87.7,62.82,87.07Z"/><path id="Shape-9" class="cls-9" d="M41.82,77.07s.8-11.91,4.84-14.29c.92-.54,10.06,16.56,22.06,23.08l1.37.7c.67,3.51-1,17.73-3.69,18.78a7.33,7.33,0,0,1-2.24-.93C50.57,95.82,41.66,78.21,41.82,77.07Z"/><path id="Shape-10" class="cls-7" d="M76.56,22.3c-1.85-4-8.47-3.78-8.48-3.81C53.94-3.41,32.53,41.35,32.53,41.35c-5.25-13.81-12.12,19.52,2.83,22.86,6.76,1.5,26.43-15,28.69-20.48S81.69,33.34,76.56,22.3Z"/><path id="Shape-11" class="cls-8" d="M57.65,55.17c-1.92,4,2.07,9.9,9.88,13.57C74.41,72,68.7,62.55,70,54.68c.86-5-5-8-8.37-6.75S59.81,50.7,57.65,55.17Z"/><path id="Shape-12" class="cls-2" d="M58.54,53a5.54,5.54,0,0,0,.2,4.77c1.31,2.84,11.83,6.31,11.11,1.11a28.62,28.62,0,0,1,.54-6.53c.8-4.75-6.32-7.6-9.48-6.48S60.05,48.58,58.54,53Z"/><path id="Shape-13" class="cls-8" d="M76.47,36.66c-1.29,7.86-.63,15-7.19,18.64-1.92,1.05-12.18-3.06-14-8.25-.47-1.33-2-2.27-2.77-3.66-2.32-4.34-.11-10.71,2.62-3.91.94,2.36,1-4.07,1.81-6.26,1.06-2.95,5.92-4.78,10-4.78s6.48-7,8-3A21,21,0,0,1,76.47,36.66Z"/><path id="Shape-14" class="cls-3" d="M103,63.44l1.46-2.37,14.91,9.15L117.9,72.6Z"/><path id="Shape-15" class="cls-8" d="M108.38,61.94c-4.7,4.08-3.31,7.28-4.41,9.23-1.59,2.83,3.57,4.66,4.26,3.89s6.35-4.8,6.74-8.16c.29-2.4-2.75-3.3-4.55-3.47C110.42,63.43,110.18,60.38,108.38,61.94Z"/><path id="Shape-16" class="cls-8" d="M98.55,125.92c-1.4,1.81-1,2.75,0,3.61s3.62-.55,5-2.35,1.91-3.05.8-3.91S100,124.11,98.55,125.92Z"/><path id="Shape-17" class="cls-8" d="M53.16,254.17c-3.45,0-3.38-9.28-3.38-9.28s5.09-.81,5.93.21c1.11,1.33,1.81,5.59,4,7.14,4.06,2.83,13.39,7.83,12.51,9.69s-5.8,2.92-9.86.09S54.93,254.17,53.16,254.17Z"/><path id="Shape-18" class="cls-7" d="M49.78,249c5-4.19,4.49,8.36,20,10.38,2.26.3,4.49,4.23,3,6.05h-8l-12.7-10.7V265H49.78Z"/><path id="Shape-19" class="cls-8" d="M81.14,254.17c-3.45,0-3.38-9.28-3.38-9.28s5.09-.81,5.93.21c1.11,1.33,1.81,5.59,4,7.14,4.06,2.83,13.39,7.83,12.51,9.69s-5.8,2.92-9.86.09S82.92,254.17,81.14,254.17Z"/><path id="Shape-20" class="cls-7" d="M77.76,249c5-4.19,4.49,8.36,20,10.38,2.26.3,4.49,4.23,3,6.05h-8l-12.7-10.7V265H77.76Z"/></g></svg>