<?xml version="1.0" encoding="UTF-8"?>
<svg id="Layer_2" data-name="Layer 2" xmlns="http://www.w3.org/2000/svg" version="1.1" viewBox="0 -160 1270 680">
  <defs>
    <style>
      .cls-1 {
        fill: #fff;
        stroke-width: 0px;
      }
    </style>
  </defs>
  <g id="Layer_1-2" data-name="Layer 1-2">
    <g>
      <g>
        <path class="cls-1" d="M463.8,228.1c4.9,0,9.4.8,13.5,2.4,4.1,1.6,7.7,4,10.7,7.1s5.4,6.9,7,11.4c1.7,4.5,2.5,9.7,2.5,15.5s-.2,3.8-.7,4.5-1.4,1.1-2.7,1.1h-54.2c.1,5.1.8,9.6,2.1,13.4s3.1,7,5.3,9.5c2.2,2.5,4.9,4.5,8,5.7,3.1,1.3,6.6,1.9,10.5,1.9s6.7-.4,9.3-1.2,4.8-1.7,6.7-2.7c1.9-1,3.5-1.9,4.7-2.7,1.3-.8,2.4-1.2,3.3-1.2s2.1.5,2.7,1.4l4,5.2c-1.8,2.1-3.9,4-6.4,5.6-2.5,1.6-5.1,2.9-7.9,3.9s-5.7,1.8-8.7,2.3-6,.8-8.9.8c-5.6,0-10.8-1-15.6-2.9-4.8-1.9-8.9-4.7-12.3-8.4-3.5-3.7-6.2-8.2-8.1-13.6s-2.9-11.6-2.9-18.7.9-11,2.6-15.9c1.7-4.9,4.2-9.2,7.5-12.8s7.3-6.5,12-8.5c4.7-2.1,10-3.1,15.9-3.1h0ZM464.1,238.6c-6.9,0-12.4,2-16.3,6-4,4-6.4,9.5-7.4,16.6h44.3c0-3.3-.5-6.4-1.4-9.1-.9-2.8-2.2-5.1-4-7.2s-3.9-3.6-6.5-4.7c-2.5-1.1-5.5-1.6-8.7-1.6h0Z"/>
        <path class="cls-1" d="M514.7,310.9v-81.5h8.5c2,0,3.3,1,3.9,3l1.1,8.9c3.5-3.9,7.5-7.1,11.9-9.5,4.4-2.4,9.4-3.6,15.2-3.6s8.4.7,11.8,2.2c3.4,1.5,6.2,3.6,8.5,6.3,2.3,2.7,4,6,5.2,9.8s1.8,8,1.8,12.6v51.9h-14.3v-51.9c0-6.2-1.4-11-4.2-14.4-2.8-3.4-7.1-5.1-12.9-5.1s-8.2,1-11.9,3.1-7.1,4.8-10.2,8.3v60h-14.3Z"/>
        <path class="cls-1" d="M630.5,228c3.5,0,6.8.4,9.9,1.2,3.1.8,5.9,1.9,8.4,3.4h22.1v5.3c0,1.8-1.1,2.9-3.4,3.4l-9.2,1.3c1.8,3.5,2.7,7.4,2.7,11.7s-.8,7.6-2.3,10.8c-1.5,3.2-3.7,6-6.4,8.3-2.7,2.3-5.9,4.1-9.7,5.3s-7.8,1.9-12.3,1.9-7.4-.5-10.8-1.4c-1.7,1.1-3,2.3-3.9,3.6-.9,1.3-1.3,2.5-1.3,3.7,0,2,.8,3.5,2.3,4.5,1.6,1,3.6,1.8,6.2,2.2s5.5.7,8.8.7h10c3.4,0,6.8.3,10,.9s6.2,1.6,8.8,2.9,4.6,3.2,6.2,5.6c1.6,2.4,2.3,5.5,2.3,9.3s-.9,7-2.6,10.3-4.2,6.3-7.5,8.8-7.3,4.6-12,6.2-10.1,2.3-16,2.3-11.2-.6-15.7-1.8c-4.5-1.2-8.2-2.8-11.1-4.8-3-2-5.2-4.3-6.6-6.9-1.5-2.6-2.2-5.3-2.2-8.2s1.3-7.5,3.8-10.3c2.5-2.8,6-5.1,10.5-6.7-2.3-1.1-4.1-2.5-5.5-4.3s-2-4.2-2-7.2.2-2.4.6-3.7,1.1-2.5,2-3.7c.9-1.2,2-2.4,3.3-3.5,1.3-1.1,2.8-2.1,4.5-3-4-2.2-7.2-5.2-9.5-9-2.3-3.7-3.4-8.1-3.4-13.1s.8-7.6,2.3-10.8c1.5-3.2,3.7-6,6.4-8.3s6-4,9.8-5.3c3.8-1.2,7.9-1.9,12.4-1.9h0ZM655.9,315c0-2.1-.6-3.8-1.7-5s-2.7-2.2-4.6-2.9c-1.9-.7-4.2-1.2-6.7-1.5s-5.2-.5-8-.5h-8.5c-2.9,0-5.7-.4-8.3-1.1-3.1,1.5-5.5,3.2-7.4,5.3-1.9,2.1-2.9,4.6-2.9,7.5s.5,3.5,1.4,5.1c.9,1.6,2.4,3,4.3,4.1,1.9,1.1,4.4,2.1,7.3,2.7,2.9.7,6.4,1,10.3,1s7.3-.4,10.4-1.1c3.1-.7,5.7-1.7,7.8-3s3.7-2.9,4.9-4.7,1.7-3.8,1.7-6h0ZM630.5,271.1c2.9,0,5.5-.4,7.7-1.2,2.2-.8,4.1-1.9,5.6-3.4,1.5-1.4,2.6-3.2,3.4-5.2.8-2,1.1-4.2,1.1-6.6,0-5-1.5-9-4.5-11.9-3-2.9-7.4-4.4-13.2-4.4s-10.1,1.5-13.2,4.4c-3,2.9-4.5,6.9-4.5,11.9s.4,4.6,1.2,6.6c.8,2,1.9,3.7,3.4,5.2s3.3,2.6,5.5,3.4c2.2.8,4.7,1.2,7.6,1.2h0Z"/>
        <path class="cls-1" d="M744,310.9h-6.4c-1.4,0-2.5-.2-3.4-.6-.9-.4-1.4-1.3-1.7-2.7l-1.6-7.6c-2.2,1.9-4.2,3.7-6.3,5.2-2,1.5-4.2,2.8-6.4,3.9-2.2,1-4.7,1.8-7.2,2.4-2.5.5-5.4.8-8.5.8s-6.1-.4-8.9-1.3c-2.8-.9-5.2-2.2-7.2-4-2-1.8-3.7-4-4.9-6.7s-1.8-5.9-1.8-9.6.9-6.3,2.7-9.3,4.6-5.6,8.6-8,9.1-4.2,15.5-5.7c6.4-1.5,14.2-2.2,23.4-2.2v-6.4c0-6.4-1.4-11.2-4.1-14.4-2.7-3.3-6.7-4.9-12-4.9s-6.4.4-8.8,1.3c-2.4.9-4.5,1.9-6.2,3-1.7,1.1-3.2,2.1-4.5,3s-2.5,1.3-3.7,1.3-1.8-.2-2.5-.8c-.7-.5-1.3-1.1-1.7-1.9l-2.6-4.6c4.5-4.3,9.4-7.6,14.6-9.7,5.2-2.1,11-3.2,17.3-3.2s8.6.8,12.2,2.2c3.5,1.5,6.5,3.6,8.9,6.3,2.4,2.7,4.2,5.9,5.5,9.7,1.2,3.8,1.8,8,1.8,12.6v52.1h0ZM706.9,302.1c2.5,0,4.8-.2,6.9-.8,2.1-.5,4.1-1.2,5.9-2.2s3.6-2.1,5.3-3.4c1.7-1.3,3.3-2.9,5-4.6v-16.8c-6.6,0-12.2.4-16.8,1.2-4.6.8-8.4,1.9-11.3,3.3s-5,2.9-6.3,4.8c-1.3,1.8-2,3.9-2,6.1s.3,4,1,5.6c.7,1.6,1.6,2.9,2.8,3.8,1.2,1,2.6,1.7,4.2,2.2,1.6.5,3.3.7,5.2.7h0Z"/>
        <path class="cls-1" d="M792.1,228c3.5,0,6.8.4,9.9,1.2,3.1.8,5.9,1.9,8.4,3.4h22.1v5.3c0,1.8-1.1,2.9-3.4,3.4l-9.2,1.3c1.8,3.5,2.7,7.4,2.7,11.7s-.8,7.6-2.3,10.8c-1.5,3.2-3.7,6-6.4,8.3-2.7,2.3-5.9,4.1-9.7,5.3s-7.8,1.9-12.3,1.9-7.4-.5-10.8-1.4c-1.7,1.1-3,2.3-3.9,3.6-.9,1.3-1.3,2.5-1.3,3.7,0,2,.8,3.5,2.3,4.5,1.6,1,3.6,1.8,6.2,2.2s5.5.7,8.8.7h10c3.4,0,6.8.3,10,.9s6.2,1.6,8.8,2.9,4.6,3.2,6.2,5.6c1.6,2.4,2.3,5.5,2.3,9.3s-.9,7-2.6,10.3c-1.7,3.3-4.2,6.3-7.5,8.8s-7.3,4.6-12,6.2-10.1,2.3-16,2.3-11.2-.6-15.7-1.8c-4.5-1.2-8.2-2.8-11.1-4.8-3-2-5.2-4.3-6.6-6.9-1.5-2.6-2.2-5.3-2.2-8.2s1.3-7.5,3.8-10.3c2.5-2.8,6-5.1,10.5-6.7-2.3-1.1-4.1-2.5-5.5-4.3s-2-4.2-2-7.2.2-2.4.6-3.7,1.1-2.5,2-3.7c.9-1.2,2-2.4,3.3-3.5,1.3-1.1,2.8-2.1,4.5-3-4-2.2-7.2-5.2-9.5-9-2.3-3.7-3.4-8.1-3.4-13.1s.8-7.6,2.3-10.8c1.5-3.2,3.7-6,6.4-8.3s6-4,9.8-5.3c3.8-1.2,7.9-1.9,12.4-1.9h0ZM817.5,315c0-2.1-.6-3.8-1.7-5s-2.7-2.2-4.6-2.9c-1.9-.7-4.2-1.2-6.7-1.5s-5.2-.5-8-.5h-8.5c-2.9,0-5.7-.4-8.3-1.1-3.1,1.5-5.5,3.2-7.4,5.3-1.9,2.1-2.9,4.6-2.9,7.5s.5,3.5,1.4,5.1c.9,1.6,2.4,3,4.3,4.1,1.9,1.1,4.4,2.1,7.3,2.7,2.9.7,6.4,1,10.3,1s7.3-.4,10.4-1.1c3.1-.7,5.7-1.7,7.8-3s3.7-2.9,4.9-4.7,1.7-3.8,1.7-6h0ZM792.1,271.1c2.9,0,5.5-.4,7.7-1.2,2.2-.8,4.1-1.9,5.6-3.4,1.5-1.4,2.6-3.2,3.4-5.2.8-2,1.1-4.2,1.1-6.6,0-5-1.5-9-4.5-11.9-3-2.9-7.4-4.4-13.2-4.4s-10.1,1.5-13.2,4.4c-3,2.9-4.5,6.9-4.5,11.9s.4,4.6,1.2,6.6c.8,2,1.9,3.7,3.4,5.2s3.3,2.6,5.5,3.4c2.2.8,4.7,1.2,7.6,1.2h0Z"/>
        <path class="cls-1" d="M878,228.1c4.9,0,9.4.8,13.5,2.4,4.1,1.6,7.7,4,10.7,7.1s5.3,6.9,7,11.4c1.7,4.5,2.5,9.7,2.5,15.5s-.2,3.8-.7,4.5-1.4,1.1-2.7,1.1h-54.2c.1,5.1.8,9.6,2.1,13.4,1.3,3.8,3.1,7,5.3,9.5,2.2,2.5,4.9,4.5,8,5.7,3.1,1.3,6.6,1.9,10.5,1.9s6.7-.4,9.3-1.2,4.8-1.7,6.7-2.7c1.9-1,3.5-1.9,4.7-2.7,1.3-.8,2.3-1.2,3.3-1.2s2.1.5,2.7,1.4l4,5.2c-1.8,2.1-3.9,4-6.4,5.6s-5.1,2.9-7.9,3.9-5.7,1.8-8.7,2.3-6,.8-8.9.8c-5.6,0-10.8-1-15.6-2.9-4.8-1.9-8.8-4.7-12.3-8.4-3.5-3.7-6.2-8.2-8.1-13.6-1.9-5.4-2.9-11.6-2.9-18.7s.9-11,2.6-15.9c1.7-4.9,4.2-9.2,7.5-12.8s7.3-6.5,12-8.5c4.7-2.1,10-3.1,15.9-3.1h0ZM878.3,238.6c-6.9,0-12.4,2-16.3,6-4,4-6.4,9.5-7.4,16.6h44.3c0-3.3-.5-6.4-1.4-9.1-.9-2.8-2.2-5.1-4-7.2-1.8-2-3.9-3.6-6.5-4.7-2.5-1.1-5.5-1.6-8.7-1.6h0Z"/>
      </g>
      <g>
        <path class="cls-1" d="M1161.6,104c0-33.3,9.5-56.7,48.1-56.7s48.1,23.4,48.1,56.7-9.5,56.7-48.1,56.7-48.1-23.4-48.1-56.7M1233.3,104c0-23.2-3-36.4-23.6-36.4s-23.6,13.2-23.6,36.4,3,36.4,23.6,36.4,23.6-13.3,23.6-36.4"/>
        <path class="cls-1" d="M495.6,156.4c.6,1,1.6,1.7,2.8,1.7h9c1.8,0,3.2-1.4,3.2-3.2V53c0-1.8-1.4-3.2-3.2-3.2h-17.9c-1.8,0-3.2,1.4-3.2,3.2v80.8c-7.6,4.3-16.3,6.5-25,6.3-11.5,0-17.1-5-17.1-16.1V53c0-1.8-1.4-3.2-3.2-3.2h-18.1c-1.8,0-3.2,1.4-3.2,3.2v73.2c0,20.8,9.8,34.4,37.2,34.4,12.6-.2,24.8-4,35-11.3l3.2,7.1h.4Z"/>
        <path class="cls-1" d="M697.6,81.7c0-20.6-10.2-34.5-35.9-34.5s-24.5,3.8-34.6,10.8c-4.5-6.7-13.2-10.8-27.7-10.8-11.8.2-23.2,4.1-32.7,11.3l-3.2-7.1c-.6-1-1.6-1.7-2.8-1.7h-9.1c-1.8,0-3.2,1.4-3.2,3.2v101.8c0,1.8,1.4,3.2,3.2,3.2h17.9c1.8,0,3.2-1.4,3.2-3.2v-80.6c6.9-4.1,14.7-6.3,22.7-6.3s15.4,3.6,15.4,13.9v73.2c0,1.8,1.4,3.2,3.2,3.2h17.9c1.8,0,3.2-1.4,3.2-3.2v-80.7c6.8-4.2,14.7-6.5,22.8-6.3,9.5,0,15.4,3.6,15.4,13.9v73.2c0,1.8,1.4,3.2,3.2,3.2h17.9c1.8,0,3.2-1.4,3.2-3.2v-73.1h0,0Z"/>
        <path class="cls-1" d="M753,149.5c10.2,7.5,22.4,11.4,35.1,11.3,31.7,0,43.3-21.2,43.3-56.7s-11.7-56.7-43.3-56.7c-10.2,0-20.3,2.9-29,8.5V23c0-1.8-1.4-3.2-3.2-3.3h-18c-1.8,0-3.2,1.4-3.2,3.2v132c0,1.8,1.4,3.2,3.2,3.2h9c1.2,0,2.2-.6,2.8-1.6l3.3-7.1h0ZM782.4,140.1c-8.2,0-16.3-2.1-23.4-6.3v-59.7c7.1-4.1,15.1-6.3,23.4-6.3,21.2,0,24.5,16.2,24.5,36.1s-3.2,36.2-24.5,36.2h0Z"/>
        <path class="cls-1" d="M921,68.6c-2.8-.4-5.6-.6-8.4-.5-9.7-.4-19.2,1.8-27.7,6.5v80.4c0,1.8-1.4,3.2-3.2,3.2h-17.9c-1.8,0-3.2-1.4-3.2-3.2V53c0-1.8,1.4-3.2,3.2-3.2h9c1.2,0,2.3.7,2.8,1.7l3.2,7.1c9.8-7.5,21.8-11.4,34.2-11.3,2.9,0,5.7.2,8.5.7,1.7,0,2.9,2.7,2.9,4.4v12.9c0,1.8-1.4,3.2-3.2,3.2h-.2"/>
        <path class="cls-1" d="M983.1,108.1c-10.8,1.3-17.1,5.4-17.1,16.6s3.6,16,16.6,16c8.3,0,16.4-2.4,23.2-7.1v-28l-22.7,2.4h0ZM1011.7,149.5c-9.3,7.3-20.8,11.3-32.7,11.3-28,0-37.2-17.3-37.2-34.6s15.1-33.3,39.7-35.3l24.3-1.9v-5.4c0-11-5.2-15.4-21.2-15.4s-20.1,1.7-29.6,5c-.3,0-.7,0-1,0-1.8,0-3.2-1.4-3.2-3.2h0v-14.4c0-1.3.8-2.5,2.1-3,10.8-3.6,22.1-5.5,33.4-5.4,35.5,0,43.7,15.5,43.7,38.6v69.1c0,1.8-1.4,3.2-3.2,3.2h-9c-1.2,0-2.3-.6-2.8-1.7l-3.4-6.8h0Z"/>
        <path class="cls-1" d="M1135.1,135.8c.3,0,.7,0,1,0,1.8,0,3.2,1.4,3.2,3.2h0v14.4c0,1.3-.8,2.4-1.9,2.9-8.9,3.2-18.4,4.8-27.9,4.5-38.3,0-50.2-22.9-50.2-56.7s11.7-56.7,50.2-56.7c9.4-.2,18.8,1.3,27.7,4.4,1.3.5,2,1.7,2,3v14.4c0,1.8-1.4,3.2-3.2,3.2h-1c-7.8-2.5-16-3.7-24.1-3.6-21,0-27.1,14.4-27.1,35.3s6.1,35.3,27.1,35.3c8.2.2,16.4-1.1,24.1-3.6"/>
      </g>
    </g>
    <g>
      <g>
        <path class="cls-1" d="M256.6,151.3l75.4-16.2c5.3-1.2,8.4-6.7,6.6-11.9-20.9-58.8-73.6-102.5-137.5-110.5-5.4-.7-10.2,3.5-10.2,9l.4,77.1c0,4.1,2.8,7.7,6.8,8.7,21.3,5.3,39,19.8,48.6,39.1,1.8,3.7,5.9,5.6,9.9,4.7Z"/>
        <path class="cls-1" d="M172.7,253.1c-35.7-3.6-63.8-32.6-66.3-68.4-2.6-36.9,21.8-68.5,55.5-77.2,4-1,6.7-4.6,6.7-8.7l-.4-77.1c0-5.5-4.9-9.6-10.3-8.9C76.4,23.7,13.3,93,12.3,177.2c-1.2,95.2,75.9,171.8,171,170.1,43-.8,82.1-17.7,111.4-45,4-3.7,3.8-10.1-.4-13.5l-59.4-49.2c-3.2-2.6-7.7-2.8-11-.4-14.1,10.3-32,15.8-51.2,13.9h0Z"/>
        <path class="cls-1" d="M254.2,184.5c-.7,9.5-3.1,18.6-7.1,26.8-1.8,3.7-.8,8.1,2.4,10.8l59.4,49.2c4.2,3.5,10.5,2.4,13.4-2.2,16.4-26,25.9-56.7,25.9-89.7s-.2-9.4-.6-13.9c-.5-5.4-5.6-9.2-10.9-8.1l-75.4,16.2c-4.1.9-7,4.4-7.1,8.6,0,1,0,1.9,0,2.3h0Z"/>
      </g>
      <path class="cls-1" d="M230.2,178.1c-.1-4-.7-7.9-1.8-11.6-1.7-6.1-8.8-8.6-14-5-3,2.1-6.8,3.2-10.9,2.8-7.6-.8-13.7-7-14.4-14.6-.2-2.6.2-5.2,1.1-7.5,2.3-5.8-1.6-12.1-7.8-12.4-2.6-.1-5.3,0-8,.3-25.1,2.9-44.3,24.5-44.2,49.8.2,29.7,25.7,52.5,55,49.6,25.2-2.5,45.8-26.1,44.9-51.4h0Z"/>
    </g>
  </g>
</svg>