<svg xmlns="http://www.w3.org/2000/svg" viewBox="0 0 723.59 887.635"><path d="M524.991 688.967a230.976 230.976 0 0 1-394.18-163.449V327.177a34.629 34.629 0 0 1 69.257 0v198.344a161.961 161.961 0 0 0 161.864 161.856c89.1 0 161.587-72.611 161.587-161.863V326.203a34.629 34.629 0 1 1 69.257 0v199.318a230.554 230.554 0 0 1-67.785 163.446z"/><path d="M432.634 596.355a100.017 100.017 0 0 1-170.737-70.834v-67.9a34.63 34.63 0 1 1 69.26 0v67.9a30.86 30.86 0 0 0 30.78 30.868 30.533 30.533 0 0 0 21.728-9.01 30.7 30.7 0 0 0 9.043-21.854V269.067a102.1 102.1 0 0 1 28.681-71.077 97.832 97.832 0 0 1 126.986-12.994c2.07 1.433 4.1 2.957 6.053 4.536a34.629 34.629 0 1 1-43.572 53.833c-.614-.494-1.254-.975-1.907-1.426a29.014 29.014 0 0 0-16.5-5.261c-16.525 0-30.488 14.833-30.488 32.388v256.455a99.51 99.51 0 0 1-29.321 70.817z"/><path d="M321.014 364.6a34.629 34.629 0 0 1-59.116-24.486V173.572a160.8 160.8 0 0 0-47.407-114.454 34.63020107 34.63020107 0 0 1 48.973-48.976 229.639 229.639 0 0 1 67.694 163.43v166.539a34.5 34.5 0 0 1-10.144 24.489zM713.445 365.864a34.629 34.629 0 0 1-59.113-24.486V202.051a34.629 34.629 0 1 1 69.257 0v139.327a34.52 34.52 0 0 1-10.144 24.486zM617.496 781.742a359.052 359.052 0 0 1-255.561 105.893 360.256 360.256 0 0 1-249.437-99.784 34.6290007 34.6290007 0 1 1 47.754-50.162 292.231 292.231 0 0 0 408.272-4.923l.149-.149a291.168 291.168 0 0 0 85.656-207.1v-67.898a34.6305 34.6305 0 0 1 69.261 0v67.9a359.974 359.974 0 0 1-105.912 256.038zM97.207 703.391a34.658 34.658 0 0 1-55.084-8.24A362.884 362.884 0 0 1 0 525.522V198.656a99.528 99.528 0 0 1 29.282-70.784l.052-.052a100.034 100.034 0 0 1 170.734 70.833v11.535a34.629 34.629 0 0 1-69.257 0v-11.535a30.777 30.777 0 1 0-61.553 0v326.869a293.342 293.342 0 0 0 34.032 137.14 34.652 34.652 0 0 1-6.083 40.729z"/></svg>