<svg xmlns="http://www.w3.org/2000/svg">

	<symbol viewBox="0 0 10 10" id="icon-discount" preserveAspectRatio="xMidYMid">
		<g>
			<path d="M7.824 5.649A2.176 2.176 0 1 0 10 7.825a2.178 2.178 0 0 0-2.176-2.176Zm0 2.8a.628.628 0 1 1 .628-.628.628.628 0 0 1-.628.628ZM2.176 4.352a2.176 2.176 0 0 0 0-4.352 2.176 2.176 0 0 0 0 4.352Zm0-2.8a.628.628 0 1 1-.628.628.628.628 0 0 1 .628-.632ZM10 .921A.921.921 0 0 0 8.429.27L.27 8.428a.921.921 0 1 0 1.3 1.3l8.161-8.156A.915.915 0 0 0 10 .921Zm0 0"/>
		</g>
	</symbol>

	<symbol viewBox="0 0 10 10" id="icon-hashtag" preserveAspectRatio="xMidYMid">
		<path d="M9.2 6.515H8.164a.075.075 0 0 1-.074-.074V3.559a.075.075 0 0 1 .074-.074H9.2a.81.81 0 0 0 .592-.256.774.774 0 0 0 .207-.589.79.79 0 0 0-.786-.729H8.164a.075.075 0 0 1-.074-.074V.8a.809.809 0 0 0-.257-.591A.773.773 0 0 0 7.244 0a.791.791 0 0 0-.73.785v1.05a.075.075 0 0 1-.074.074H3.559a.075.075 0 0 1-.074-.074V.8a.81.81 0 0 0-.257-.591.773.773 0 0 0-.59-.209.791.791 0 0 0-.729.785v1.05a.075.075 0 0 1-.075.074H.8a.81.81 0 0 0-.592.256.774.774 0 0 0-.207.59.791.791 0 0 0 .785.729h1.048a.075.075 0 0 1 .075.074v2.883a.075.075 0 0 1-.075.074H.8a.81.81 0 0 0-.592.257.773.773 0 0 0-.207.59.791.791 0 0 0 .785.729h1.048a.075.075 0 0 1 .075.074V9.2a.811.811 0 0 0 .256.592.774.774 0 0 0 .59.207.791.791 0 0 0 .729-.786V8.165a.075.075 0 0 1 .074-.074H6.44a.075.075 0 0 1 .074.074V9.2a.811.811 0 0 0 .257.592A.774.774 0 0 0 7.3 10h.059a.791.791 0 0 0 .729-.786V8.165a.075.075 0 0 1 .074-.074h1.05a.79.79 0 0 0 .786-.729.774.774 0 0 0-.207-.59.81.81 0 0 0-.591-.257Zm-2.686-.074a.075.075 0 0 1-.074.074H3.559a.075.075 0 0 1-.074-.074V3.559a.075.075 0 0 1 .074-.074H6.44a.075.075 0 0 1 .074.074Zm0 0"/>
	</symbol>

	<symbol viewBox="0 0 13 13" id="icon-info" preserveAspectRatio="xMidYMid">
		<path d="M5.85,9.75h1.3V5.85H5.85ZM6.5,0A6.5,6.5,0,1,0,13,6.5,6.519,6.519,0,0,0,6.5,0Zm0,11.7a5.2,5.2,0,1,1,5.2-5.2A5.215,5.215,0,0,1,6.5,11.7ZM5.85,4.55h1.3V3.25H5.85Z" />
	</symbol>

	<symbol viewBox="0 0 15 15" id="icon-toggle" preserveAspectRatio="xMidYMid">
		<g transform="translate(15) rotate(90)">
			<g>
				<path d="M7.5,0A7.5,7.5,0,1,0,15,7.5,7.5,7.5,0,0,0,7.5,0ZM9.785,8.008a.707.707,0,0,1-.118.094L6.852,10.917a.7.7,0,0,1-.99-.99L8.287,7.5,5.874,5.088a.7.7,0,0,1,.99-.991l2.8,2.8a.727.727,0,0,1,.118,1.109Z" />
			</g>
		</g>
	</symbol>

	<symbol viewBox="0 0 10 8" id="icon-arrow" preserveAspectRatio="xMidYMid">
		<g transform="translate(0 -39.346)">
			<g transform="translate(0 39.346)">
				<path d="M9.463,44.972,5.99,41.5a.528.528,0,0,0-.744,0l-.315.315a.522.522,0,0,0-.154.372.533.533,0,0,0,.154.377l2.026,2.03H.52a.514.514,0,0,0-.52.517v.446a.533.533,0,0,0,.52.54h6.46L4.93,48.139a.521.521,0,0,0,0,.739l.315.314a.528.528,0,0,0,.744,0l3.473-3.473a.531.531,0,0,0,0-.747Z" transform="translate(0 -41.346)" />
			</g>
		</g>
	</symbol>

	<symbol viewBox="0 0 73 84" id="icon-hexagon" preserveAspectRatio="xMidYMid">
		<path d="M56.014,0A12,12,0,0,1,66.405,6L80.456,30.331a12,12,0,0,1,0,12L66.405,66.665a12,12,0,0,1-10.392,6H27.908a12,12,0,0,1-10.392-6L3.465,42.333a12,12,0,0,1,0-12L17.516,6A12,12,0,0,1,27.908,0Z" transform="translate(0 83.922) rotate(-90)" />
	</symbol>

	<symbol viewBox="0 0 14 14" id="icon-gear" preserveAspectRatio="xMidYMid">
		<g>
			<path d="M13.689,5.782l-1.606-.395a5.3,5.3,0,0,0-.371-.882l.748-1.246a.41.41,0,0,0-.062-.5L11.239,1.6a.409.409,0,0,0-.5-.062L9.49,2.284a5.284,5.284,0,0,0-.877-.367L8.218.311A.41.41,0,0,0,7.82,0H6.18a.41.41,0,0,0-.4.311s-.274,1.121-.395,1.605a5.266,5.266,0,0,0-.931.4L3.162,1.536a.411.411,0,0,0-.5.062L1.5,2.758a.41.41,0,0,0-.062.5L2.24,4.6a5.285,5.285,0,0,0-.323.79l-1.606.4A.41.41,0,0,0,0,6.18V7.82a.41.41,0,0,0,.311.4l1.606.395a5.29,5.29,0,0,0,.377.9L1.578,10.7a.41.41,0,0,0,.062.5l1.16,1.16a.412.412,0,0,0,.5.062l1.2-.717a5.284,5.284,0,0,0,.89.375l.395,1.605a.41.41,0,0,0,.4.311H7.82a.41.41,0,0,0,.4-.311l.395-1.605a5.21,5.21,0,0,0,.91-.387l1.215.729a.41.41,0,0,0,.5-.062L12.4,11.2a.41.41,0,0,0,.062-.5l-.737-1.228a5.253,5.253,0,0,0,.36-.862l1.606-.395A.41.41,0,0,0,14,7.82V6.18A.41.41,0,0,0,13.689,5.782ZM7,9.871A2.871,2.871,0,1,1,9.871,7,2.875,2.875,0,0,1,7,9.871Z" />
		</g>
	</symbol>

	<symbol viewBox="0 0 20.502 17" id="icon-persona" preserveAspectRatio="xMidYMid">
		<g id="Group_4040" data-name="Group 4040" transform="translate(-740 -361)">
			<g id="Group_4040-2" data-name="Group 4040" transform="translate(740 368.446)">
				<g id="Group_3948" data-name="Group 3948" transform="translate(0 0)">
					<path id="Path_5171" data-name="Path 5171" d="M17.5,231.221H15.492a2.994,2.994,0,0,0-.789.106,3.006,3.006,0,0,0-2.678-1.646H8.477A3.006,3.006,0,0,0,5.8,231.327a2.994,2.994,0,0,0-.789-.106H3a3.007,3.007,0,0,0-3,3v3.208a1.8,1.8,0,0,0,1.8,1.8H18.7a1.8,1.8,0,0,0,1.8-1.8v-3.208A3.007,3.007,0,0,0,17.5,231.221ZM5.474,232.683v5.349H1.8a.6.6,0,0,1-.6-.6v-3.208a1.8,1.8,0,0,1,1.8-1.8H5.01a1.8,1.8,0,0,1,.471.063C5.477,232.551,5.474,232.617,5.474,232.683Zm8.353,5.349H6.675v-5.349a1.8,1.8,0,0,1,1.8-1.8h3.547a1.8,1.8,0,0,1,1.8,1.8Zm5.474-.6a.6.6,0,0,1-.6.6H15.028v-5.349c0-.067,0-.133-.007-.2a1.8,1.8,0,0,1,.471-.063H17.5a1.8,1.8,0,0,1,1.8,1.8Z" transform="translate(0 -229.68)" />
				</g>
			</g>
			<g id="Group_4041" data-name="Group 4041" transform="translate(741.338 364.315)">
				<g id="Group_3950" data-name="Group 3950" transform="translate(0 0)">
					<path id="Path_5172" data-name="Path 5172" d="M36.083,126.5a2.669,2.669,0,1,0,2.669,2.669A2.672,2.672,0,0,0,36.083,126.5Zm0,4.136a1.467,1.467,0,1,1,1.467-1.467A1.469,1.469,0,0,1,36.083,130.64Z" transform="translate(-33.414 -126.504)" />
				</g>
			</g>
			<g id="Group_4042" data-name="Group 4042" transform="translate(746.686 361)">
				<g id="Group_3952" data-name="Group 3952" transform="translate(0 0)">
					<path id="Path_5173" data-name="Path 5173" d="M170.527,43.729a3.565,3.565,0,1,0,3.565,3.565A3.569,3.569,0,0,0,170.527,43.729Zm0,5.929a2.364,2.364,0,1,1,2.364-2.364A2.367,2.367,0,0,1,170.527,49.658Z" transform="translate(-166.962 -43.729)" />
				</g>
			</g>
			<g id="Group_4043" data-name="Group 4043" transform="translate(753.827 364.315)">
				<g id="Group_3954" data-name="Group 3954" transform="translate(0 0)">
					<path id="Path_5174" data-name="Path 5174" d="M347.963,126.5a2.669,2.669,0,1,0,2.669,2.669A2.672,2.672,0,0,0,347.963,126.5Zm0,4.136a1.467,1.467,0,1,1,1.468-1.467A1.469,1.469,0,0,1,347.963,130.64Z" transform="translate(-345.294 -126.504)" />
				</g>
			</g>
		</g>
	</symbol>


	<!-- parameters -->
	<symbol viewBox="0 0 30 30" id="icon-ecommerce" preserveAspectRatio="xMidYMid">
		<g id="discount" transform="translate(0 0)">
			<path id="Path_5255" data-name="Path 5255" d="M176.016,126.569l4.1-12.293a.869.869,0,0,0-1.649-.55l-4.1,12.293a.869.869,0,1,0,1.649.55Z" transform="translate(-164.22 -106.576)" fill="#1a254f" />
			<path id="Path_5256" data-name="Path 5256" d="M267.141,194.418a2.608,2.608,0,1,0-2.608-2.608A2.611,2.611,0,0,0,267.141,194.418Zm0-3.477a.869.869,0,1,1-.869.869A.87.87,0,0,1,267.141,190.941Z" transform="translate(-249.204 -178.239)" fill="#1a254f" />
			<path id="Path_5257" data-name="Path 5257" d="M97.435,189.2a2.608,2.608,0,1,0,2.608,2.608A2.611,2.611,0,0,0,97.435,189.2Zm0,3.477a.869.869,0,1,1,.869-.869A.87.87,0,0,1,97.435,192.68Z" transform="translate(-89.332 -178.239)" fill="#1a254f" />
			<path id="Path_5258" data-name="Path 5258" d="M29.5,10.779,26.465,6.737l.118-.828a.869.869,0,0,0-.246-.738L24.493,3.328l1.844-1.844A.869.869,0,1,0,25.108.255L23.264,2.1,21.42.255a.87.87,0,0,0-.738-.246L12.078,1.238a.869.869,0,0,0-.492.246L.932,12.138a3.191,3.191,0,0,0,0,4.507L9.947,25.66a3.179,3.179,0,0,0,.6.47v.352a3.191,3.191,0,0,0,3.187,3.187H26.483a3.191,3.191,0,0,0,3.187-3.187V11.3a.869.869,0,0,0-.174-.522ZM2.161,15.416a1.45,1.45,0,0,1,0-2.049L12.61,2.918,20.5,1.791l1.537,1.537L20.806,4.557l-.615-.615a.869.869,0,0,0-1.229,1.229L21.42,7.631A.869.869,0,0,0,22.649,6.4l-.615-.615,1.229-1.229L24.8,6.094l-1.127,7.888L13.225,24.431a1.449,1.449,0,0,1-2.049,0Zm25.77,11.067a1.45,1.45,0,0,1-1.449,1.449H13.734A1.45,1.45,0,0,1,12.29,26.59a3.175,3.175,0,0,0,2.165-.93L25.108,15.006a.869.869,0,0,0,.246-.492l.763-5.343,1.814,2.419Z" transform="translate(0 0)" fill="#1a254f" />
		</g>
	</symbol>

	<symbol viewBox="0 0 28 28" id="icon-explicit" preserveAspectRatio="xMidYMid">
		<g id="Group_4113" data-name="Group 4113" transform="translate(23.076 23.078)">
			<g id="Group_4112" data-name="Group 4112">
				<circle id="Ellipse_494" data-name="Ellipse 494" cx="0.82" cy="0.82" r="0.82" fill="#1a254f" />
			</g>
		</g>
		<g id="Group_4115" data-name="Group 4115" transform="translate(19.795 23.078)">
			<g id="Group_4114" data-name="Group 4114">
				<circle id="Ellipse_495" data-name="Ellipse 495" cx="0.82" cy="0.82" r="0.82" fill="#1a254f" />
			</g>
		</g>
		<g id="Group_4117" data-name="Group 4117">
			<g id="Group_4116" data-name="Group 4116">
				<path id="Path_5277" data-name="Path 5277" d="M25.539,0H2.461A2.464,2.464,0,0,0,0,2.461V25.539A2.464,2.464,0,0,0,2.461,28H25.539A2.464,2.464,0,0,0,28,25.539V2.461A2.464,2.464,0,0,0,25.539,0Zm.82,25.539a.821.821,0,0,1-.82.82H2.461a.821.821,0,0,1-.82-.82v-4.1H26.359Zm0-5.742H1.641V2.461a.821.821,0,0,1,.82-.82H25.539a.821.821,0,0,1,.82.82Z" fill="#1a254f" />
			</g>
		</g>
		<g id="Group_4119" data-name="Group 4119" transform="translate(3.281 3.281)">
			<g id="Group_4118" data-name="Group 4118">
				<path id="Path_5278" data-name="Path 5278" d="M63.281,61.782V60.82a.82.82,0,0,0-1.641,0v.961a2.46,2.46,0,0,0,0,4.64v7.633a.82.82,0,0,0,1.641,0V66.421a2.46,2.46,0,0,0,0-4.64Zm-.82,3.14a.82.82,0,1,1,.82-.82A.821.821,0,0,1,62.461,64.922Z" transform="translate(-60 -60)" fill="#1a254f" />
			</g>
		</g>
		<g id="Group_4121" data-name="Group 4121" transform="translate(11.539 3.281)">
			<g id="Group_4120" data-name="Group 4120">
				<path id="Path_5279" data-name="Path 5279" d="M214.281,66.7V60.82a.82.82,0,0,0-1.641,0V66.7a2.46,2.46,0,0,0,0,4.64v2.711a.82.82,0,0,0,1.641,0V71.343a2.46,2.46,0,0,0,0-4.64Zm-.82,3.14a.82.82,0,1,1,.82-.82A.821.821,0,0,1,213.461,69.844Z" transform="translate(-211 -60)" fill="#1a254f" />
			</g>
		</g>
		<g id="Group_4123" data-name="Group 4123" transform="translate(19.797 3.281)">
			<g id="Group_4122" data-name="Group 4122">
				<path id="Path_5280" data-name="Path 5280" d="M365.281,61.782V60.82a.82.82,0,0,0-1.641,0v.961a2.46,2.46,0,0,0,0,4.64v7.633a.82.82,0,0,0,1.641,0V66.421a2.46,2.46,0,0,0,0-4.64Zm-.82,3.14a.82.82,0,1,1,.82-.82A.821.821,0,0,1,364.461,64.922Z" transform="translate(-362 -60)" fill="#1a254f" />
			</g>
		</g>
		<g id="Group_4125" data-name="Group 4125" transform="translate(3.281 23.078)">
			<g id="Group_4124" data-name="Group 4124">
				<path id="Path_5281" data-name="Path 5281" d="M62.461,422H60.82a.82.82,0,0,0,0,1.641h1.641a.82.82,0,0,0,0-1.641Z" transform="translate(-60 -422)" fill="#1a254f" />
			</g>
		</g>
		<g id="Group_4127" data-name="Group 4127" transform="translate(8.203 23.078)">
			<g id="Group_4126" data-name="Group 4126">
				<path id="Path_5282" data-name="Path 5282" d="M152.516,422h-1.7a.82.82,0,0,0,0,1.641h1.7a.82.82,0,0,0,0-1.641Z" transform="translate(-150 -422)" fill="#1a254f" />
			</g>
		</g>
		<g id="Group_4129" data-name="Group 4129" transform="translate(13.18 23.078)">
			<g id="Group_4128" data-name="Group 4128">
				<path id="Path_5283" data-name="Path 5283" d="M243.461,422H241.82a.82.82,0,0,0,0,1.641h1.641a.82.82,0,0,0,0-1.641Z" transform="translate(-241 -422)" fill="#1a254f" />
			</g>
		</g>
	</symbol>

	<symbol viewBox="0 0 34 34" id="icon-goals" preserveAspectRatio="xMidYMid">
		<g id="Group_4142" data-name="Group 4142" transform="translate(-1243.875 -481.875)">
			<g id="notification" transform="translate(1244 482)">
				<path id="Path_5265" data-name="Path 5265" d="M85.9,27.359h-.74a19.2,19.2,0,0,1-2.249-9.006V13.746A8.979,8.979,0,0,0,77.27,5.419V3.32a3.32,3.32,0,1,0-6.641,0v2.1a8.979,8.979,0,0,0-5.645,8.327v4.607a19.2,19.2,0,0,1-2.249,9.006H62a1,1,0,0,0,0,1.992h6.4a5.643,5.643,0,0,0,11.109,0h6.4a1,1,0,0,0,0-1.992ZM72.621,3.32a1.328,1.328,0,1,1,2.656,0V4.88a9,9,0,0,0-2.656,0ZM66.977,13.746a6.973,6.973,0,1,1,13.945,0v4.607a21.144,21.144,0,0,0,.455,4.358H66.522a21.144,21.144,0,0,0,.455-4.358ZM66,24.7H81.9a21.181,21.181,0,0,0,1.036,2.656H64.964A21.171,21.171,0,0,0,66,24.7Zm7.95,7.3a3.658,3.658,0,0,1-3.513-2.656h7.026A3.658,3.658,0,0,1,73.949,32.008Z" transform="translate(-56.949 0)" stroke="#fff" stroke-width="0.25" />
				<path id="Path_5266" data-name="Path 5266" d="M457.381,177.652a1,1,0,0,0-1.409,1.409,4.987,4.987,0,0,1,0,7.043,1,1,0,1,0,1.409,1.409,6.979,6.979,0,0,0,0-9.861Z" transform="translate(-425.421 -165.583)" stroke="#fff" stroke-width="0.25" />
				<path id="Path_5267" data-name="Path 5267" d="M413.545,220.078a1,1,0,0,0,0,1.409,1,1,0,0,1,0,1.409,1,1,0,1,0,1.409,1.409,2.992,2.992,0,0,0,0-4.226A1,1,0,0,0,413.545,220.078Z" transform="translate(-385.811 -205.191)"  stroke="#fff" stroke-width="0.25" />
				<path id="Path_5268" data-name="Path 5268" d="M3.448,177.653a1,1,0,0,0-1.409,0,6.979,6.979,0,0,0,0,9.861A1,1,0,0,0,3.448,186.1a4.987,4.987,0,0,1,0-7.043A1,1,0,0,0,3.448,177.653Z" transform="translate(0 -165.583)"  stroke="#fff" stroke-width="0.25" />
				<path id="Path_5269" data-name="Path 5269" d="M61.558,224.6a1,1,0,0,0,.7-1.7,1,1,0,0,1,0-1.409,1,1,0,0,0-1.409-1.409,2.992,2.992,0,0,0,0,4.226A.993.993,0,0,0,61.558,224.6Z" transform="translate(-55.996 -205.19)" stroke="#fff" stroke-width="0.25" />
			</g>
		</g>
	</symbol>

	<!-- project overview -->
	<symbol viewBox="0 0 538 538" id="icon-project-active" preserveAspectRatio="xMidYMid">
		<path d="M520,72.3c0-8.3-6.7-15-15-15H190.3c-4,0-7.8,1.6-10.6,4.4l-72.8,72.8l-1.5,1.5h-2.1H33c-8.3,0-15,6.7-15,15v314.7
		c0,8.3,6.7,15,15,15h472c8.3,0,15-6.7,15-15V72.3z M156.4,127.5l38.7-38.7l1.5-1.5h2.1h100.8h12.1l-8.5,8.5l-38.7,38.7l-1.5,1.5
		h-2.1H159.9h-12.1L156.4,127.5z M490,92.3v353.3v5h-5H53h-5v-5V171v-5h5h216c4,0,7.8-1.6,10.6-4.4l72.8-72.8l1.5-1.5h2.1h129h5V92.3
		z" />
		<path d="M304.3,291.1v-66.9c0-5.8-4.7-10.5-10.5-10.5h-49.5c-5.8,0-10.5,4.7-10.5,10.5v66.9l-57.1,76.1c-5.3,7-6.1,16.3-2.2,24.2
		c3.9,7.9,11.9,12.8,20.7,12.8h147.7c8.8,0,16.7-4.9,20.7-12.8c3.9-7.9,3.1-17.2-2.2-24.2L304.3,291.1z M285.4,300.9l15.3,20.3h-63.3
		l15.3-20.3c1.4-1.8,2.1-4,2.1-6.3v-59.9h28.5v59.9C283.3,296.9,284,299.1,285.4,300.9z M344.7,382.1c-0.4,0.8-1,1.2-1.9,1.2H195.1
		c-0.9,0-1.5-0.4-1.9-1.2c-0.6-1.2,0-2,0.2-2.2l28.2-37.5h94.8l28.2,37.5C344.7,380.1,345.3,380.9,344.7,382.1z" />
	</symbol>

	<!-- project overview -->
	<symbol viewBox="0 0 538 538" id="icon-project-inactive" preserveAspectRatio="xMidYMid">
		<path d="M520,72.3c0-8.3-6.7-15-15-15H190.3c-4,0-7.8,1.6-10.6,4.4l-72.8,72.8l-1.5,1.5h-2.1H33c-8.3,0-15,6.7-15,15v314.7
		c0,8.3,6.7,15,15,15h472c8.3,0,15-6.7,15-15V72.3z M156.4,127.5l38.7-38.7l1.5-1.5h2.1h100.8h12.1l-8.5,8.5l-38.7,38.7l-1.5,1.5
		h-2.1H159.9h-12.1L156.4,127.5z M490,92.3v353.3v5h-5H53h-5v-5V171v-5h5h216c4,0,7.8-1.6,10.6-4.4l72.8-72.8l1.5-1.5h2.1h129h5V92.3
		z" />
		<path class="st0" style="fill:#d6d6d6 !important;" d="M361.4,367.2l-57.1-76.1v-66.9c0-5.8-4.7-10.5-10.5-10.5h-49.5c-5.8,0-10.5,4.7-10.5,10.5v66.9l-57.1,76.1
		c-5.3,7-6.1,16.3-2.2,24.2c3.9,7.9,11.9,12.8,20.7,12.8h147.7c8.8,0,16.7-4.9,20.7-12.8C367.5,383.6,366.6,374.3,361.4,367.2z
		M285.4,300.9l15.3,20.3h-63.3l15.3-20.3c1.4-1.8,2.1-4,2.1-6.3v-59.9h28.5v59.9C283.3,296.9,284,299.1,285.4,300.9z M344.7,382.1
		c-0.4,0.8-1,1.2-1.9,1.2H195.1c-0.9,0-1.5-0.4-1.9-1.2c-0.6-1.2,0-1.9,0.2-2.2l28.2-37.5h94.8l28.2,37.5
		C344.7,380.1,345.3,380.9,344.7,382.1z" />
	</symbol>

	<!-- project overview -->
	<symbol viewBox="0 0 538 538" id="icon-project-archived" preserveAspectRatio="xMidYMid">
		<path d="M490.5,76.2c0-6.5-5.2-13.5-13.5-13.5H61c-8.2,0-13.5,5.3-13.5,13.5v91.2c0,8.2,5.3,13.5,13.5,13.5h16.9v280.9
			c0,8.2,5.3,13.5,13.5,13.5h355.2c8.2,0,13.5-5.3,13.5-13.5V180.9H477c8.2,0,13.5-5.3,13.5-13.5V76.2z M433.1,449.9H104.9v-269h328.2
			V449.9z M463.5,153.9h-389V89.7h389V153.9z" />
		<path d="M333.7,254.2h-128c-8.2,0-13.5,5.3-13.5,13.5c0,8.2,5.3,13.5,13.5,13.5h128c8.2,0,13.5-5.3,13.5-13.5
			C347.2,259.5,341.9,254.2,333.7,254.2z" />
	</symbol>


	<symbol viewBox="0 0 18 18" id="icon-journey" preserveAspectRatio="xMidYMid">
		<g transform="translate(-920.875 -685.87)">
			<g transform="translate(915 680.133)">
				<path id="Path_5170" data-name="Path 5170" d="M23.636,14.445l-1.579-.7a.5.5,0,0,0-.408.906l1.285.573V22.6l-3.486-1.549v-3.6a.5.5,0,1,0-1,0v3.536l-6.973,1.743V15.286l.09-.025v.025a5.513,5.513,0,1,0-.792-1L6.7,12.453a.5.5,0,0,0-.7.453v8.467a.5.5,0,0,0,.294.453l4.482,1.992a.762.762,0,0,0,.324.045l7.8-1.952,4.323,1.922a.513.513,0,0,0,.7-.468V14.9a.5.5,0,0,0-.294-.453ZM12.3,8.244a4.448,4.448,0,1,1-1.326,3.168A4.482,4.482,0,0,1,12.3,8.244ZM7,13.673l3.486,1.549V22.6L7,21.049Zm6,.727a.543.543,0,0,0,.129,0L17,13.339a.5.5,0,0,0,.349-.349l1.056-3.875a.5.5,0,0,0-.623-.628L13.909,9.549a.5.5,0,0,0-.349.349L12.5,13.772a.5.5,0,0,0,.5.628Zm1.469-3.984,2.754-.752-.762,2.744L13.7,13.16Z" transform="translate(0 0)" />
			</g>
		</g>
	</symbol>

	<!-- segments -->
	<symbol viewBox="0 0 22 22" id="icon-segment-temporary" preserveAspectRatio="xMidYMid">
		<path d="M11.6,17.9H1.8V16.6h9.7a2.5,2.5,0,0,1,.1-.8h-2V13.1L12.4,11v2.9l.3-.4.5-.5V10.5L16,8.4v1.9h.8V7.8l2.9-2v7.1l.6.6V4.1h.2a.4.4,0,0,0,.4-.4V1.6c0-.2-.2-.3-.4-.3H1.4c-.2,0-.4.1-.4.3V3.7a.4.4,0,0,0,.4.4h.2V15.8H1.4a.4.4,0,0,0-.4.4H1v2.1a.4.4,0,0,0,.4.4H11.9ZM8.8,15.8H6l2.8-2Zm10.9-11L4.5,15.8H2.3v-.7l15.2-11h2.2ZM5.6,12ZM6,10.1v-6H8.8V9.5L6,11.5Zm-.8,0h0v2l-2.9,2V4.1H5.2ZM9.6,8.9V4.1h2.8V6.8Zm3.6-2.6V4.1H16ZM1.8,2H20.2V3.3H1.8Z" />
		<path d="M17.1,12.8v-.7h.4a.4.4,0,0,0,.4-.4.4.4,0,0,0-.4-.4h-2a.4.4,0,0,0-.4.4.4.4,0,0,0,.4.4h.4v.7a4.1,4.1,0,0,0-3.4,4.6,4.1,4.1,0,0,0,4.6,3.3,4.1,4.1,0,0,0,3.4-4.6,4.2,4.2,0,0,0-3.4-3.3Zm-.6,7.1a3.2,3.2,0,0,1-3.2-3.2,3.2,3.2,0,0,1,6.4,0,3.2,3.2,0,0,1-3.2,3.2Z" />
		<path d="M16.9,16.6V14.7a.4.4,0,0,0-.8,0V17l1.1,1.1c.1.2.4.2.6,0a.6.6,0,0,0,0-.6h0Z" />
	</symbol>

	<symbol viewBox="0 0 22 22" id="icon-segment-core" preserveAspectRatio="xMidYMid">
		<path d="M9.2,19.6H4.7V16H9.3l.8-1H8.8V11.5h7.1v3.2l1-.4V11.5h3v3.1l1.1.8V1.7a.5.5,0,0,0-.5-.5H1.5a.5.5,0,0,0-.5.5V20.1a.5.5,0,0,0,.5.5H9.9A2.6,2.6,0,0,1,9.2,19.6Zm2.6-9.2H4.7V6.8h7.1Zm8.1,0H12.8V6.8h7.1Zm-3-8.2h3V5.8h-3ZM8.8,5.8V2.2h7.1V5.8H8.8ZM2,2.2H7.8V5.8H2ZM2,6.8H3.7v3.6H2Zm0,4.6H7.8V15H2Zm1.7,8.2H2V16H3.7Z" />
		<path d="M18,14.9a3.7,3.7,0,0,0-2.4,1.2h-.4a3.9,3.9,0,0,0-2.5-1.2,3,3,0,1,0,0,6h0a3.9,3.9,0,0,0,2.5-1.2h.4a3.7,3.7,0,0,0,2.5,1.2,3,3,0,1,0,0-6Zm-5.9,3a.6.6,0,0,1,.6-.6,2.7,2.7,0,0,1,1,.6,2.7,2.7,0,0,1-1,.6A.6.6,0,0,1,12.1,17.9Zm-.9,0a1.5,1.5,0,0,0,1.5,1.5,2.5,2.5,0,0,0,1.5-.8h.1l.4.5h-.1a3.4,3.4,0,0,1-1.9.9,1.8,1.8,0,0,1-1.5-.7,1.7,1.7,0,0,1-.5-1.5,2,2,0,0,1,2-2,3,3,0,0,1,1.9,1l1.5,1.4.4.4a3,3,0,0,0,1.6.8,1.5,1.5,0,0,0,0-3,2.5,2.5,0,0,0-1.5.8h-.1l-.5-.4h.2a3,3,0,0,1,1.9-1,1.9,1.9,0,0,1,1.5.7,2.5,2.5,0,0,1,.5,1.5,2,2,0,0,1-2,2,3,3,0,0,1-1.9-1l-1-.9-1-.9a2.5,2.5,0,0,0-1.5-.8A1.5,1.5,0,0,0,11.2,17.9Zm5.9,0a2.7,2.7,0,0,1,1-.6l.4.2a.8.8,0,0,1,.2.4.6.6,0,0,1-.6.6,2.7,2.7,0,0,1-1-.6Z" />
	</symbol>

	<!-- export -->
	<symbol viewBox="0 0 14 14" id="icon-export" preserveAspectRatio="xMidYMid">
		<g transform="translate(-16)">
			<g transform="translate(19.062)">
				<g>
					<path d="M134.959,6.381a.436.436,0,0,0-.4-.256h-1.75V.438A.438.438,0,0,0,132.373,0h-1.75a.438.438,0,0,0-.438.438V6.125h-1.75a.437.437,0,0,0-.329.725l3.062,3.5a.437.437,0,0,0,.658,0l3.062-3.5A.436.436,0,0,0,134.959,6.381Z" transform="translate(-127.998)" />
				</g>
			</g>
			<g transform="translate(16 9.625)">
				<g transform="translate(0)">
					<path d="M27.375,352v2.625H17.75V352H16v3.5a.875.875,0,0,0,.875.875H28.25a.874.874,0,0,0,.875-.875V352Z" transform="translate(-16 -352)" />
				</g>
			</g>
		</g>
	</symbol>

	<!-- done -->
	<symbol viewBox="0 0 16 16" id="icon-done" preserveAspectRatio="xMidYMid">
		<g id="Group_3446" data-name="Group 3446" transform="translate(4.08 5.064)">
			<path id="Path_5023" data-name="Path 5023" d="M115.72,135.04l-3.872,3.944-1.984-1.992-1.064,1.064,3.128,3.12,5.024-4.872Z" transform="translate(-108.8 -135.04)" />
		</g>
		<path id="Path_5024" data-name="Path 5024" d="M8,0a8,8,0,1,0,8,8A8,8,0,0,0,8,0ZM8,14.552A6.552,6.552,0,1,1,14.552,8,6.552,6.552,0,0,1,8,14.552Z" />
	</symbol>

	<!-- save -->
	<symbol viewBox="0 0 12 12" id="icon-save" preserveAspectRatio="xMidYMid">
		<path d="M8.2,2.8H9.4V5.2H8.2Z" transform="translate(-1 -1)" />
		<path d="M11.2,1H1.6a.6.6,0,0,0-.6.6V12.4a.6.6,0,0,0,.6.6H12.4a.6.6,0,0,0,.6-.6V2.8ZM7,10.59a1.8,1.8,0,1,1,1.8-1.8A1.8,1.8,0,0,1,7,10.59Zm3.6-4.8H3.4V2.2h7.2Z" transform="translate(-1 -1)" />
	</symbol>

	<symbol viewBox="0 0 16 15" id="icon-warning" preserveAspectRatio="xMidYMid">
		<g id="warning" transform="translate(0 -25.813)">
			<g id="Group_3450" data-name="Group 3450" transform="translate(7.155 36.129)">
				<g id="Group_3449" data-name="Group 3449" transform="translate(0 0)">
					<rect id="Rectangle_3838" data-name="Rectangle 3838" width="1.474" height="1.474" />
				</g>
			</g>
			<g id="Group_3452" data-name="Group 3452" transform="translate(7.155 31.708)">
				<g id="Group_3451" data-name="Group 3451" transform="translate(0 0)">
					<rect id="Rectangle_3839" data-name="Rectangle 3839" width="1.474" height="3.684" />
				</g>
			</g>
			<g id="Group_3454" data-name="Group 3454" transform="translate(0 25.813)">
				<g id="Group_3453" data-name="Group 3453" transform="translate(0 0)">
					<path id="Path_5025" data-name="Path 5025" d="M7.892,25.813,0,39.813H15.783Zm0,2.947,5.372,9.579H2.52Z" transform="translate(0 -25.813)" />
				</g>
			</g>
		</g>
	</symbol>

	<symbol viewBox="0 0 448 448" id="icon-plus" preserveAspectRatio="xMidYMid">
		<path d="M408 184H272a8 8 0 01-8-8V40c0-22.09-17.91-40-40-40s-40 17.91-40 40v136a8 8 0 01-8 8H40c-22.09 0-40 17.91-40 40s17.91 40 40 40h136a8 8 0 018 8v136c0 22.09 17.91 40 40 40s40-17.91 40-40V272a8 8 0 018-8h136c22.09 0 40-17.91 40-40s-17.91-40-40-40zm0 0" />
	</symbol>

	<symbol viewBox="0 0 12 12" id="icon-edit" preserveAspectRatio="xMidYMid">
		<path d="M10.5,4.152V10.5A1.5,1.5,0,0,1,9,12H1.5A1.5,1.5,0,0,1,0,10.5V3A1.5,1.5,0,0,1,1.5,1.5H7.848L6.349,3H1.5v7.5H9V5.652ZM9.349,1.061l-.53.53,1.591,1.591.53-.53ZM10.409,0l-.53.53L11.47,2.121,12,1.591ZM3.516,6.9,5.106,8.486,9.879,3.713,8.288,2.121ZM3,9H4.5L3,7.5Z" />
	</symbol>

	<symbol viewBox="0 0 8 6" id="icon-drag" preserveAspectRatio="xMidYMid">
		<g transform="translate(-1676.167 -669.891)">
			<path transform="translate(459.212 -1062.298)" stroke="currencolor" stroke-linecap="round" stroke-width="1" />
			<path transform="translate(459.212 -1059.689)" stroke="currencolor" stroke-linecap="round" stroke-width="1" />
			<path transform="translate(459.212 -1057.08)" stroke="currencolor" stroke-linecap="round" stroke-width="1" />
		</g>
	</symbol>

	<symbol viewBox="0 0 10 10" id="icon-editbox" preserveAspectRatio="xMidYMid">
		<path id="Path_5180" data-name="Path 5180" d="M7.412,80.32a.234.234,0,0,0-.321,0L2.768,84.646a.227.227,0,0,0,.059.364l.355.178v.6L2.094,86.1,1,85l.311-1.088h.6l.178.355a.227.227,0,0,0,.364.059L6.769,80a.228.228,0,0,0,0-.322l-.836-.837a.227.227,0,0,0-.161-.067h0a.227.227,0,0,0-.161.067L.975,83.522s0,.006,0,.008a.223.223,0,0,0-.053.09L.523,85,.008,86.8a.228.228,0,0,0,.219.29.231.231,0,0,0,.062-.009l1.8-.515,1.381-.395.011-.006a.421.421,0,0,0,.077-.045l.01-.006,4.678-4.64a.228.228,0,0,0,0-.322Z" transform="translate(0 -77.095)" />
		<path id="Path_5181" data-name="Path 5181" d="M293.853,1.625,292.489.26a.929.929,0,0,0-1.286,0l-.833.841a.228.228,0,0,0,0,.321l2.32,2.322a.227.227,0,0,0,.321,0l.841-.834a.91.91,0,0,0,0-1.287Z" transform="translate(-284.119 -0.002)" />
	</symbol>

	<symbol viewBox="0 0 14 8.949" id="icon-code" preserveAspectRatio="xMidYMid">
		<path d="M13.927 4.298l-3-3a.256.256 0 00-.352 0l-.651.651a.249.249 0 000 .352l2.173 2.173-2.175 2.175a.249.249 0 000 .352l.651.651a.249.249 0 00.352 0l3-3a.249.249 0 00.002-.354z" />
		<path d="M4.078 6.649L1.901 4.474l2.175-2.175a.249.249 0 000-.352l-.649-.654a.249.249 0 00-.352 0l-3 3a.249.249 0 000 .352l3 3a.249.249 0 00.352 0l.651-.651a.249.249 0 000-.345z" />
		<path d="M9.08.286a.249.249 0 00-.148-.12L8.404.01a.249.249 0 00-.309.168L5.642 8.474a.249.249 0 00.168.309l.528.156a.248.248 0 00.309-.168l2.449-8.3A.248.248 0 009.08.286z" />
	</symbol>

	<symbol viewBox="0 0 50 50" id="icon-fullscreen" preserveAspectRatio="xMidYMid">
		<polygon points="42.14,42.14 7.86,42.14 7.86,7.86 25,7.86 25,1 1,1 1,49 49,49 49,25 42.14,25" />
		<polygon points="31.86,1 31.86,7.86 37.3,7.86 22.58,22.58 27.43,27.43 42.14,12.71 42.14,18.15 49,18.15 49,1" />
	</symbol>

	<symbol viewBox="0 0 50 50" id="icon-remove" preserveAspectRatio="xMidYMid">
		<path d="M25,1C11.77,1,1,11.77,1,25c0,13.23,10.77,24,24,24s24-10.77,24-24C49,11.77,38.23,1,25,1z M7.86,25
			c0-9.45,7.69-17.14,17.14-17.14c3.5,0,6.76,1.07,9.48,2.88L10.74,34.48C8.92,31.76,7.86,28.5,7.86,25z M25,42.14
			c-3.47,0-6.7-1.05-9.4-2.83L39.31,15.6c1.78,2.7,2.84,5.93,2.84,9.4C42.14,34.45,34.45,42.14,25,42.14z" />
	</symbol>

	<symbol viewBox="0 0 50 50" id="icon-delete" preserveAspectRatio="xMidYMid">
		<path d="M34.6,9l-2-8H17.4l-2,8H3v4H7.1l2,36H40.9l2-36H47V9Zm-14-4h8.9l1,4H19.6ZM21,39H17V19h4Zm12,0H29V19h4Z" />
	</symbol>

	<symbol viewBox="0 -50 1200 1300" id="icon-logo" preserveAspectRatio="xMidYMid">
		<g>
			<path class="cls-1" d="M863.9,500.8l260.3-56c18.4-4,29-23.2,22.7-41-72.1-203-254.1-353.9-474.4-381.3-18.7-2.3-35.3,12.1-35.2,31l1.2,266.1c0,14.2,9.8,26.6,23.6,30,73.6,18.2,134.6,68.4,167.6,134.9,6.3,12.6,20.4,19.3,34.2,16.3Z"/>
			<path class="cls-1" d="M574.1,852.4c-123.1-12.3-220.3-112.6-229-235.9-9-127.3,75.3-236.6,191.4-266.3,13.7-3.5,23.1-16,23.1-30.2l-1.2-266.2c0-18.9-16.8-33.1-35.5-30.6C241.7,60.6,24.1,299.8,20.5,590.5c-4.1,328.5,261.9,593,590.3,587.1,148.5-2.6,283.4-61.1,384.5-155.3,13.8-12.8,13.1-34.8-1.3-46.8l-205.1-169.8c-10.9-9-26.6-9.6-38-1.3-48.7,35.6-110.5,54.4-176.9,47.8Z"/>
			<path class="cls-1" d="M855.5,615.6c-2.3,32.9-10.8,64.2-24.3,92.5-6.1,12.8-2.6,28.1,8.3,37.1l205,169.7c14.5,12,36.1,8.4,46.2-7.5,56.7-89.6,89.5-195.8,89.5-309.6s-.7-32.3-2-48.1c-1.6-18.7-19.2-31.8-37.5-27.9l-260.3,56c-14.1,3-24.2,15.4-24.5,29.8,0,3.5-.2,6.4-.3,8Z"/>
		</g>
		<path class="cls-1" d="M772.8,593.4c-.5-13.9-2.6-27.2-6.1-40-5.8-21-30.3-29.6-48.2-17.2-10.5,7.3-23.6,11-37.6,9.6-26.2-2.7-47.4-24.1-49.8-50.4-.8-9.1.5-17.9,3.6-25.7,7.9-19.9-5.4-41.9-26.8-42.8-9.1-.4-18.3,0-27.7,1-86.7,10.1-152.9,84.6-152.4,171.9.5,102.4,88.7,181.2,189.9,171.1,87.1-8.7,158.2-90,155.1-177.5Z"/>
	</symbol>

	<symbol viewBox="0 0 393 393" id="icon-html" preserveAspectRatio="xMidYMid">
		<path d="M368.62,17.951H23.568C10.57,17.951,0,28.524,0,41.52v309.146c0,12.996,10.57,23.568,23.568,23.568h345.053 c12.994,0,23.564-10.572,23.564-23.568V41.52C392.188,28.525,381.614,17.951,368.62,17.951z M297.56,57.528 c0-4.806,3.896-8.703,8.701-8.703h8.703c4.808,0,8.701,3.896,8.701,8.703v9.863c0,4.806-3.896,8.702-8.701,8.702h-8.703 c-4.805,0-8.701-3.896-8.701-8.702V57.528z M257.093,57.528c0-4.806,3.898-8.703,8.703-8.703h8.701 c4.805,0,8.703,3.896,8.703,8.703v9.863c0,4.806-3.898,8.702-8.703,8.702h-8.701c-4.805,0-8.703-3.896-8.703-8.702V57.528z M363.903,345.951H28.282V102.235h335.621V345.951L363.903,345.951z M364.132,67.391c0,4.806-3.896,8.702-8.701,8.702h-8.703 c-4.809,0-8.702-3.896-8.702-8.702v-9.863c0-4.806,3.896-8.703,8.702-8.703h8.703c4.806,0,8.701,3.896,8.701,8.703V67.391z" />
		<path d="M84.185,233.284l63.084,29.336c1.631,0.755,3.367,1.138,5.162,1.138c2.338,0,4.617-0.664,6.598-1.924 c3.547-2.267,5.666-6.13,5.666-10.334v-0.322c0-4.752-2.785-9.116-7.096-11.118l-39.455-18.332l39.455-18.334 c4.311-2.004,7.096-6.367,7.096-11.117v-0.319c0-4.21-2.119-8.075-5.666-10.334c-1.961-1.253-4.246-1.916-6.605-1.916 c-1.779,0-3.563,0.391-5.16,1.133l-63.08,29.333c-4.307,2.004-7.09,6.369-7.09,11.117v0.877 C77.093,226.909,79.874,231.272,84.185,233.284z" />
		<path d="M165.257,293.036c2.301,3.149,6.002,5.03,9.9,5.03h0.316c5.352,0,10.041-3.426,11.672-8.517L228.7,160.788 c1.192-3.716,0.531-7.818-1.771-10.973c-2.301-3.15-6.002-5.03-9.901-5.03h-0.315c-5.354,0-10.048,3.425-11.679,8.516 l-41.559,128.771C162.292,285.793,162.958,289.889,165.257,293.036z" />
		<path d="M227.49,192.276c0,4.745,2.783,9.109,7.095,11.123l39.455,18.329l-39.455,18.33c-4.31,2.004-7.095,6.368-7.095,11.118 v0.322c0,4.205,2.117,8.068,5.668,10.336c1.974,1.258,4.254,1.924,6.595,1.924c1.793,0,3.528-0.383,5.17-1.142l63.08-29.335 c4.307-2.009,7.09-6.372,7.09-11.115v-0.877c0-4.748-2.783-9.113-7.094-11.117l-63.08-29.333 c-1.591-0.74-3.373-1.131-5.152-1.131c-2.355,0-4.643,0.661-6.604,1.912c-3.551,2.263-5.67,6.127-5.67,10.337v0.318H227.49 L227.49,192.276z" />
	</symbol>

	<symbol viewBox="0 0 48 48" id="icon-close" preserveAspectRatio="xMidYMid">
		<path d="M28.228,23.986L47.092,5.122c1.172-1.171,1.172-3.071,0-4.242c-1.172-1.172-3.07-1.172-4.242,0L23.986,19.744L5.121,0.88 c-1.172-1.172-3.07-1.172-4.242,0c-1.172,1.171-1.172,3.071,0,4.242l18.865,18.864L0.879,42.85c-1.172,1.171-1.172,3.071,0,4.242 C1.465,47.677,2.233,47.97,3,47.97s1.535-0.293,2.121-0.879l18.865-18.864L42.85,47.091c0.586,0.586,1.354,0.879,2.121,0.879 s1.535-0.293,2.121-0.879c1.172-1.171,1.172-3.071,0-4.242L28.228,23.986z" />
	</symbol>

	<symbol viewBox="0 0 512 512" id="icon-date-select" preserveAspectRatio="xMidYMid">
		<circle cx="299" cy="210" r="20" data-original="#000000" class="active-path" data-old_color="#000000" />
		<circle cx="299" cy="297" r="20" data-original="#000000" class="active-path" data-old_color="#000000" />
		<circle cx="386" cy="210" r="20" data-original="#000000" class="active-path" data-old_color="#000000" />
		<path d="M492,250c11.046,0,20-8.954,20-20V120c0-44.112-35.888-80-80-80h-26V20c0-11.046-8.954-20-20-20     c-11.046,0-20,8.954-20,20v20h-91V20c0-11.046-8.954-20-20-20s-20,8.954-20,20v20h-90V20c0-11.046-8.954-20-20-20     s-20,8.954-20,20v20H80C35.888,40,0,75.888,0,120v312c0,44.112,35.888,80,80,80h252c0.681,0,1.354-0.035,2.017-0.102     c0.659,0.065,1.319,0.102,1.978,0.102c5.333,0,10.566-2.134,14.411-6.127l156-162c5.564-5.778,7.138-14.321,3.999-21.701     C507.266,314.792,500.021,310,492,310h-96c-44.112,0-80,35.888-80,80v82H80c-22.056,0-40-17.944-40-40V120     c0-22.056,17.944-40,40-40h25v20c0,11.046,8.954,20,20,20s20-8.954,20-20V80h90v20c0,11.046,8.954,20,20,20     c11.046,0,20-8.954,20-20V80h91v20c0,11.046,8.954,20,20,20c11.046,0,20-8.954,20-20V80h26c22.056,0,40,17.944,40,40v110     C472,241.046,480.954,250,492,250z M356,390c0-22.056,17.944-40,40-40h48.975L356,442.398V390z" data-original="#000000" class="active-path" data-old_color="#000000" />
		<circle cx="125" cy="210" r="20" data-original="#000000" class="active-path" data-old_color="#000000" />
		<circle cx="212" cy="297" r="20" data-original="#000000" class="active-path" data-old_color="#000000" />
		<circle cx="125" cy="384" r="20" data-original="#000000" class="active-path" data-old_color="#000000" />
		<circle cx="125" cy="297" r="20" data-original="#000000" class="active-path" data-old_color="#000000" />
		<circle cx="212" cy="384" r="20" data-original="#000000" class="active-path" data-old_color="#000000" />
		<circle cx="212" cy="210" r="20" data-original="#000000" class="active-path" data-old_color="#000000" />
	</symbol>

	<symbol viewBox="0 0 512 512" id="icon-date-search" preserveAspectRatio="xMidYMid">
		<circle cx="299" cy="297" r="20" />
		<circle cx="299" cy="210" r="20" />
		<circle cx="212" cy="297" r="20" />
		<circle cx="212" cy="210" r="20" />
		<circle cx="212" cy="384" r="20" />
		<circle cx="386" cy="210" r="20" />
		<circle cx="125" cy="210" r="20" />
		<path d="M422,294c-49.626,0-90,40.374-90,90c0,16.807,4.636,32.55,12.689,46.026l-47.832,47.832c-7.81,7.81-7.81,20.473,0,28.284 C300.763,510.047,305.882,512,311,512c5.118,0,10.237-1.953,14.142-5.858l47.152-47.152C386.547,468.468,403.638,474,422,474 c49.626,0,90-40.374,90-90C512,334.374,471.626,294,422,294z M422,434c-27.57,0-50-22.43-50-50s22.43-50,50-50s50,22.43,50,50 S449.57,434,422,434z" />
		<circle cx="125" cy="384" r="20" />
		<path d="M432,40h-26V20c0-11.046-8.954-20-20-20c-11.046,0-20,8.954-20,20v20h-91V20c0-11.046-8.954-20-20-20 c-11.046,0-20,8.954-20,20v20h-90V20c0-11.046-8.954-20-20-20s-20,8.954-20,20v20H80C35.888,40,0,75.888,0,120v312 c0,44.112,35.888,80,80,80h131c11.046,0,20-8.954,20-20c0-11.046-8.954-20-20-20H80c-22.056,0-40-17.944-40-40V120 c0-22.056,17.944-40,40-40h25v20c0,11.046,8.954,20,20,20s20-8.954,20-20V80h90v20c0,11.046,8.954,20,20,20s20-8.954,20-20V80h91 v20c0,11.046,8.954,20,20,20c11.046,0,20-8.954,20-20V80h26c22.056,0,40,17.944,40,40v120c0,11.046,8.954,20,20,20 c11.046,0,20-8.954,20-20V120C512,75.888,476.112,40,432,40z" />
		<circle cx="125" cy="297" r="20" />
	</symbol>

	<symbol viewBox="0 0 512 512" id="icon-date-compare" preserveAspectRatio="xMidYMid">
		<path d="M492,412c-11.046,0-20,8.954-20,20c0,22.056-17.944,40-40,40H80c-22.056,0-40-17.944-40-40c0-11.046-8.954-20-20-20 s-20,8.954-20,20c0,44.112,35.888,80,80,80h352c44.112,0,80-35.888,80-80C512,420.954,503.046,412,492,412z" />
		<path d="M97.074,202.791c-7.848-7.774-20.511-7.713-28.284,0.135l-51.106,51.598C6.279,265.871,0,280.953,0,297 c0,16.081,6.305,31.191,17.766,42.558l52.162,51.653c3.899,3.861,8.985,5.789,14.071,5.789c5.151,0,10.302-1.978,14.212-5.927 c7.772-7.849,7.71-20.512-0.139-28.284L51.833,317H193c11.046,0,20-8.954,20-20c0-11.046-8.954-20-20-20H51.721l45.489-45.926 C104.982,223.227,104.922,210.563,97.074,202.791z" />
		<path d="M443.21,202.926c-7.774-7.847-20.438-7.909-28.284-0.135c-7.848,7.773-7.908,20.436-0.136,28.284L460.279,277H319 c-11.046,0-20,8.954-20,20c0,11.046,8.954,20,20,20h141.167l-46.24,45.789c-7.849,7.772-7.911,20.436-0.139,28.284 c3.911,3.95,9.06,5.927,14.212,5.927c5.085,0,10.173-1.928,14.071-5.789l52.174-51.665C505.695,328.191,512,313.081,512,297 c0-16.047-6.279-31.129-17.684-42.477L443.21,202.926z" />
		<path d="M432,40h-26V20c0-11.046-8.954-20-20-20c-11.046,0-20,8.954-20,20v20h-91V20c0-11.046-8.954-20-20-20s-20,8.954-20,20v20 h-90V20c0-11.046-8.954-20-20-20s-20,8.954-20,20v20H80C35.888,40,0,75.888,0,120v45c0,11.046,8.954,20,20,20s20-8.954,20-20v-45 c0-22.056,17.944-40,40-40h25v20c0,11.046,8.954,20,20,20s20-8.954,20-20V80h90v20c0,11.046,8.954,20,20,20 c11.046,0,20-8.954,20-20V80h91v20c0,11.046,8.954,20,20,20c11.046,0,20-8.954,20-20V80h26c22.056,0,40,17.944,40,40v45 c0,11.046,8.954,20,20,20c11.046,0,20-8.954,20-20v-45C512,75.888,476.112,40,432,40z" />
	</symbol>

	<symbol viewBox="0 0 16 14.21" id="icon-checkmark" preserveAspectRatio="xMidYMid">
		<g transform="translate(0 -5.46)">
			<path id="Path_5104" data-name="Path 5104" d="M15.888,7.41,13.762,5.542a.327.327,0,0,0-.463.03L5.589,14.348,2.847,10.719a.327.327,0,0,0-.216-.127.323.323,0,0,0-.243.063L.13,12.362a.328.328,0,0,0-.064.459L5.143,19.54a.328.328,0,0,0,.249.13H5.4a.328.328,0,0,0,.246-.111L15.918,7.873A.328.328,0,0,0,15.888,7.41Z" transform="translate(0)" />
		</g>
	</symbol>

	<symbol viewBox="0 0 15 15" id="icon-checkmark-boxed" preserveAspectRatio="xMidYMid">
		<path d="M10.815 5.12a.586.586 0 010 .829L6.885 9.88a.586.586 0 01-.829 0L4.185 8.008a.586.586 0 01.829-.829L6.47 8.637 9.987 5.12a.586.586 0 01.828 0zM15 7.5A7.5 7.5 0 117.5 0 7.5 7.5 0 0115 7.5zm-1.172 0A6.328 6.328 0 107.5 13.828 6.325 6.325 0 0013.828 7.5zm0 0" />
	</symbol>

	<symbol viewBox="0 0 15 15" id="icon-checkmark-rounded" preserveAspectRatio="xMidYMid">
		<circle cx="7.5" cy="7.5" r="7.5" fill="currentColor" />
		<path d="M10.815 5.12a.586.586 0 010 .829L6.885 9.88a.586.586 0 01-.829 0L4.185 8.008a.586.586 0 01.829-.829L6.47 8.637 9.987 5.12a.586.586 0 01.828 0z" />
	</symbol>

	<symbol viewBox="0 0 16 18" id="icon-page" preserveAspectRatio="xMidYMid">
		<path d="M15.031,4.357,10.878.2a.7.7,0,0,0-.495-.2H.7A.7.7,0,0,0,0,.7V17.3a.7.7,0,0,0,.7.7H14.531a.7.7,0,0,0,.7-.7V4.852A.7.7,0,0,0,15.031,4.357ZM11.086,2.4l1.748,1.748H11.086ZM1.406,16.594V1.406H9.68V4.852a.7.7,0,0,0,.7.7h3.445V16.594ZM12.469,9a.7.7,0,0,1-.7.7h-8.3a.7.7,0,1,1,0-1.406h8.3A.7.7,0,0,1,12.469,9Zm-9.7-5.531a.7.7,0,0,1,.7-.7H6.234a.7.7,0,0,1,0,1.406H3.469A.7.7,0,0,1,2.766,3.469Zm9.7,9.68a.7.7,0,0,1-.7.7h-8.3a.7.7,0,1,1,0-1.406h8.3A.7.7,0,0,1,12.469,13.148Zm0,0" fill="#1a254f" />
	</symbol>

	<symbol viewBox="0 0 19 19" id="icon-user" preserveAspectRatio="xMidYMid">
		<g transform="translate(0.125 0.125)">
			<path d="M15.364,2.636A9,9,0,0,0,2.636,15.364,9,9,0,0,0,15.364,2.636ZM9,16.945a7.918,7.918,0,0,1-5.513-2.23,5.8,5.8,0,0,1,11.026,0A7.918,7.918,0,0,1,9,16.945ZM6.363,7.031A2.637,2.637,0,1,1,9,9.668,2.64,2.64,0,0,1,6.363,7.031Zm8.942,6.8a6.875,6.875,0,0,0-4.141-3.809,3.691,3.691,0,1,0-4.329,0A6.875,6.875,0,0,0,2.7,13.829a7.945,7.945,0,1,1,12.61,0Z" transform="translate(0 0)" fill="currentColor" stroke="currentColor" stroke-width="0.25" />
		</g>
	</symbol>

	<symbol viewBox="0 0 14 12" id="icon-project" preserveAspectRatio="xMidYMid">
		<path d="M13.625,0H4.911a.554.554,0,0,0-.392.162L2.5,2.178H.554A.554.554,0,0,0,0,2.732v8.714A.554.554,0,0,0,.554,12H13.625a.554.554,0,0,0,.554-.554V.554A.554.554,0,0,0,13.625,0ZM5.14,1.108h2.79L6.86,2.178H4.069Zm7.931,9.785H1.108V3.286H7.089a.554.554,0,0,0,.392-.162L9.5,1.108h3.574Zm0,0" />
	</symbol>

	<symbol viewBox="0 0 24 24" id="icon-browser" preserveAspectRatio="xMidYMid">
		<path d="m6.75 18c-.192 0-.384-.073-.53-.22-.293-.293-.293-.768 0-1.061l2.719-2.719-2.72-2.72c-.293-.293-.293-.768 0-1.061s.768-.293 1.061 0l3.25 3.25c.293.293.293.768 0 1.061l-3.25 3.25c-.146.147-.338.22-.53.22z" />
		<path d="m17.25 18h-4.5c-.414 0-.75-.336-.75-.75s.336-.75.75-.75h4.5c.414 0 .75.336.75.75s-.336.75-.75.75z" />
		<path d="m21.25 23h-18.5c-1.517 0-2.75-1.233-2.75-2.75v-16.5c0-1.517 1.233-2.75 2.75-2.75h18.5c1.517 0 2.75 1.233 2.75 2.75v16.5c0 1.517-1.233 2.75-2.75 2.75zm-18.5-20.5c-.689 0-1.25.561-1.25 1.25v16.5c0 .689.561 1.25 1.25 1.25h18.5c.689 0 1.25-.561 1.25-1.25v-16.5c0-.689-.561-1.25-1.25-1.25z" />
		<path d="m23.25 6h-22.5c-.414 0-.75-.336-.75-.75s.336-.75.75-.75h22.5c.414 0 .75.336.75.75s-.336.75-.75.75z" />
	</symbol>

	<symbol viewBox="0 0 512 512" id="icon-device" preserveAspectRatio="xMidYMid">
		<circle cx="279.273" cy="349.091" r="11.636" />
		<circle cx="81.455" cy="418.909" r="11.636" />
		<path d="M477.091,46.545H81.455c-19.782,0-34.909,15.127-34.909,34.909v116.364c0,6.982,4.655,11.636,11.636,11.636
		s11.636-4.655,11.636-11.636V81.455c0-6.982,4.655-11.636,11.636-11.636h395.636c6.982,0,11.636,4.655,11.636,11.636v279.273
		c0,6.982-4.655,11.636-11.636,11.636H197.818c-6.982,0-11.636,4.655-11.636,11.636s4.655,11.636,11.636,11.636h23.273v34.909
		c0,6.982-4.655,11.636-11.636,11.636h-11.636c-6.982,0-11.636,4.655-11.636,11.636s4.655,11.636,11.636,11.636h162.909
		c6.982,0,11.636-4.655,11.636-11.636s-4.655-11.636-11.636-11.636h-11.636c-6.982,0-11.636-4.655-11.636-11.636v-34.909h139.636
		c19.782,0,34.909-15.127,34.909-34.909V81.455C512,61.673,496.873,46.545,477.091,46.545z M242.036,442.182
		c1.164-3.491,2.327-6.982,2.327-11.636v-34.909h69.818v34.909c0,4.655,1.164,8.145,2.327,11.636H242.036z" />
		<path d="M453.818,302.545h-256c-6.982,0-11.636,4.655-11.636,11.636s4.655,11.636,11.636,11.636h256
		c6.982,0,11.636-4.655,11.636-11.636S460.8,302.545,453.818,302.545z" />
		<path d="M128,232.727H34.909C15.127,232.727,0,247.855,0,267.636v162.909c0,19.782,15.127,34.909,34.909,34.909H128
		c19.782,0,34.909-15.127,34.909-34.909V267.636C162.909,247.855,147.782,232.727,128,232.727z M139.636,430.545
		c0,6.982-4.655,11.636-11.636,11.636H34.909c-6.982,0-11.636-4.655-11.636-11.636V267.636c0-6.982,4.655-11.636,11.636-11.636H128
		c6.982,0,11.636,4.655,11.636,11.636V430.545z" />
	</symbol>

	<symbol viewBox="0 0 32 32" id="icon-other-project" preserveAspectRatio="xMidYMid">
		<path d="M24.63,5H9.27a.94.94,0,0,0-.69.29L5,8.85H1.59a1,1,0,0,0-1,1h0V25.19a1,1,0,0,0,1,1h23a1,1,0,0,0,1-1V6a1,1,0,0,0-1-1Zm-15,2h4.92L12.71,8.85H7.79Zm14,17.26H2.56V10.8H13.11a1,1,0,0,0,.69-.28L17.36,7h6.3Z" />
	</symbol>

	<symbol viewBox="0 0 32 32" id="icon-recent-project" preserveAspectRatio="xMidYMid">
		<path id="Subtraction_1" data-name="Subtraction 1" class="cls-1" d="M17.08,24H2a1,1,0,0,1-1-1V7.66a1,1,0,0,1,1-1H5.41L9,3.13a1,1,0,0,1,.69-.29H25a1,1,0,0,1,1,1V14.91a6.73,6.73,0,0,0-1-.07,7.46,7.46,0,0,0-.95.06V4.8h-6.3L14.19,8.35a.94.94,0,0,1-.69.29H3V22.05H17c0,.27,0,.53,0,.8A7.43,7.43,0,0,0,17.09,24Zm-7-19.2h0L8.18,6.68H13.1L15,4.8Z" />
		<path id="Path_5091" data-name="Path 5091" class="cls-1" d="M21.39,18.22h0l0,0h-.57l0,0,0,0h0l0,0,0,0s0,0,0,0l0,.05a6.32,6.32,0,1,0,8.9,9h.05a6.33,6.33,0,0,0,1.75-5.36.72.72,0,0,0-1.43.21h0a4.87,4.87,0,1,1-8.89-2,34.62,34.62,0,0,0,2.56,4.2,2.16,2.16,0,0,0,3.05-3.05,49.45,49.45,0,0,0-5.14-3.07Zm4.13,4.09a.71.71,0,0,1,0,1,.7.7,0,0,1-1,0h0a22.8,22.8,0,0,1-1.62-2.62,24.34,24.34,0,0,1,2.63,1.61Z" />
		<path id="Path_5093" data-name="Path 5093" class="cls-1" d="M28.91,19.93a.72.72,0,0,0,1.15-.86,6.71,6.71,0,0,0-.6-.7.72.72,0,0,0-1,1A4.78,4.78,0,0,1,28.91,19.93Z" />
	</symbol>

	<symbol viewBox="0 0 32 32" id="icon-test-user" preserveAspectRatio="xMidYMid">
		<path d="M26.17,5.84h0a14.37,14.37,0,1,0,0,20.32A14.37,14.37,0,0,0,26.16,5.84ZM16,8.83A4,4,0,1,1,12,12.88,4.06,4.06,0,0,1,16,8.83Zm-4.1,11A9.06,9.06,0,0,1,24.58,25,12.33,12.33,0,0,1,16,28.45h0A12.33,12.33,0,0,1,7.42,25,9,9,0,0,1,11.9,19.82Zm10-6a6,6,0,1,0-10.73,2.55,6.22,6.22,0,0,0,1.15,1.2A11,11,0,0,0,6,23.4,12.45,12.45,0,0,1,17.64,3.65a12.32,12.32,0,0,1,8.25,4.76,12.48,12.48,0,0,1,.12,15,11,11,0,0,0-6.32-5.83A6,6,0,0,0,21.89,13.83Z" />
	</symbol>

	<symbol viewBox="0 0 32 32" id="icon-test-date" preserveAspectRatio="xMidYMid">
		<path d="M25.63,4.19H24.2V3.09a1.09,1.09,0,0,0-2.18,0V4.18H17V3.09a1.1,1.1,0,0,0-2.19,0V4.18H9.93V3.09a1.1,1.1,0,0,0-2.19,0V4.18H6.38A4.39,4.39,0,0,0,2,8.57H2V25.63A4.38,4.38,0,0,0,6.38,30h8.36a1.09,1.09,0,1,0,0-2.18H6.38a2.2,2.2,0,0,1-2.19-2.19V8.57A2.19,2.19,0,0,1,6.38,6.38H7.74V7.47a1.1,1.1,0,0,0,2.19,0h0V6.38h4.92V7.47a1.1,1.1,0,0,0,2.19,0h0V6.38h5V7.47a1.09,1.09,0,0,0,2.18,0h0V6.38h1.43a2.19,2.19,0,0,1,2.18,2.19V14.8a1.1,1.1,0,0,0,2.19,0V8.57A4.38,4.38,0,0,0,25.63,4.19Z" />
		<path id="Path_5089" data-name="Path 5089" d="M23.38,16.77A6.62,6.62,0,1,0,30,23.39h0A6.62,6.62,0,0,0,23.38,16.77Zm0,11a4.43,4.43,0,1,1,4.43-4.43h0A4.43,4.43,0,0,1,23.38,27.81Z" />
		<path id="Path_5090" data-name="Path 5090" d="M25,22.29h-.49V21.14a1.1,1.1,0,0,0-2.19,0v2.24a1.09,1.09,0,0,0,1.09,1.09H25a1.1,1.1,0,0,0,0-2.19Z" />
		<circle id="Ellipse_379" data-name="Ellipse 379" cx="18.35" cy="13.49" r="1.09" />
		<circle id="Ellipse_380" data-name="Ellipse 380" cx="13.59" cy="18.25" r="1.09" />
		<circle id="Ellipse_381" data-name="Ellipse 381" cx="8.84" cy="13.49" r="1.09" />
		<circle id="Ellipse_382" data-name="Ellipse 382" cx="8.84" cy="18.25" r="1.09" />
		<circle id="Ellipse_383" data-name="Ellipse 383" cx="8.84" cy="23" r="1.09" />
		<circle id="Ellipse_384" data-name="Ellipse 384" cx="13.59" cy="23" r="1.09" />
		<circle id="Ellipse_385" data-name="Ellipse 385" cx="13.59" cy="13.49" r="1.09" />
	</symbol>

	<symbol viewBox="0 0 32 32" id="icon-test-number" preserveAspectRatio="xMidYMid">
		<path d="M15.73,12.53a.94.94,0,0,0-1.33,0l-3.09,3.08L10.1,14.4a.92.92,0,0,0-1.32,0,.94.94,0,0,0,0,1.33l1.87,1.87a.92.92,0,0,0,.66.28A1,1,0,0,0,12,17.6l3.75-3.75a.94.94,0,0,0,0-1.32Z" />
		<path d="M15.73,20a1,1,0,0,0-1.33,0l-3.09,3.09L10.1,21.9a.94.94,0,1,0-1.32,1.33l1.87,1.87a.94.94,0,0,0,1.33,0l3.75-3.75a.93.93,0,0,0,0-1.32Z" />
		<path id="Path_5085" data-name="Path 5085" d="M22.56,14.13H18.81a.94.94,0,1,0,0,1.87h3.75a.94.94,0,1,0,0-1.87Z" />
		<path id="Path_5086" data-name="Path 5086" d="M22.56,21.63H18.81a.94.94,0,1,0,0,1.87h3.75a.94.94,0,1,0,0-1.87Z" />
		<path id="Path_5087" data-name="Path 5087" d="M25.37,4.75H21.62V3.81a.93.93,0,0,0-.93-.93h-2a2.81,2.81,0,0,0-5.3,0h-2a.93.93,0,0,0-.93.93v.94H6.63A1.88,1.88,0,0,0,4.75,6.63v22.5A1.88,1.88,0,0,0,6.63,31H25.37a1.88,1.88,0,0,0,1.88-1.87V6.63A1.88,1.88,0,0,0,25.37,4.75Zm-13.12,0h1.88a.94.94,0,0,0,.93-.94.94.94,0,0,1,1.88,0,.94.94,0,0,0,.93.94h1.88V6.63h-7.5ZM25.37,29.13H6.63V6.63h3.75v.93a.93.93,0,0,0,.93.94h9.38a.93.93,0,0,0,.93-.94V6.63h3.75Z" />
	</symbol>

	<symbol viewBox="0 0 50 50" id="icon-cup" preserveAspectRatio="xMidYMid">
		<path d="M47.59,4.47H41.43c0-.68,0-1.37,0-2.06A1.4,1.4,0,0,0,40.06,1H9.94a1.4,1.4,0,0,0-1.4,1.4h0c0,.69,0,1.37,0,2.05H2.41A1.4,1.4,0,0,0,1,5.87H1A30.39,30.39,0,0,0,5.64,22.61a14.69,14.69,0,0,0,11.14,7.24,14.92,14.92,0,0,0,3,2.55v6.25H17.47a5.17,5.17,0,0,0-5.16,5.17v2.36H12.2a1.41,1.41,0,1,0,0,2.82H37.8a1.41,1.41,0,1,0,0-2.82h-.1V43.82a5.17,5.17,0,0,0-5.17-5.17H30.17V32.4a14.92,14.92,0,0,0,3-2.55,14.69,14.69,0,0,0,11.14-7.24A30.39,30.39,0,0,0,49,5.87,1.4,1.4,0,0,0,47.59,4.47ZM8,21.05A27.13,27.13,0,0,1,3.85,7.28H8.73a47,47,0,0,0,4.36,17c.38.75.77,1.46,1.18,2.13A13.64,13.64,0,0,1,8,21.05Zm34,0a13.59,13.59,0,0,1-6.29,5.41c.41-.67.8-1.38,1.18-2.13a47,47,0,0,0,4.37-17h4.88A27.14,27.14,0,0,1,42,21.05Z" />
	</symbol>

	<symbol viewBox="0 0 50 50" id="icon-search" preserveAspectRatio="xMidYMid">
		<path d="M33.87,37.87,44.19,48.15a2.52,2.52,0,0,0,2,.85A2.87,2.87,0,0,0,49,46.17a2.69,2.69,0,0,0-.81-2L37.87,33.87l-.6-.6.48-.7A19.65,19.65,0,0,0,41.3,21.15a19.74,19.74,0,0,0-1.59-7.82A19.67,19.67,0,0,0,29,2.59a20,20,0,0,0-15.65,0A19.64,19.64,0,0,0,2.59,13.33,20,20,0,0,0,2.59,29,19.67,19.67,0,0,0,13.33,39.71a19.74,19.74,0,0,0,7.82,1.59,19.65,19.65,0,0,0,11.42-3.55l.7-.48Zm-2.48-6.48a14,14,0,0,1-10.24,4.26,14,14,0,0,1-10.24-4.26A14,14,0,0,1,6.66,21.15a14,14,0,0,1,4.25-10.24A14,14,0,0,1,21.15,6.66a14,14,0,0,1,10.24,4.25,14,14,0,0,1,4.26,10.24A14,14,0,0,1,31.39,31.39Z" />
	</symbol>


	<!-- TEST STATUS -->
	<symbol viewBox="0 0 50 50" id="icon-status-draft" preserveAspectRatio="xMidYMid">
		<path d="M32,31.53a1.88,1.88,0,0,0-2.67-2.65L18,40.22,9.8,32,26,15.73l9.52,9.53a1.88,1.88,0,0,0,2.65,0h0l.08-.08,8.69-8.55h0a6,6,0,0,0,1.77-6.41A13.55,13.55,0,0,0,45,4.93a13.64,13.64,0,0,0-5.28-3.68A6.07,6.07,0,0,0,33.33,3L5.77,30.69a1.84,1.84,0,0,0-.48.83L1.07,46.66A1.87,1.87,0,0,0,2.36,49a1.81,1.81,0,0,0,1,0l15-4.28a1.82,1.82,0,0,0,1-.53Zm6.67-26.7a11.18,11.18,0,0,1,3.75,2.75,11.38,11.38,0,0,1,2.76,3.76A2.34,2.34,0,0,1,44.28,14l-2.46,2.42L33.57,8.11,36,5.68a2.32,2.32,0,0,1,2.62-.85Zm-7.7,5.94L39.15,19l-2.32,2.28-8.21-8.21ZM9.17,43.43l-2.58-2.6,1.47-5.3,6.39,6.41ZM49,47.08A1.87,1.87,0,0,1,47.13,49H24.34a1.87,1.87,0,1,1,0-3.74H47.13A1.87,1.87,0,0,1,49,47.08Z" />
	</symbol>

	<symbol viewBox="0 0 50 50" id="icon-status-schedule" preserveAspectRatio="xMidYMid">
		<path d="M27.16,35.13a3.75,3.75,0,0,0,3.75,3.75h4.41a3.76,3.76,0,0,0,3.75-3.75v-4.4A3.75,3.75,0,0,0,35.32,27H30.91a3.75,3.75,0,0,0-3.75,3.75Zm3.75-4.41h4.41v4.41H30.91Z" />
		<circle cx="37.19" cy="20.69" r="1.87" />
		<circle cx="29.03" cy="20.69" r="1.87" />
		<path d="M47.13,34A1.87,1.87,0,0,0,49,32.13h0V12.25a7.52,7.52,0,0,0-7.5-7.5H39.06V2.88a1.88,1.88,0,1,0-3.75,0V4.75H26.78V2.88a1.88,1.88,0,1,0-3.75,0V4.75H14.59V2.88a1.88,1.88,0,1,0-3.75,0V4.75H8.5A7.51,7.51,0,0,0,1,12.25V41.5A7.51,7.51,0,0,0,8.5,49h33A7.51,7.51,0,0,0,49,41.5a1.88,1.88,0,0,0-3.75,0,3.75,3.75,0,0,1-3.75,3.75H8.5A3.75,3.75,0,0,1,4.75,41.5V12.25A3.75,3.75,0,0,1,8.5,8.5h2.34v1.88a1.88,1.88,0,0,0,3.75,0h0V8.5H23v1.88a1.88,1.88,0,0,0,3.75,0V8.5h8.54v1.88a1.88,1.88,0,0,0,3.75,0V8.5h2.44a3.75,3.75,0,0,1,3.75,3.75V32.13A1.87,1.87,0,0,0,47.13,34Z" />
		<circle cx="12.72" cy="37" r="1.87" />
		<circle cx="12.72" cy="20.69" r="1.87" />
		<circle cx="12.72" cy="28.84" r="1.87" />
		<circle cx="20.87" cy="28.84" r="1.87" />
		<circle cx="20.87" cy="20.69" r="1.87" />
		<circle cx="20.87" cy="37" r="1.87" />
	</symbol>

	<symbol viewBox="0 0 50 50" id="icon-status-document" preserveAspectRatio="xMidYMid">
		<path d="M44.77,12.62,33.7,1.53A1.9,1.9,0,0,0,32.38,1H6.56A1.87,1.87,0,0,0,4.69,2.87h0V47.13A1.87,1.87,0,0,0,6.56,49H43.44a1.87,1.87,0,0,0,1.87-1.87h0V13.94A1.87,1.87,0,0,0,44.77,12.62ZM34.25,7.4l4.67,4.66H34.25ZM8.44,45.25V4.75H30.51v9.19a1.87,1.87,0,0,0,1.86,1.87h9.19V45.25ZM37.94,25a1.87,1.87,0,0,1-1.86,1.87H13.94a1.88,1.88,0,0,1,0-3.75H36.08A1.86,1.86,0,0,1,37.94,25ZM12.08,10.25a1.87,1.87,0,0,1,1.86-1.87h7.38a1.88,1.88,0,0,1,0,3.75H13.94a1.85,1.85,0,0,1-1.87-1.86v0ZM37.94,36.06a1.87,1.87,0,0,1-1.86,1.87H13.94a1.88,1.88,0,0,1,0-3.75H36.08a1.87,1.87,0,0,1,1.86,1.87Z" />
	</symbol>

	<symbol viewBox="0 0 50 50" id="icon-status-stopped" preserveAspectRatio="xMidYMid">
		<path d="M25,1A24,24,0,1,0,49,25,24,24,0,0,0,25,1ZM9.33,36.82A19.45,19.45,0,0,1,5.35,25,19.67,19.67,0,0,1,25,5.35a19.4,19.4,0,0,1,11.81,4l.24.17L9.51,37.05ZM25,44.65a19.48,19.48,0,0,1-12.25-4.3l-.22-.18L40.17,12.53l.17.22A19.41,19.41,0,0,1,44.65,25,19.67,19.67,0,0,1,25,44.65Z" />
	</symbol>

	<symbol viewBox="0 0 50 50" id="icon-status-running" preserveAspectRatio="xMidYMid">
		<path id="Path_5194" data-name="Path 5194" d="M29.85,44.72c-.4.1-.8.19-1.2.26a1.93,1.93,0,1,0,.7,3.8c.48-.09,1-.19,1.44-.31a1.93,1.93,0,0,0-.93-3.75Z" />
		<path id="Path_5195" data-name="Path 5195" d="M44.12,18.86a1.93,1.93,0,1,0,3.66-1.22h0c-.15-.46-.32-.92-.5-1.37a1.93,1.93,0,0,0-3.58,1.44h0C43.85,18.08,44,18.47,44.12,18.86Z" />
		<path id="Path_5196" data-name="Path 5196" d="M36.11,42c-.34.22-.69.44-1,.64A1.93,1.93,0,0,0,37,46c.42-.24.84-.5,1.25-.77A1.93,1.93,0,0,0,36.1,42Z" />
		<path id="Path_5197" data-name="Path 5197" d="M49,24.25a1.93,1.93,0,1,0-3.85.15h0c0,.41,0,.82,0,1.23a1.93,1.93,0,1,0,3.86.08h0C49,25.22,49,24.73,49,24.25Z" />
		<path id="Path_5198" data-name="Path 5198" d="M43.8,36.89a1.93,1.93,0,0,0-2.69.37v0c-.24.32-.5.65-.77,1A1.92,1.92,0,0,0,40.54,41h0l.14.11a1.93,1.93,0,0,0,2.58-.33c.32-.37.63-.76.92-1.15a1.92,1.92,0,0,0-.37-2.69Z" />
		<path id="Path_5199" data-name="Path 5199" d="M46.64,29.92a1.91,1.91,0,0,0-2.41,1.24v0c-.12.39-.26.78-.4,1.16a1.93,1.93,0,0,0,3.6,1.38c.17-.45.33-.92.48-1.38a1.93,1.93,0,0,0-1.24-2.42Z" />
		<path id="Path_5200" data-name="Path 5200" d="M21.43,45a20.1,20.1,0,0,1-4.95-1.57l-.05,0c-.37-.18-.74-.36-1.1-.56h0a19.21,19.21,0,0,1-1.92-1.2,20.14,20.14,0,0,1,.07-33l.07,0a20.18,20.18,0,0,1,22.61-.19l-1.51,2.18c-.42.61-.16,1.05.57,1L41.77,11a1.08,1.08,0,0,0,1-1.13.87.87,0,0,0,0-.28L41,3.24c-.2-.72-.7-.79-1.12-.19L38.36,5.24A23.85,23.85,0,0,0,20.9,1.53a18.58,18.58,0,0,0-1.83.39h0L19,2A23.78,23.78,0,0,0,5.8,10.79a.39.39,0,0,0-.08.1l-.33.45-.51.75,0,.09a23.81,23.81,0,0,0-3.8,14v.05c0,.48.06,1,.11,1.46a.28.28,0,0,0,0,.09c.06.48.12,1,.21,1.46A23.85,23.85,0,0,0,8.08,42.19l0,0h0a24.4,24.4,0,0,0,3.08,2.57,23.85,23.85,0,0,0,9.57,4,1.93,1.93,0,1,0,.68-3.8Z" />
		<path id="Path_5201" data-name="Path 5201" d="M23.82,9.59a1.56,1.56,0,0,0-1.57,1.56h0V26.71l14.23,7.35a1.56,1.56,0,1,0,1.44-2.77L25.38,24.81V11.15a1.56,1.56,0,0,0-1.56-1.56Z" />
	</symbol>

	<symbol viewBox="0 0 50 50" id="icon-status-done" preserveAspectRatio="xMidYMid">
		<path d="M24.56,19.44a1.51,1.51,0,0,0-2.12,0L17.5,24.38l-1.94-1.94a1.49,1.49,0,0,0-2.12,0,1.51,1.51,0,0,0,0,2.12l3,3a1.5,1.5,0,0,0,2.12,0l6-6a1.5,1.5,0,0,0,0-2.12Z" />
		<path d="M24.56,31.44a1.49,1.49,0,0,0-2.12,0L17.5,36.38l-1.94-1.94a1.5,1.5,0,1,0-2.12,2.13l3,3a1.51,1.51,0,0,0,2.12,0l6-6a1.51,1.51,0,0,0,0-2.13Z" />
		<path d="M35.5,22h-6a1.5,1.5,0,0,0,0,3h6a1.5,1.5,0,0,0,0-3Z" />
		<path d="M35.5,34h-6a1.5,1.5,0,0,0,0,3h6a1.5,1.5,0,0,0,0-3Z" />
		<path d="M40,7H34V5.5A1.5,1.5,0,0,0,32.5,4H29.25a4.5,4.5,0,0,0-8.49,0H17.5A1.5,1.5,0,0,0,16,5.5V7H10a3,3,0,0,0-3,3V46a3,3,0,0,0,3,3H40a3,3,0,0,0,3-3V10A3,3,0,0,0,40,7ZM19,7h3a1.5,1.5,0,0,0,1.5-1.5,1.5,1.5,0,0,1,3,0A1.5,1.5,0,0,0,28,7h3v3H19ZM40,46H10V10h6v1.5A1.5,1.5,0,0,0,17.5,13h15A1.5,1.5,0,0,0,34,11.5V10h6Z" />
	</symbol>


	<!-- UMS FEATURE ICONS -->
	<symbol viewBox="0 0 300 300" id="icon-ab-testing" preserveAspectRatio="xMidYMid">
		<path d="M244.3 193l-37.1-23.8c-8.9-5.7-14.2-15.4-14.2-25.9v-36.2h10.8c6 0 10.9-4.9 10.9-10.9s-4.9-10.9-10.9-10.9H96.2c-6 0-10.9 4.9-10.9 10.9s4.9 10.9 10.9 10.9H107v36.2c0 10.5-5.3 20.2-14.2 25.9-47 30.1-35.5 22.7-37.3 23.9-15 9.8-24 26.2-24 44.2 0 29 23.6 52.7 52.7 52.7h131.7c29 0 52.7-23.6 52.7-52.7-.1-18.7-9.8-35-24.3-44.3zm-115.4-49.7v-36.2h42.3v36.2c0 33.8 28.4 46.5 29.9 48H99c1.4-1.5 29.9-14.2 29.9-48zm86.9 124.8H84.2c-17 0-30.8-13.8-30.8-30.8 0-9.5 4.4-18.4 11.8-24.2h169.7c7.4 5.8 11.8 14.6 11.8 24.2-.1 17-13.9 30.8-30.9 30.8zM117.6 64c0-29.8 24.2-54 54-54 6 0 10.9 4.9 10.9 10.9s-4.9 10.9-10.9 10.9c-17.7 0-32.1 14.4-32.1 32.1 0 6-4.9 10.9-10.9 10.9-6.2.1-11-4.8-11-10.8zm46.2-7.8c21-21 55.3-21 76.3 0 4.3 4.3 4.3 11.2 0 15.5-4.3 4.3-11.2 4.3-15.5 0-12.5-12.5-32.9-12.5-45.4 0-4.3 4.3-11.2 4.3-15.5 0-4.2-4.3-4.2-11.2.1-15.5z">
		</path>
	</symbol>

	<symbol viewBox="0 0 300 300" id="icon-analytics" preserveAspectRatio="xMidYMid">
		<path d="M254.8 45.2C232 22.5 201.8 10 169.7 10c-6 0-10.9 4.9-10.9 10.9v109.4c0 6 4.9 10.9 10.9 10.9h109.4c6 0 10.9-4.9 10.9-10.9 0-32.1-12.5-62.3-35.2-85.1zm-74.2 74.2V32.5c45.6 5.1 81.8 41.3 86.9 86.9h-86.9z">
		</path>
		<path d="M239.7 158.8h-98.4V60.3c0-6-4.9-10.9-10.9-10.9C63.8 49.4 10 103.2 10 169.7S63.8 290 130.3 290s120.3-53.8 120.3-120.3c0-6.1-4.9-10.9-10.9-10.9zM130.3 268.1c-54.3 0-98.4-44.2-98.4-98.4 0-50.6 38.4-92.4 87.5-97.8v97.8c0 6 4.9 10.9 10.9 10.9h97.8c-5.4 49.2-47.2 87.5-97.8 87.5z">
		</path>
	</symbol>

	<symbol viewBox="0 0 300 300" id="icon-marketing-automation" preserveAspectRatio="xMidYMid">
		<path d="M258.6 139.1h-34.1c-17.3 0-31.4 14.1-31.4 31.4v88.2c0 17.3 14.1 31.4 31.4 31.4h34.1c17.3 0 31.4-14.1 31.4-31.4v-88.2c0-17.4-14.1-31.4-31.4-31.4zm9.5 119.5c0 5.2-4.3 9.5-9.5 9.5h-34.1c-5.2 0-9.5-4.3-9.5-9.5v-88.2c0-5.2 4.3-9.5 9.5-9.5h34.1c5.2 0 9.5 4.3 9.5 9.5v88.2zm-161.3-129V41.4c0-17.3-14.1-31.4-31.4-31.4h-34C24.1 10 10 24.1 10 41.4v88.2c0 17.3 14.1 31.4 31.4 31.4h34.1c17.3-.1 31.3-14.1 31.3-31.4zm-74.9 0V41.4c0-5.2 4.3-9.5 9.5-9.5h34.1c5.2 0 9.5 4.3 9.5 9.5v88.2c0 5.2-4.3 9.5-9.5 9.5H41.4c-5.3 0-9.5-4.3-9.5-9.5zm163.9-97.7c-19.2 0-34.9 15.6-34.9 34.9v166.5c0 31.3-25.4 56.7-56.7 56.7-31.3 0-56.7-25.4-56.7-56.7V193c0-6 4.9-10.9 10.9-10.9S69.3 187 69.3 193v40.3c0 19.2 15.6 34.9 34.9 34.9s34.9-15.6 34.9-34.9V66.7c0-31.3 25.4-56.7 56.7-56.7 31.3 0 56.7 25.4 56.7 56.7V107c0 6-4.9 10.9-10.9 10.9s-10.9-4.9-10.9-10.9V66.7c-.1-19.2-15.7-34.8-34.9-34.8z">
		</path>
	</symbol>

	<symbol viewBox="0 0 300 300" id="icon-campaigns" preserveAspectRatio="xMidYMid">
		<path d="M279.4 166.9c-12.1-34.6-33.9-57.5-55.9-68.1-17.6-43.3-43.2-71.7-65.1-85.3-4.4-4.5-12.3-4.5-16.6-.1C119.6 27.1 94 55.7 76.5 98.8c-22 10.6-43.8 33.5-55.9 68.1C13.6 187 10 210.2 10 236c0 6 4.9 10.9 10.9 10.9h38.5l39.8 39.8c2 2 4.8 3.2 7.7 3.2h86.2c2.9 0 5.7-1.2 7.7-3.2l39.8-39.8h38.5c6 0 10.9-4.9 10.9-10.9 0-25.8-3.6-49-10.6-69.1zM115.3 71.4C127.9 52.2 141.5 40 150 34.1c10.9 7.5 36.4 29.3 54.7 76.5.1.2.1.4.2.5C215.7 139.4 224 176.5 225 225H74.9c.8-33.4 5-64 12.6-91 6.8-23.7 16.1-44.8 27.8-62.6zm-50.5 63c-7.1 27.3-11 57.7-11.7 90.7h-21c1.4-32.6 10-67 32.7-90.7zM188.6 268h-77.2l-21.1-21.1h119.4L188.6 268zm58.3-43c-.7-33-4.6-63.4-11.7-90.8 14.5 15.1 30.6 42.6 32.8 90.8h-21.1zm-97-21.1c23.8 0 43.2-19.4 43.2-43.2s-19.4-43.2-43.2-43.2-43.2 19.4-43.2 43.2 19.4 43.2 43.2 43.2zm0-64.4c11.7 0 21.3 9.6 21.3 21.3s-9.6 21.3-21.3 21.3-21.3-9.6-21.3-21.3 9.5-21.3 21.3-21.3z">
		</path>
	</symbol>

	<symbol viewBox="0 0 300 300" id="icon-email-sms" preserveAspectRatio="xMidYMid">
		<path d="M289.3 128c-.1-7.3-7.3-12.5-14.4-10.2l-6.6 2.2V20.9c0-6-4.9-10.9-10.9-10.9H41.8c-6 0-10.9 4.9-10.9 10.9V120l-6.6-2.2c-7.1-2.4-14.4 2.9-14.4 10.4v150.2c0 6 4.8 10.9 10.8 10.9 63.4.5 258.4.7 258.3.7 6 0 10.9-4.9 10.9-10.9.1-21.7-.2-127.9-.6-151.1zM52.7 31.8h193.8v95.5l-96.9 32.3-96.9-32.3V31.8zm215.6 236.4c-32.4.9-150.7.2-236.5-.6V143.3c4.9 1.6 105.2 35.1 114.4 38.1 2.2.7 4.7.7 6.9 0l114.6-38.2c.7 44.6 1.2 103.4.6 125zM85.1 63.8c0-6 4.9-10.9 10.9-10.9h107.3c6 0 10.9 4.9 10.9 10.9s-4.9 10.9-10.9 10.9H96c-6 0-10.9-4.9-10.9-10.9zm118.2 53.8H96c-6 0-10.9-4.9-10.9-10.9S90 95.8 96 95.8h107.3c6 0 10.9 4.9 10.9 10.9 0 6.1-4.9 10.9-10.9 10.9z">
		</path>
	</symbol>

	<symbol viewBox="0 0 300 300" id="icon-personalization" preserveAspectRatio="xMidYMid">
		<path d="M273.8 84.7l13-13c6.9-6.9 2-18.7-7.7-18.7H247V21c0-9.7-11.8-14.6-18.7-7.7l-13 13C195.3 15.6 172.9 10 150 10 72.6 10 10 72.6 10 150s62.6 140 140 140 140-62.6 140-140c0-22.9-5.6-45.3-16.2-65.3zM236 74.9h16.6L231.5 96H204V68.5l21.1-21.1V64c0 6 4.9 10.9 10.9 10.9zm-86 193.2c-65.3 0-118.1-52.8-118.1-118.1S84.7 31.9 150 31.9c17 0 33.7 3.6 49 10.6l-13.7 13.7c-2.1 2.1-3.2 4.8-3.2 7.7v38.5l-39.8 39.8c-4.3 4.3-4.3 11.2 0 15.5s11.2 4.3 15.5 0l39.8-39.8H236c2.9 0 5.7-1.2 7.7-3.2l13.7-13.7c7 15.3 10.6 32 10.6 49 .1 65.3-52.7 118.1-118 118.1zM236.2 150c0 47.6-38.7 86.2-86.2 86.2-47.6 0-86.2-38.7-86.2-86.2s38.7-86.2 86.2-86.2c6 0 10.9 4.9 10.9 10.9S156 85.6 150 85.6c-35.5 0-64.4 28.9-64.4 64.4s28.9 64.4 64.4 64.4 64.4-28.9 64.4-64.4c0-6 4.9-10.9 10.9-10.9s10.9 4.9 10.9 10.9z">
		</path>
	</symbol>

	<symbol viewBox="0 0 300 300" id="icon-profiles" preserveAspectRatio="xMidYMid">
		<path d="M150 10c77.4 0 140 62.6 140 140 0 16-2.7 31.7-8 46.7-2.8 8-13.3 9.9-18.7 3.3l-35.7-43c-3.9-4.6-3.2-11.5 1.4-15.4s11.5-3.2 15.4 1.4l22 26.6c1.1-6.4 1.6-13 1.6-19.6 0-65.3-52.8-118.1-118.1-118.1-65.2 0-118 52.8-118 118.1 0 6.6.5 13.2 1.6 19.6l22-26.6c3.9-4.7 10.8-5.3 15.4-1.4s5.3 10.8 1.4 15.4l-35.7 43c-5.4 6.5-15.9 4.7-18.7-3.3-5.3-15-8-30.7-8-46.7C10 72.6 72.6 10 150 10zM45.8 228.6c17.7-19.7 40.5-33.8 65.5-41.1-33-34-9-91.5 38.7-91.5s71.7 57.5 38.7 91.5c25 7.2 47.8 21.3 65.5 41.1 3.8 4.1 3.9 10.5.1 14.7-55.5 62-152.8 62.4-208.7 0-3.7-4.1-3.7-10.5.2-14.7zM182.1 150c0-17.7-14.4-32.1-32.1-32.1s-32.1 14.4-32.1 32.1c0 17.6 14.3 32.1 32.1 32.1 17.7 0 32.1-14.4 32.1-32.1zm48.8 86.1c-45.5-42.8-116.3-42.8-161.8 0 45.5 42.7 116.3 42.7 161.8 0z">
		</path>
	</symbol>

	<symbol viewBox="0 0 300 300" id="icon-reporting" preserveAspectRatio="xMidYMid">
		<path id="Path_5636" d="M286.9 27.5H73.6c-5.6 0-10.1 4.5-10.1 10.1v39.9H13.1C7.5 77.5 3 82 3 87.6v144.6c0 22.3 18.1 40.3 40.3 40.3H249c26.5 0 48-21.5 48-48v-187c0-5.5-4.5-10-10.1-10zM63.5 232.2c.1 11-8.7 20-19.7 20.2h-.5c-11 .1-20-8.7-20.2-19.7V97.6h40.3v134.6zm213.3-7.7c0 15.4-12.5 27.8-27.9 27.9H78.1c3.6-6.1 5.4-13.1 5.4-20.2V47.6h193.3v176.9z" class="st0"/>
		<path id="Union_9" d="M105.9 150c0-40.6 32.9-73.5 73.5-73.5s73.5 32.9 73.5 73.5-32.9 73.5-73.5 73.5-73.5-32.9-73.5-73.5zm18.4 0c0 30.5 24.8 55.1 55.2 55.1 29 0 53-22.6 54.9-51.5h-51.2c-4.1 0-7.3-3.3-7.3-7.3V94.9c-29 1.9-51.6 26-51.6 55.1z" class="st0"/>
	</symbol>

	<symbol viewBox="0 0 300 300" id="icon-start" preserveAspectRatio="xMidYMid">
		<path d="M286.8 142.3L157.7 13.2c-4.3-4.3-11.2-4.3-15.5 0-31.1 31.2-116.1 116.1-129 129.1-4.3 4.3-4.3 11.2 0 15.5 4.3 4.3 11.2 4.3 15.5 0l12-12v133.3c0 6 4.9 10.9 10.9 10.9h196.9c6 0 10.9-4.9 10.9-10.9V145.8l12 12c4.3 4.3 11.2 4.3 15.5 0 4.2-4.3 4.2-11.3-.1-15.5zM177.3 268.1h-54.7v-96.2h54.7v96.2zm60.2 0h-38.3V160.9c0-6-4.9-10.9-10.9-10.9h-76.6c-6 0-10.9 4.9-10.9 10.9v107.2H62.5V123.9L150 36.4l87.5 87.5v144.2z">
		</path>
	</symbol>

	<symbol viewBox="0 0 16 16" id="icon-settings" preserveAspectRatio="xMidYMid">
		<path d="M14.232,5.926l-1.053-.179a5.945,5.945,0,0,0-.423-1.022l.62-.868a.924.924,0,0,0-.1-1.194l-.934-.934a.92.92,0,0,0-.655-.273.91.91,0,0,0-.536.172l-.871.62a5.883,5.883,0,0,0-1.059-.436L9.046.775A.926.926,0,0,0,8.131,0H6.812A.926.926,0,0,0,5.9.775L5.715,1.84A5.8,5.8,0,0,0,4.7,2.27l-.862-.62a.926.926,0,0,0-1.194.1L1.7,2.683a.928.928,0,0,0-.1,1.194l.627.881a5.807,5.807,0,0,0-.417,1.025l-1.04.175A.926.926,0,0,0,0,6.873V8.192a.926.926,0,0,0,.774.915l1.065.182a5.8,5.8,0,0,0,.429,1.018l-.617.859a.924.924,0,0,0,.1,1.194l.934.934a.92.92,0,0,0,.655.273.91.91,0,0,0,.536-.172l.881-.627a5.928,5.928,0,0,0,.99.407l.175,1.053A.926.926,0,0,0,6.837,15H8.16a.926.926,0,0,0,.915-.774l.179-1.053a5.945,5.945,0,0,0,1.022-.423l.868.62a.92.92,0,0,0,.539.172h0a.92.92,0,0,0,.655-.273l.934-.934a.928.928,0,0,0,.1-1.194l-.62-.871a5.9,5.9,0,0,0,.423-1.022l1.053-.175A.926.926,0,0,0,15,8.161V6.841A.915.915,0,0,0,14.232,5.926ZM14.16,8.161a.081.081,0,0,1-.069.081l-1.316.219a.421.421,0,0,0-.338.31,5.016,5.016,0,0,1-.545,1.313.424.424,0,0,0,.019.461l.774,1.09a.085.085,0,0,1-.009.107l-.934.934a.08.08,0,0,1-.06.025.077.077,0,0,1-.047-.016l-1.087-.774a.423.423,0,0,0-.461-.019,5.016,5.016,0,0,1-1.313.545.416.416,0,0,0-.31.338l-.222,1.316a.081.081,0,0,1-.081.069H6.84a.081.081,0,0,1-.081-.069L6.54,12.776a.421.421,0,0,0-.31-.338,5.209,5.209,0,0,1-1.285-.526.434.434,0,0,0-.213-.056.413.413,0,0,0-.244.078l-1.1.78a.093.093,0,0,1-.047.016.084.084,0,0,1-.06-.025L2.35,11.77a.085.085,0,0,1-.009-.107l.771-1.081a.429.429,0,0,0,.019-.464,4.969,4.969,0,0,1-.551-1.31A.429.429,0,0,0,2.24,8.5L.915,8.273a.081.081,0,0,1-.069-.081V6.873a.081.081,0,0,1,.069-.081l1.307-.219a.424.424,0,0,0,.342-.313A5.011,5.011,0,0,1,3.1,4.942a.418.418,0,0,0-.022-.457l-.78-1.1a.085.085,0,0,1,.009-.107l.934-.934a.08.08,0,0,1,.06-.025.077.077,0,0,1,.047.016l1.081.771a.429.429,0,0,0,.464.019A4.969,4.969,0,0,1,6.2,2.577a.429.429,0,0,0,.31-.338L6.737.913A.081.081,0,0,1,6.818.844H8.138a.081.081,0,0,1,.081.069l.219,1.307a.424.424,0,0,0,.313.342,5.086,5.086,0,0,1,1.344.551.424.424,0,0,0,.461-.019l1.081-.777a.093.093,0,0,1,.047-.016.084.084,0,0,1,.06.025l.934.934a.085.085,0,0,1,.009.107l-.774,1.087a.423.423,0,0,0-.019.461,5.016,5.016,0,0,1,.545,1.313.416.416,0,0,0,.338.31l1.316.222a.081.081,0,0,1,.069.081V8.161Z" transform="translate(0 -0.001)" stroke="currentColor" stroke-width="0.25" />
		<path d="M139.337,136a3.237,3.237,0,1,0,3.237,3.237A3.239,3.239,0,0,0,139.337,136Zm0,5.628a2.391,2.391,0,1,1,2.391-2.391A2.392,2.392,0,0,1,139.337,141.629Z" transform="translate(-131.835 -131.739)" stroke="currentColor" stroke-width="0.25" />
	</symbol>

	<symbol viewBox="0 0 100 100" id="icon-logged-members" preserveAspectRatio="xMidYMid">
		<path d="M52.6,12.7c-8.6,0-15.5,7-15.5,15.5s7,15.5,15.5,15.5c8.6,0,15.5-7,15.5-15.5C68.1,19.7,61.1,12.7,52.6,12.7z
			M52.6,37.8c-5.3,0-9.5-4.3-9.5-9.5s4.3-9.5,9.5-9.5s9.5,4.3,9.5,9.5S57.8,37.8,52.6,37.8z" />
		<path d="M82.3,29.2c-6.6,0-11.9,5.3-11.9,11.9c0,6.6,5.3,11.9,11.9,11.9c6.6,0,11.9-5.3,11.9-11.9
			C94.2,34.6,88.8,29.2,82.3,29.2z M82.3,47c-3.3,0-5.9-2.7-5.9-5.9c0-3.3,2.7-5.9,5.9-5.9c3.3,0,5.9,2.7,5.9,5.9
			C88.2,44.4,85.5,47,82.3,47z" />
		<path d="M81.8,59.8c-2.7,0-5.5,0.7-7.9,2.1l-0.2,0.1l-0.1-0.1c-4.7-7.4-12.8-12-21.6-12.1c-6.8,0.1-13.1,2.8-17.8,7.5
			c1.6,1.3,3,2.7,4.1,4.3c3.7-3.6,8.4-5.8,13.7-5.8c11.5,0,20.8,10.6,20.8,23.5c0,1.7,1.3,3,3,3c1.7,0,3-1.3,3-3
			c0-4.1-0.8-8-2.2-11.8l-0.1-0.2l0.1-0.1c1.6-0.9,3.3-1.3,5.1-1.4c7,0.5,12.3,6.6,11.9,13.6c0,1.6,1.3,3,3,3c1.7,0,3-1.3,3-3
			C100.1,69.1,92.1,60.3,81.8,59.8z" />
		<path d="M27.8,62.8c0.9-3.3,0.5-6.8-1.1-9.9c-1.7-3.3-4.6-5.8-8.2-6.9C11.2,43.6,3.3,47.7,1,55
			c-1.6,5-0.3,10.4,3.4,14.1c3.4,3.4,8.4,4.8,13,3.7c0.1,0,0.3-0.1,0.4-0.1l3.1,3.1l2.4,0.2l0.2,2.4l3.2,3.2l2.4,0.2l0.2,2.4l3.2,3.2
			h10v-10L27.8,62.8z M37.5,79.3v3.2h-3.2l-0.6-0.6l-0.3-4.7l-4.7-0.3l-0.6-0.6l-0.3-4.7l-4.7-0.3l-4-4l-1.5,0.6
			c-0.4,0.2-0.8,0.3-1.3,0.4c-4.9,1.1-9.8-2-11-6.9c-0.7-3.1,0.2-6.3,2.5-8.5c1.7-1.7,4-2.7,6.5-2.7c2.4,0,4.7,0.9,6.5,2.7
			c2.6,2.6,3.4,6.4,2.1,9.8L22.2,64L37.5,79.3z" />
	</symbol>

	<symbol viewBox="0 0 24 24" id="icon-registered-members" preserveAspectRatio="xMidYMid"  >
		<path d="M6,12a6,6,0,1,1,6-6A6.007,6.007,0,0,1,6,12ZM3.219,5.346a.717.717,0,0,0-.508,1.225L4.47,8.33a.719.719,0,0,0,1.015,0l3.8-3.8A.718.718,0,0,0,8.275,3.51l-3.3,3.3L3.727,5.556A.713.713,0,0,0,3.219,5.346Z"  
			  fill="#1a254f"/>
		<path d="M22.762,25.491a1.16,1.16,0,0,1-1.16-1.158,4.618,4.618,0,0,0-4.248-4.877,3.816,3.816,0,0,0-1.828.486,11.62,11.62,0,0,1,.825,4.324,1.159,1.159,0,1,1-2.318,0c0-4.686-3.361-8.5-7.493-8.5a6.991,6.991,0,0,0-4.931,2.106A8.163,8.163,0,0,0,0,16.194a9.507,9.507,0,0,1,6.54-2.744,9.518,9.518,0,0,1,7.91,4.444,6.139,6.139,0,0,1,2.9-.757,6.926,6.926,0,0,1,6.564,7.195A1.158,1.158,0,0,1,22.762,25.491ZM17.508,14.813a4.4,4.4,0,1,1,4.4-4.4A4.407,4.407,0,0,1,17.508,14.813Zm0-6.487a2.086,2.086,0,1,0,2.086,2.085A2.087,2.087,0,0,0,17.508,8.326ZM6.694,11.449a5.724,5.724,0,1,1,5.725-5.724A5.731,5.731,0,0,1,6.694,11.449Zm0-9.129A3.407,3.407,0,1,0,10.1,5.727,3.411,3.411,0,0,0,6.694,2.319Z" 
			  fill="#1a254f"/>
	</symbol>

	<svg viewBox="0 0 32 32" id="icon-shopping-cart" preserveAspectRatio="xMidYMid">
		<path d="M13,25a3,3,0,1,0,3,3A3,3,0,0,0,13,25Zm0,2a1,1,0,1,1-1,1A1,1,0,0,1,13,27Z" fill="#1a254f" fill-rule="evenodd"/>
		<path d="M26,25a3,3,0,1,0,3,3A3,3,0,0,0,26,25Zm0,2a1,1,0,1,1-1,1A1,1,0,0,1,26,27Z"  fill="#1a254f" fill-rule="evenodd"/>
		<path d="M6.46,4.016,10,22.322a3.216,3.216,0,0,0,3.137,2.64H27.21a3.216,3.216,0,0,0,3.137-2.64l2.1-10.951a3.322,3.322,0,0,0-.669-2.7,3.171,3.171,0,0,0-2.467-1.19h-20L8.549,3.59A3.215,3.215,0,0,0,5.376.962L2.053,1A1.079,1.079,0,0,0,1,2.105,1.077,1.077,0,0,0,2.078,3.181L5.4,3.14a1.071,1.071,0,0,1,1.058.876ZM9.752,9.655,12.1,21.9a1.072,1.072,0,0,0,1.046.88H27.21a1.072,1.072,0,0,0,1.046-.88l2.1-10.951a1.1,1.1,0,0,0-.223-.9,1.056,1.056,0,0,0-.822-.4Z" fill="#1a254f" fill-rule="evenodd"/>
		<path d="M18,11.972v6a1,1,0,1,0,2,0v-6a1,1,0,0,0-2,0Z" fill="#1a254f" fill-rule="evenodd"/>
		<path d="M14,11.972v6a1,1,0,1,0,2,0v-6a1,1,0,0,0-2,0Z"  fill="#1a254f" fill-rule="evenodd"/>
		<path  d="M22,11.972v6a1,1,0,1,0,2,0v-6a1,1,0,0,0-2,0Z" fill="#1a254f" fill-rule="evenodd"/>
	</svg>

	<svg viewBox="0 0 40 40" id="icon-completed-order" preserveAspectRatio="xMidYMid">
		<defs>
			<clipPath id="clip-icon-HasCompletedOrder">
				<rect width="40" height="40"/>
			</clipPath>
		</defs>
		<g id="icon-HasCompletedOrder" clip-path="url(#clip-icon-HasCompletedOrder)">
			<g  transform="translate(-766 -993)">
				<path  d="M-14205-6454h-17.055a9.125,9.125,0,0,0,.055-1,8.871,8.871,0,0,0-.056-1H-14205a1,1,0,0,0,.708-.293,1.007,1.007,0,0,0,.293-.708v-17h-26v10.054a9.138,9.138,0,0,0-1-.055,9,9,0,0,0-1,.056V-6481a3,3,0,0,1,.88-2.119A3.006,3.006,0,0,1-14229-6484h24a2.965,2.965,0,0,1,2.119.879,3,3,0,0,1,.88,2.119v24a2.981,2.981,0,0,1-.88,2.123A2.975,2.975,0,0,1-14205-6454Zm-24-28a1,1,0,0,0-.708.293,1,1,0,0,0-.293.7v5h26v-5a1,1,0,0,0-.293-.7.993.993,0,0,0-.708-.293Zm9.7,4.3a1.253,1.253,0,0,1-1.251-1.251,1.252,1.252,0,0,1,1.251-1.25,1.25,1.25,0,0,1,1.247,1.25A1.25,1.25,0,0,1-14219.306-6477.7Zm-3.706,0a1.253,1.253,0,0,1-1.251-1.251,1.252,1.252,0,0,1,1.251-1.25,1.25,1.25,0,0,1,1.247,1.25A1.25,1.25,0,0,1-14223.012-6477.7Zm-3.709,0a1.251,1.251,0,0,1-1.248-1.251,1.251,1.251,0,0,1,1.248-1.25,1.252,1.252,0,0,1,1.25,1.25A1.252,1.252,0,0,1-14226.721-6477.7Zm19.72-.3h-4.014a1,1,0,0,1-1-1,1,1,0,0,1,1-1h4.014a1,1,0,0,1,1,1A1,1,0,0,1-14207-6478Z" transform="translate(15004 7481)" fill="#1a254f"/>
				<path d="M13,17H11a2,2,0,0,0-2,2v5a3,3,0,0,0,3,3h8a3,3,0,0,0,3-3V19a2,2,0,0,0-2-2H19V15.846a3,3,0,0,0-6,0Zm0,2H11v5a1,1,0,0,0,1,1h8a1,1,0,0,0,1-1V19H19v1.462a1,1,0,1,1-2,0V19H15v1.462a1,1,0,1,1-2,0Zm4-2V15.846a1.014,1.014,0,0,0-2,0V17Z" transform="translate(771 996)" fill="#1a254f" fill-rule="evenodd"/>
				<path  d="M6,12a6,6,0,1,1,6-6A6.007,6.007,0,0,1,6,12ZM3.219,5.346a.717.717,0,0,0-.508,1.225L4.47,8.33a.719.719,0,0,0,1.015,0l3.8-3.8A.718.718,0,0,0,8.275,3.51l-3.3,3.3L3.727,5.556A.713.713,0,0,0,3.219,5.346Z" transform="translate(767 1020)" fill="#1a254f"/>
			</g>
		</g>
	</svg>

	<symbol viewBox="0 0 18 18" id="icon-location-map-black" preserveAspectRatio="xMidYMid">
		<path d="M-8959.557,18a.429.429,0,0,1-.361-.2.438.438,0,0,1-.053-.41l2.115-5.547a.454.454,0,0,1,.414-.286h3.682c-1.5-2.51-2.248-3.719-2.234-5.567a5,5,0,0,1,5-5,5.006,
		5.006,0,0,1,5,5c.01,1.848-.744,3.052-2.234,5.567h3.676a.454.454,0,0,1,.414.286l2.115,5.547a.447.447,0,0,1-.047.41.439.439,
		0,0,1-.367.2Zm12.686-3.238,1.811,2.348h1.977l-1.244-3.252Zm-6.609,2.348h7.3l-1.566-2.033Zm-5.432,0h2.789l2.791-.99-2.818-3.671h-.986Zm6.461-1.3,
		7.809-2.776-.223-.576h-3.924a28.839,28.839,0,0,1-1.867,2.567.454.454,0,0,1-.342.157.443.443,0,0,1-.338-.157,27.565,27.565,0,0,
		1-1.873-2.571h-1.822ZM-8955.113,6c0,1.538.6,2.4,1.791,4.548A28.108,28.108,0,0,0-8951,14.026a28.146,28.146,0,0,0,
		2.322-3.481c1.2-2.143,1.8-3.01,1.791-4.548A4.117,4.117,0,0,0-8951,1.889,4.118,4.118,0,0,0-8955.113,6Zm1.738,0A2.38,
		2.38,0,0,1-8951,3.622,2.379,2.379,0,0,1-8948.623,6,2.382,2.382,0,0,1-8951,8.374,2.38,2.38,0,0,1-8953.375,6Zm.887,
		0a1.5,1.5,0,0,0,1.49,1.49,1.493,1.493,0,0,0,1.49-1.49,1.5,1.5,0,0,0-1.49-1.49A1.5,1.5,0,0,0-8952.488,6Z" 
			  transform="translate(8959.999 -0.998)" fill="#000"/>
	</symbol>

	<symbol viewBox="0 0 36 29" id="icon-number-sessions" preserveAspectRatio="xMidYMid">
		<g id="Group_5031" transform="translate(-1653.501 -382.373)">
			<g id="Group_5029" transform="translate(445)">
				<g id="Group_4675" transform="translate(1208.501 382.373)">
					<path id="Union_6" d="M9.858,13.854,6.608,10.6,5.152,12.06a.984.984,0,0,1-.7.292,1.029,1.029,0,0,1-.23-.026,1,1,0,0,1-.715-.655L.051,1.308A.995.995,0,0,1,1,0a.98.98,0,0,1,.316.05L11.672,3.5a.995.995,0,0,1,.389,1.648L10.6,6.607l3.25,3.25a.994.994,0,0,1,0,1.407l-2.59,2.59a.992.992,0,0,1-1.407,0ZM7.312,8.494l3.25,3.25,1.183-1.183L8.5,7.311A1,1,0,0,1,8.5,5.9l1.02-1.02L2.569,2.569,4.885,9.514l1.02-1.02a.994.994,0,0,1,1.407,0Z" transform="translate(0 14.956)" fill="#1a254f"/>
				</g>
			</g>
			<path id="Subtraction_8" d="M-14208.427-6454.9h-15.428a9.015,9.015,0,0,0,1.172-2.03h14.256a4.37,4.37,0,0,0,3.109-1.287,4.376,4.376,0,0,0,1.286-3.113v-16.243a4.417,4.417,0,0,0-1.286-3.109,4.37,4.37,0,0,0-3.109-1.29h-16.246a4.425,4.425,0,0,0-3.109,1.29,4.415,4.415,0,0,0-1.29,3.109v8.4a9.054,9.054,0,0,0-1.927-.207h-.1v-8.2a6.47,6.47,0,0,1,1.884-4.546,6.388,6.388,0,0,1,4.546-1.883h16.246a6.388,6.388,0,0,1,4.546,1.883,6.475,6.475,0,0,1,1.88,4.546v16.243a6.477,6.477,0,0,1-1.88,4.546A6.388,6.388,0,0,1-14208.427-6454.9Z" transform="translate(15892 6866.373)" fill="#1a254f"/>
			<path id="Path_5671" d="M13.28,19.094V8.265a1.015,1.015,0,1,0-2.03,0V19.094a1.015,1.015,0,1,0,2.03,0Z" transform="translate(1663.185 383.245)" fill="#1a254f" fill-rule="evenodd"/>
			<path id="Path_5672"  d="M17.28,18.387V10.265a1.015,1.015,0,1,0-2.03,0v8.122a1.015,1.015,0,1,0,2.03,0Z" transform="translate(1664.599 383.952)" fill="#1a254f" fill-rule="evenodd"/>
			<path id="Path_5673" d="M9.28,17.68V12.265a1.015,1.015,0,0,0-2.03,0V17.68a1.015,1.015,0,1,0,2.03,0Z" transform="translate(1661.77 384.659)" fill="#1a254f" fill-rule="evenodd"/>
		</g>
	</symbol>

	<!-- startpage youtube -->
	<symbol viewBox="0 0 30 30" id="icon-youtube-video" preserveAspectRatio="xMidYMid">
		<path fill="#fff" d="M21.191 9.293l-9.219-3.438a1.172 1.172 0 00-1.581 1.1v6.875a1.173 1.173 0 001.581 1.1l9.219-3.438a1.173 1.173 0 000-2.199zm-8.457 2.847v-3.5l4.693 1.75zM26.484 0H3.516A3.52 3.52 0 000 3.516v13.75a3.52 3.52 0 003.516 3.516h22.968A3.52 3.52 0 0030 17.266V3.516A3.52 3.52 0 0026.484 0zm1.172 17.266a1.173 1.173 0 01-1.172 1.172H3.516a1.173 1.173 0 01-1.172-1.172V3.516a1.173 1.173 0 011.172-1.172h22.968a1.173 1.173 0 011.172 1.172zm-1.133 8.086h-3.641a3.476 3.476 0 00-6.546 0H3.477a1.172 1.172 0 000 2.344h12.86a3.476 3.476 0 006.546 0h3.641a1.172 1.172 0 000-2.344zm-6.914 2.3a1.133 1.133 0 111.133-1.133 1.134 1.134 0 01-1.133 1.137z" />
	</symbol>

	<!-- startpage roadmap -->
	<symbol viewBox="0 0 30.607 36.595" id="icon-roadmap" preserveAspectRatio="xMidYMid">
		<g fill="#fff" stroke="#fff" stroke-width=".6">
			<path d="M10.878 9.3a.788.788 0 000 .084.777.777 0 00.818.734h13.7a.793.793 0 00.084 0 .777.777 0 00.736-.818V1.119a.8.8 0 000-.084.777.777 0 00-.818-.735h-13.7a.793.793 0 00-.084 0 .777.777 0 00-.734.818zm1.636-7.362H24.58v6.543H12.514z" data-name="Path 5335" />
			<path d="M30.306 22.387v-8.182a.788.788 0 000-.084.777.777 0 00-.818-.734H11.696a.788.788 0 00-.084 0 .777.777 0 00-.734.818v8.18a.788.788 0 000 .084.777.777 0 00.818.734h17.791a.788.788 0 00.084 0 .777.777 0 00.735-.816zm-1.636-.818H12.514v-6.544H28.67v6.544z" data-name="Path 5336" />
			<path d="M26.216 27.295a.788.788 0 000-.084.777.777 0 00-.818-.734h-13.7a.8.8 0 00-.084 0 .777.777 0 00-.734.818v8.18a.789.789 0 000 .084.777.777 0 00.818.734h13.7a.777.777 0 00.818-.818zm-1.636 7.362H12.514v-6.548h12.065v6.544z" data-name="Path 5337" />
			<path d="M7.439 3.946a3.558 3.558 0 00-7.031.773 3.477 3.477 0 002.7 3.476v6.626a3.558 3.558 0 000 6.953V28.4a3.477 3.477 0 00-2.7 3.476A3.558 3.558 0 104.743 28.4v-6.626a3.575 3.575 0 000-6.953V8.195a3.558 3.558 0 002.696-4.249zM5.93 31.876a1.963 1.963 0 01-1.963 1.922 1.9225 1.9225 0 110-3.845 1.963 1.963 0 011.963 1.923zm-.04-13.58a1.922 1.922 0 01-1.921 1.924h0a1.922 1.922 0 111.923-1.924zM3.967 6.641a1.923 1.923 0 010-3.845 1.923 1.923 0 110 3.845z" data-name="Path 5338" />
			<path d="M16.15 5.8h4.7a.818.818 0 000-1.636h-4.7a.818.818 0 100 1.636z" data-name="Path 5339" />
			<path d="M16.15 19.342h8.793a.818.818 0 100-1.636H16.15a.818.818 0 100 1.636z" data-name="Path 5342" />
			<path d="M16.15 31.976h4.7a.818.818 0 000-1.636h-4.7a.818.818 0 100 1.636z" data-name="Path 5343" />
		</g>
	</symbol>

	<symbol viewBox="0 0 16 18.981" id="icon-stopwatch" preserveAspectRatio="xMidYMid">
		<path d="M9.233 3.076V1.6h.673a.8.8 0 100-1.6H6.094a.8.8 0 100 1.6h.673v1.476a8 8 0 102.467 0zM8 17.376a6.4 6.4 0 116.4-6.4A6.405 6.405 0 018 17.379z" />
		<path d="M8.801 10.648V6.875a.8.8 0 10-1.6 0v4.235a.49.49 0 00.144.347l2.24 2.232a.8008.8008 0 001.13-1.135z" />
	</symbol>

	<symbol id="icon-chevron" viewBox="0 0 284.929 284.929">
		<path d="M282.082,195.285L149.028,62.24c-1.901-1.903-4.088-2.856-6.562-2.856s-4.665,0.953-6.567,2.856L2.856,195.285
		C0.95,197.191,0,199.378,0,201.853c0,2.474,0.953,4.664,2.856,6.566l14.272,14.271c1.903,1.903,4.093,2.854,6.567,2.854
		c2.474,0,4.664-0.951,6.567-2.854l112.204-112.202l112.208,112.209c1.902,1.903,4.093,2.848,6.563,2.848
		c2.478,0,4.668-0.951,6.57-2.848l14.274-14.277c1.902-1.902,2.847-4.093,2.847-6.566
		C284.929,199.378,283.984,197.188,282.082,195.285z" />
	</symbol>

	<symbol id="icon-user-identified" viewBox="0 0 16 15.266">
		<path d="M1.884 1.847h1.283v1.174H1.884z" />
		<path d="M4.086 1.847h1.283v1.174H4.086z" />
		<path d="M14.679 0H1.321A1.323 1.323 0 000 1.321v12.624a1.323 1.323 0 001.321 1.321h13.358A1.323 1.323 0 0016 13.945V1.321A1.323 1.323 0 0014.679 0zM1.321 1.174h13.358a.147.147 0 01.147.147v2.346H1.174V1.321a.147.147 0 01.147-.147zm13.358 12.918H1.321a.147.147 0 01-.147-.147v-9.1h13.652v9.1a.147.147 0 01-.147.147z" />
		<path stroke="currentColor" stroke-width=".25" d="M9.281 9.352a1.875 1.875 0 10-2.31 0A3.127 3.127 0 005 12.252v.312a.313.313 0 00.313.313h5.625a.313.313 0 00.313-.313v-.312a3.127 3.127 0 00-1.97-2.9zM6.875 7.877a1.25 1.25 0 111.25 1.25 1.25 1.25 0 01-1.25-1.25zm-1.25 4.375a2.5 2.5 0 015 0z" />
	</symbol>

	<symbol id="icon-user-unidentified" viewBox="0 0 16 15.266">
		<path d="M1.884 1.847h1.283v1.174H1.884z" />
		<path d="M4.086 1.847h1.283v1.174H4.086z" />
		<path d="M14.679 0H1.321A1.323 1.323 0 000 1.321v12.624a1.323 1.323 0 001.321 1.321h13.358A1.323 1.323 0 0016 13.945V1.321A1.323 1.323 0 0014.679 0zM1.321 1.174h13.358a.147.147 0 01.147.147v2.346H1.174V1.321a.147.147 0 01.147-.147zm13.358 12.918H1.321a.147.147 0 01-.147-.147v-9.1h13.652v9.1a.147.147 0 01-.147.147z" />
		<path d="M10.857 6.978a2.146 2.146 0 00-2.05 1.519 3.1 3.1 0 00-1.614 0 2.142 2.142 0 10.07.935 2.2 2.2 0 011.475 0 2.143 2.143 0 102.12-2.454zm-5.714 3.369A1.227 1.227 0 116.372 9.12a1.229 1.229 0 01-1.229 1.227zm5.714 0a1.227 1.227 0 111.229-1.227 1.229 1.229 0 01-1.229 1.227z" />
	</symbol>

	<symbol id="icon-user-bot" viewBox="0 0 16 15.266">
		<g transform="translate(-675.479 -376.692)">
			<path d="M677.363,378.539h1.283v1.174h-1.283Z"/>
			<path d="M679.564,378.539h1.283v1.174h-1.283Z"/>
			<g >
				<path d="M690.158,376.692H676.8a1.324,1.324,0,0,0-1.321,1.321v12.624a1.322,1.322,0,0,0,1.321,1.321h13.358a1.322,1.322,0,0,0,1.321-1.321V378.013A1.324,1.324,0,0,0,690.158,376.692ZM676.8,377.866h13.358a.147.147,0,0,1,.147.147h0v2.346H676.653v-2.346A.147.147,0,0,1,676.8,377.866Zm13.358,12.918H676.8a.147.147,0,0,1-.147-.147h0v-9.1H690.3v9.1a.147.147,0,0,1-.147.147Z"/>
				<g>
					<path d="M686.38,383.642v-1.05h-.9v1.05h-4v-1.05h-.9v1.05h-1.4v6.15h8.6v-6.15Zm-6.3,5.251v-4.351h6.8v4.351Z"/>
					<rect width="0.9" height="1.949" transform="translate(681.629 385.043)"/>
					<rect width="0.899" height="1.949" transform="translate(684.43 385.043)"/>
					<rect width="2.3" height="0.898" transform="translate(682.33 387.493)"/>
				</g>
			</g>
		</g>
	</symbol>

	
	<symbol id="icon-chart-increase" viewBox="0 0 30 34.924">
		<path d="M7.607 24.054h-6.54A1.239 1.239 0 000 25.413v9.511h8.673v-9.511a1.239 1.239 0 00-1.066-1.359z"/>
		<path d="M18.27 15.901h-6.4a1.239 1.239 0 00-1.062 1.359v17.663h8.531V17.26a1.239 1.239 0 00-1.069-1.359z"/>
		<path d="M28.933 0h-6.4a1.239 1.239 0 00-1.062 1.359v33.565h8.531V1.359A1.239 1.239 0 0028.933 0z"/>
	</symbol>

	<symbol id="icon-video-tutorial" viewBox="0 0 72 72">
		<path d="M49.445,21.683l-21.51-8.021a2.736,2.736,0,0,0-3.69,2.562V32.266a2.736,2.736,0,0,0,3.69,2.562l21.51-8.021A2.737,2.737,0,0,0,49.445,21.683ZM29.713,28.328V20.162l10.95,4.083ZM61.8,0H8.2A8.212,8.212,0,0,0,0,8.2V40.286a8.212,8.212,0,0,0,8.2,8.2H61.8a8.212,8.212,0,0,0,8.2-8.2V8.2A8.212,8.212,0,0,0,61.8,0Zm2.734,40.287A2.737,2.737,0,0,1,61.8,43.021H8.2a2.737,2.737,0,0,1-2.734-2.734V8.2A2.737,2.737,0,0,1,8.2,5.469H61.8A2.737,2.737,0,0,1,64.531,8.2ZM61.888,59.154h-8.5a8.111,8.111,0,0,0-15.273,0H8.112a2.734,2.734,0,0,0,0,5.469H38.119a8.111,8.111,0,0,0,15.273,0h8.5a2.734,2.734,0,0,0,0-5.469ZM45.755,64.531A2.643,2.643,0,1,1,48.4,61.888,2.646,2.646,0,0,1,45.755,64.531Z" transform="translate(1 1)" fill="currentColor" />
	</symbol>

	<symbol id="icon-location" viewBox="0 0 29.473 34">
    	<path d="M14.736 0C6.607 0 0 6.343 0 14.14c0 10.582 13.521 19.307 14.1 19.674a1.191 1.191 0 001.279 0c.576-.366 14.1-9.092 14.1-19.674C29.472 6.343 22.862 0 14.736 0zm0 31.37c-2.617-1.822-12.352-9.149-12.352-17.23 0-6.483 5.541-11.757 12.353-11.757S27.089 7.657 27.089 14.14c0 8.067-9.737 15.405-12.353 17.23z" />
    	<path d="M14.736 6.474a6.712 6.712 0 106.713 6.713 6.72 6.72 0 00-6.713-6.713zm0 11.041a4.329 4.329 0 114.329-4.329 4.334 4.334 0 01-4.329 4.33z" />
	</symbol>

	<svg id="icon-location-map" viewBox="0 0 18.001 17.004">
		<path d="M-8959.557,18a.429.429,0,0,1-.361-.2.438.438,0,0,1-.053-.41l2.115-5.547a.454.454,0,0,1,.414-.286h3.682c-1.5-2.51-2.248-3.719-2.234-5.567a5,5,0,0,1,5-5,5.006,5.006,0,0,1,5,5c.01,1.848-.744,3.052-2.234,5.567h3.676a.454.454,0,0,1,.414.286l2.115,5.547a.447.447,0,0,1-.047.41.439.439,0,0,1-.367.2Zm12.686-3.238,1.811,2.348h1.977l-1.244-3.252Zm-6.609,2.348h7.3l-1.566-2.033Zm-5.432,0h2.789l2.791-.99-2.818-3.671h-.986Zm6.461-1.3,7.809-2.776-.223-.576h-3.924a28.839,28.839,0,0,1-1.867,2.567.454.454,0,0,1-.342.157.443.443,0,0,1-.338-.157,27.565,27.565,0,0,1-1.873-2.571h-1.822ZM-8955.113,6c0,1.538.6,2.4,1.791,4.548A28.108,28.108,0,0,0-8951,14.026a28.146,28.146,0,0,0,2.322-3.481c1.2-2.143,1.8-3.01,1.791-4.548A4.117,4.117,0,0,0-8951,1.889,4.118,4.118,0,0,0-8955.113,6Zm1.738,0A2.38,2.38,0,0,1-8951,3.622,2.379,2.379,0,0,1-8948.623,6,2.382,2.382,0,0,1-8951,8.374,2.38,2.38,0,0,1-8953.375,6Zm.887,0a1.5,1.5,0,0,0,1.49,1.49,1.493,1.493,0,0,0,1.49-1.49,1.5,1.5,0,0,0-1.49-1.49A1.5,1.5,0,0,0-8952.488,6Z" transform="translate(8959.999 -0.998)" fill="#fff"/>
	</svg>
	
	<symbol id="icon-ip" viewBox="0 0 29.473 34">
    	<path d="M14.736 0C6.607 0 0 6.343 0 14.14c0 10.582 13.521 19.307 14.1 19.674a1.191 1.191 0 001.279 0c.576-.366 14.1-9.092 14.1-19.674C29.472 6.343 22.862 0 14.736 0zm0 31.37c-2.617-1.822-12.352-9.149-12.352-17.23 0-6.483 5.541-11.757 12.353-11.757S27.089 7.657 27.089 14.14c0 8.067-9.737 15.405-12.353 17.23z" />
    	<path d="M11.035 20.994H8.663v-11.4h2.372zm6.236-5.726a2.165 2.165 0 001.622-.534 2.018 2.018 0 00.514-1.461 2.21 2.21 0 00-.13-.774 1.543 1.543 0 00-.393-.6 1.769 1.769 0 00-.664-.381 3.016 3.016 0 00-.95-.134h-1.491v3.88zm0-5.671a6.617 6.617 0 012.022.275 3.847 3.847 0 011.4.766 3.008 3.008 0 01.813 1.166 4.012 4.012 0 01.263 1.469 4.172 4.172 0 01-.275 1.539 3.147 3.147 0 01-.833 1.2 3.875 3.875 0 01-1.406.781 6.376 6.376 0 01-1.987.279h-1.489v3.922h-2.356v-11.4z" />
	</symbol>

	<symbol id="icon-event-click" viewBox="0 0 13.252 13.25">
		<path stroke="currentColor" stroke-width=".25" d="M6.625 13.125a.445.445 0 01-.064 0 .434.434 0 01-.351-.3l-2.6-8.667a.433.433 0 01.54-.54l8.667 2.6a.433.433 0 01.116.776l-2.16 1.44 2.226 2.226a.433.433 0 010 .613l-1.734 1.725a.433.433 0 01-.613 0l-2.227-2.226-1.44 2.16a.434.434 0 01-.36.193zm1.733-3.467a.433.433 0 01.306.127l2.294 2.294 1.12-1.121-2.293-2.293a.433.433 0 01.066-.667l1.834-1.223-7.013-2.1 2.1 7.013 1.222-1.834a.433.433 0 01.318-.191h.043zm-5.76-7.06a.433.433 0 000-.613l-.867-.867a.433456.433456 0 00-.613.613l.867.867a.433.433 0 00.613 0zm-.306 1.427a.433.433 0 00-.433-.433h-1.3a.4335.4335 0 100 .867h1.3a.433.433 0 00.433-.434zm-.56 2.906l.867-.867a.433456.433456 0 00-.613-.613l-.867.867a.433456.433456 0 10.613.613zm4.333-4.333l.867-.867a.433456.433456 0 00-.613-.613l-.867.867a.433456.433456 0 10.613.613zm-1.606-.74v-1.3a.4335.4335 0 00-.867 0v1.3a.4335.4335 0 00.867 0z"/>
	</symbol>

	<symbol id="icon-event-goal-reached" viewBox="0 0 14.25 14.271">
		<path stroke="currentColor" stroke-linecap="round" stroke-linejoin="round" stroke-width=".25" d="M8.357.125v4.446l-2.27 4.394-1.414-2.592-4.548 7.773h14L9.179 4.571v-1.16h4.054l-1.1-1.643L13.232.125zm.411 5.441l1.176 2.277-.355.355-.822-.822-.816.821-.355-.355zm-7.21 7.759l3.093-5.282.984 1.8-1.8 3.482zm3.2 0l2.438-4.716.751.751.822-.822.822.822.751-.751 2.434 4.716zM11.697 2.59H9.179V.947h2.519l-.548.822z" />
	</symbol>

	<symbol id="icon-event-scroll" viewBox="0 0 10 15.422">
  		<path d="M5.007 12.956L2.3 10.1l.875-.828L5 11.2l1.82-1.929.88.829zM10 11.807V3.614A3.619 3.619 0 006.386 0H3.614A3.619 3.619 0 000 3.614v8.193a3.619 3.619 0 003.614 3.614h2.772A3.619 3.619 0 0010 11.807zM6.386 1.2A2.412 2.412 0 018.8 3.614v8.193a2.412 2.412 0 01-2.41 2.41H3.614a2.412 2.412 0 01-2.41-2.41V3.614A2.412 2.412 0 013.614 1.2zM5 2.44a.6.6 0 10.6.6.6.6 0 00-.6-.6zm0 2.41a.6.6 0 10.6.6.6.6 0 00-.6-.601zm0 2.41a.6.6 0 10.6.6.6.6 0 00-.6-.601zm0 0"/>
	</symbol>

	<symbol id="icon-event-play" viewBox="0 0 10 15.422">
  		<path fill="none" stroke="currentColor" stroke-linecap="round" stroke-linejoin="round" stroke-width="1.25" d="M2.257.855C1.357.338.625.762.625 1.8v7.668c0 1.04.731 1.463 1.632.946l6.7-3.843a.986.986 0 000-1.873z"/>
	</symbol>

	<symbol id="icon-event-pause" viewBox="0 0 10 15.422">
  	<g fill="none" stroke="#000" stroke-width="1.25">
			<path d="M3.411 9.232a1.393 1.393 0 01-1.393 1.393h0A1.393 1.393 0 01.625 9.232V2.018A1.393 1.393 0 012.018.625h0a1.393 1.393 0 011.393 1.393z" />
			<path d="M8.637 9.232a1.393 1.393 0 01-1.392 1.393h0a1.393 1.393 0 01-1.393-1.393V2.018A1.393 1.393 0 017.245.625h0a1.393 1.393 0 011.392 1.393z" />
		</g>
	</symbol>

	<symbol id="icon-event-form" viewBox="0 0 512 512">
		<circle cx="187" cy="210" r="25"/>
		<path d="M348.021 512H163.979C97.822 512 44 458.178 44 392.021V119.979C44 53.822 97.822 0 163.979 0H348.02C414.178 0 468 53.822 468 119.979V392.02C468 458.178 414.178 512 348.021 512zM163.979 40C119.879 40 84 75.879 84 119.979V392.02c0 44.101 35.879 79.98 79.979 79.98H348.02c44.101 0 79.98-35.879 79.98-79.979V119.979C428 75.879 392.121 40 348.021 40z"/>
		<path d="M367 204h-34c-38.598 0-70-31.402-70-70v-34c0-11.046 8.954-20 20-20s20 8.954 20 20v34c0 16.542 13.458 30 30 30h34c11.046 0 20 8.954 20 20s-8.954 20-20 20zM317 395H179c-11.046 0-20-8.954-20-20s8.954-20 20-20h138c11.046 0 20 8.954 20 20s-8.954 20-20 20zM317 318H179c-11.046 0-20-8.954-20-20s8.954-20 20-20h138c11.046 0 20 8.954 20 20s-8.954 20-20 20z"/>
	</symbol>

	<symbol id="icon-event-video" viewBox="0 0 512 512">
		<path d="M392 357H119.979C53.823 357 0 303.177 0 237.021V120C0 53.832 53.832 0 120 0h272c66.168 0 120 53.832 120 120v117c0 66.168-53.832 120-120 120zM120 40c-44.112 0-80 35.888-80 80v117.021C40 281.121 75.879 317 119.979 317H392c44.112 0 80-35.888 80-80V120c0-44.112-35.888-80-80-80zm109.079 226.045c-7.847 0-15.698-2.042-22.891-6.135-14.52-8.261-23.188-23.128-23.188-39.767v-78.285c0-16.64 8.668-31.506 23.188-39.768 14.643-8.331 32.028-8.168 46.507.436l65.867 39.143C332.612 150.018 341 164.721 341 181s-8.388 30.982-22.438 39.332l-65.867 39.143c-7.367 4.377-15.489 6.57-23.616 6.57zm3.181-40.958l65.867-39.143c2.374-1.411 2.873-3.468 2.873-4.945s-.499-3.534-2.873-4.945l-65.867-39.143c-2.72-1.617-5.109-.729-6.291-.057-1.355.771-2.97 2.264-2.97 5.001v78.285c0 2.737 1.615 4.23 2.97 5.001 1.182.675 6.291-.054 6.291-.054zM215 492v-80c0-11.046-8.954-20-20-20s-20 8.954-20 20v80c0 11.046 8.954 20 20 20s20-8.954 20-20zm297-40c0-11.046-8.954-20-20-20H275c-11.046 0-20 8.954-20 20s8.954 20 20 20h217c11.046 0 20-8.954 20-20zm-377 0c0-11.046-8.954-20-20-20H20c-11.046 0-20 8.954-20 20s8.954 20 20 20h95c11.046 0 20-8.954 20-20z"/>
	</symbol>
	<symbol id="icon-filter" viewBox="0 0 477.875 477.875">
		<path d="M460.804,0H17.071C7.645,0,0.004,7.641,0.004,17.067V102.4c0.001,4.836,2.054,9.445,5.649,12.681l165.018,148.514V460.8
			c-0.004,9.426,7.633,17.07,17.059,17.075c2.651,0.001,5.266-0.615,7.637-1.8l102.4-51.2c5.786-2.891,9.441-8.806,9.438-15.275
			V263.595l165.018-148.48c3.604-3.243,5.658-7.866,5.649-12.715V17.067C477.871,7.641,470.23,0,460.804,0z M443.737,94.805
			L278.72,243.285c-3.604,3.243-5.657,7.866-5.649,12.715v143.053l-68.267,34.133V256c-0.001-4.836-2.054-9.445-5.649-12.68
			L34.137,94.805V34.133h409.6V94.805z"/>
	</symbol>
</svg>