<svg xmlns="http://www.w3.org/2000/svg" width="81.877" height="111" viewBox="0 0 81.877 111">
  <g id="Managing_people" data-name="Managing people" transform="translate(-398.416 -1103.912)">
    <g id="Person-43" transform="translate(425.16 1103.912)">
      <ellipse id="Shape-3653" cx="22.096" cy="5.96" rx="22.096" ry="5.96" transform="translate(0 99.08)" fill="#1a254f" opacity="0.15"/>
      <g id="Shape-3654" transform="translate(25.327 98.093)">
        <rect id="Shape-3655" width="3.444" height="5.321" transform="translate(7.401 0.338) rotate(-5.631)" fill="#ffdfae"/>
        <path id="Shape-3656" d="M819.444,1482.11l-12.182-.011a2.242,2.242,0,0,1,.259-1.338l11.627-.167Z" transform="translate(-807.246 -1474.103)" fill="#92aed9"/>
        <path id="Shape-3657" d="M807.529,1476.879c.756-1.219,3.17-.963,4.768-2.5a2.949,2.949,0,0,1,2.559-.91,2.217,2.217,0,0,0,2.187,1.5c.763-.091.607-.683,1.042-.931a.5.5,0,0,1,.563.062l.679,3.484-12.068.159A1.61,1.61,0,0,1,807.529,1476.879Z" transform="translate(-807.254 -1470.22)" fill="#fff"/>
      </g>
      <g id="Shape-3658" transform="translate(4.583 97.419)">
        <rect id="Shape-3659" width="5.321" height="3.444" transform="translate(7.453 5.289) rotate(-83.631)" fill="#ffdfae"/>
        <path id="Shape-3660" d="M774.126,1480.736l-12.18-.224a2.244,2.244,0,0,1,.283-1.334l11.629.035Z" transform="translate(-761.935 -1472.662)" fill="#92aed9"/>
        <path id="Shape-3661" d="M762.238,1475.242c.777-1.2,3.187-.907,4.811-2.417a2.951,2.951,0,0,1,2.575-.867,2.216,2.216,0,0,0,2.161,1.538c.765-.079.619-.671,1.059-.912a.5.5,0,0,1,.561.072l.618,3.5-12.07-.052A1.618,1.618,0,0,1,762.238,1475.242Z" transform="translate(-761.944 -1468.725)" fill="#fff"/>
      </g>
      <path id="Shape-3662" d="M784.265,1357.776h12.7l-14.54,50.922-4.181-.658s2.067-21.838,2.219-23.954C781.021,1376.389,784.265,1357.776,784.265,1357.776Z" transform="translate(-766.194 -1309.417)" fill="#92aed9"/>
      <path id="Shape-3663" d="M814.265,1358.131l-11.351-.3,3.286,27.48,5.918,23.8,4.182-.658s-1.882-24.008-2.035-26.125C813.706,1374.628,814.265,1358.131,814.265,1358.131Z" transform="translate(-779.57 -1309.447)" fill="#b0c9f1"/>
      <path id="Shape-3664" d="M823.8,1264.268c.408,7.459,5.361,5.82,4.825,6.614-2.135,3.161-9.648,1.6-9.648-5.556s-4.377-9.966-.8-11.378C819.516,1253.42,823.268,1254.478,823.8,1264.268Z" transform="translate(-787.085 -1253.062)" fill="#37474f"/>
      <path id="Shape-3665" d="M805.823,1264.291c-2.749-3.393-7.41-4.1-6.143-7.849,1.34-3.97,8.04-3.97,9.648-2.381C815.321,1259.978,809.04,1268.259,805.823,1264.291Z" transform="translate(-777.702 -1252.643)" fill="#263238" opacity="0.704" style="isolation: isolate"/>
      <path id="Shape-3666" d="M802.367,1265.7c-2.255-3.731-6.765-4.026-6.038-7.913.959-5.128,9.378-7.847,12.06-3.44C811.766,1259.9,805.591,1271.041,802.367,1265.7Z" transform="translate(-775.958 -1252.142)" fill="#37474f"/>
      <path id="Shape-3667" d="M802.621,1276.372h-2.452l-3.627,5.979-2.665,5.426,15.455-.142-4.747-5.034Z" transform="translate(-774.671 -1265.28)" fill="#ffdfae"/>
      <path id="Shape-3668" d="M807.763,1279.492s-1.279,3.97-2.5,3.97c-1.458,0-3.461-3.167-4.164-4.847-.067-.158,3.843-3.643,3.843-3.643l1.7.932Z" transform="translate(-778.584 -1264.52)" fill="#f4ca92"/>
      <path id="Shape-3669" d="M806.393,1268.3c.4.759-1.276,2.129-1.332,2.53-.466,3.331-2.8,4.554-4.13,4.554-2.132,0-4.68-5.581-4.68-9.5,0-2.406,2.826-.647,3.883-.021,1.984,1.174,4.044-.927,4.9,1.619C805.323,1268.335,805.817,1267.211,806.393,1268.3Z" transform="translate(-775.958 -1258.927)" fill="#ffdfae"/>
      <path id="Shape-3670" d="M770.393,1316.707c1.178,7.137,8.582,6.335,8.582,6.335l.686-2.33-5.955-6.871,7.562-18.265a22.827,22.827,0,0,0-3.769.7C774.422,1299.66,769.424,1310.839,770.393,1316.707Z" transform="translate(-761.871 -1275.691)" fill="#9499ea"/>
      <path id="Shape-3671" d="M805.81,1317.708l-11.467-.035,2.089-26.746s.095,1.8,3.566,1.939c1.69.069,5.649-1.588,5.649-1.588Z" transform="translate(-774.923 -1273.171)" fill="#fff"/>
      <path id="Shape-3672" d="M812.142,1313.33l1.029,10.792-1.351.3-.536.113-.139.03-6.273,1.4-.118.03-1.061.235-.086-.347-.526-2.242-1.34-5.727-.2-.867-.354-1.539-.183-.763-.364-1.548.847-1.987.128-.316.021-.031,2.638-6.226,4.278-11.668.011-.021.3-.8.172-.448v-.01l4.343,2.528-.214,2.69v.031l-.29,3.7-.493,6.185s-.118,1.532-.214,2.772-.172,2.18-.172,2.18Z" transform="translate(-778.336 -1273.59)" fill="#adadea"/>
      <path id="Shape-3673" d="M824.552,1315.11c-2.82,6.857-14.325,9.519-14.325,9.519l-.686-2.393,11.437-9.038-3.3-9.381.518-6.609S826.871,1309.472,824.552,1315.11Z" transform="translate(-783.164 -1276.576)" fill="#9499ea"/>
      <path id="Shape-3674" d="M791.963,1290.971l0,.052.007.123.022.633.252,8.541.492,10.573,0,.02.065,1.3.033.651-.793,3.693-.523,2.42-.02.094-.055.264-.2.935-.01.043-.961,4.461-1.093-.664-.6-.357-2.031-1.236s.135-.9.348-2.246c.019-.166.051-.354.076-.542.092-.6.191-1.274.3-1.973.016-.125.032-.25.056-.375.019-.166.046-.334.073-.5.085-.532.167-1.085.25-1.638.078-.511.156-1.023.231-1.524.422-2.8.775-5.2.765-5.275-.007-.061-.21-1.194-.5-2.819-.279-1.573-.639-3.6-.979-5.532l-.019-.091-.179-1-.28-1.575c-.365-2.005-.628-3.508-.652-3.648Z" transform="translate(-770.425 -1273.195)" fill="#adadea"/>
      <path id="Shape-3675" d="M808.616,1302.905l-5.663,7.826,2.6-6.2,4.744-12.934Z" transform="translate(-779.592 -1273.532)" fill="#9499ea"/>
      <path id="Shape-3676" d="M796.286,1290.81l.137,9.458.531,10.7-2.905-9.594Z" transform="translate(-774.763 -1273.107)" fill="#9499ea"/>
    </g>
    <g id="Table-3" transform="translate(398.416 1136.527)">
      <path id="Shape-3684" d="M708.264,1364.22l-3.792,50.937h1.711l5.985-50.874Z" transform="translate(-699.451 -1345.526)" fill="#f9b25f"/>
      <path id="Shape-3685" d="M853.144,1364.22l3.791,50.937h-1.71l-5.986-50.874Z" transform="translate(-777.945 -1345.526)" fill="#f9b25f"/>
      <rect id="Shape-3686" width="73.907" height="1.93" transform="translate(5.072 18.638)" fill="#d8984d"/>
      <rect id="Shape-3687" width="81.877" height="3.048" transform="translate(0 16.097)" fill="#f9b25f"/>
      <g id="Laptop-6" transform="translate(28.282 0)">
        <path id="Shape-3688" d="M756.27,1323.385H779.3a1.143,1.143,0,0,1,.987,1.246l1.645,13.605a1.143,1.143,0,0,1-.987,1.246H757.916a1.143,1.143,0,0,1-.987-1.246l-1.646-13.605A1.143,1.143,0,0,1,756.27,1323.385Z" transform="translate(-755.283 -1323.385)" fill="#d8d6dd"/>
        <circle id="Shape-3689" cx="2.286" cy="2.286" r="2.286" transform="translate(10.957 5.662)" fill="#fff"/>
      </g>
    </g>
  </g>
</svg>
