<svg xmlns="http://www.w3.org/2000/svg" viewBox="0 0 310 460"><path d="M149.2,430h12.2v24.2H139.9s5.1-6.6,7.6-10.5S149.2,430,149.2,430Z" style="fill:#ffdfae"/><path d="M124.3,452.7c-1.3.7-.9,5.8-.9,5.8s37.2,1.2,38.8-.1.1-12.3.1-12.3c-10.4-1.5-11,4.5-13.9,4.1s-1.8-5-3.6-5.4S130.1,449.6,124.3,452.7Z" style="fill:#814c74"/><path d="M147.6,436.9l14.2.3-.8-95,24.3-93.7H129.9l-1.4,96.4Z" style="fill:#37474f"/><path d="M146.8,429h18.8l-3.3,8.6H146.8Z" style="fill:#8f97b9"/><path d="M270.7,312.7l-7.3-9.7,19.3-14.6,12.9,17.2s-8.3-.1-12.9.3S270.7,312.7,270.7,312.7Z" style="fill:#ffdfae"/><path d="M303.9,319c1.3.6,5.1-2.8,5.1-2.8s-21.4-30.5-23.4-31-9.9,7.4-9.9,7.4c5,9.1,10.2,6.1,11.6,8.6s-2.9,4.5-2.1,6.1S297.9,316.2,303.9,319Z" style="fill:#814c74"/><path d="M277.2,309.9l-8.3-11.6-53.5,22.5-2.2-70L168,259.4,184.2,349a14.5,14.5,0,0,0,15.2,13.8,14.9,14.9,0,0,0,7.7-2.7Z" style="fill:#4d5b62"/><path d="M271.4,315.3l-11.3-15.1,8.8-2.5,9.3,12.4Z" style="fill:#8f97b9"/><path d="M192.4,57.2h17.9V93l-25.9-1.4Z" style="fill:#f4ca92"/><path d="M227.9,257.4s-25.1-62.9-3.3-127.7c7.1-21-6.9-47.2-13.1-47.2l-25.6-.7s-42.3,23.3-29.8,40.1c33.9,46-29.7,131-29.7,131C126.4,259.3,227.9,263.8,227.9,257.4Z" style="fill:#9499ea"/><path d="M170.3,40c-1.1-3.9-4.8-10.1-1.9-18,8.3-22.6,38.7-28.8,49.9-9.4,1,1.7,9.3-9.7,21.3,2.8s4.9,31,22.5,32.1c12.3.7,10.4,25.7,17.3,25.2,14-1.1,23.7,22.3,10.4,29.2-46.8,24.5-46.2-22.4-47.7-22.2-32.2,4.1-31.5-19.5-31.5-19.5C200.8,63.2,170.3,40,170.3,40Z" style="fill:#694a52"/><path d="M169.9,40.8c4.8,20.9,14.9,39.4,23.8,35.8,4.3-1.8,16.6-7.2,18.9-17.9,1.8-8.1,2.3-9.4,2-16.2-.2-3.2-6.6,9.6-5.4,5.1,5.5-19.6-19.5-13.1-20.6-12.8-12.3,3.3-20.4-2.6-19.8.9C169,36.9,169.3,38.5,169.9,40.8Z" style="fill:#ffdfae"/><path d="M100.6,252.3a50.9,50.9,0,0,0-6.5,21.1,94.4,94.4,0,0,0,1.1,21.9c2.4,14.6,6.9,28.8,10.8,43.6,1,3.6,1.9,7.4,2.6,11.2a50,50,0,0,1,1.2,12.2,25.9,25.9,0,0,1-3.6,12.7,15.9,15.9,0,0,1-5.1,4.9,14.3,14.3,0,0,1-6.9,2.1,17.9,17.9,0,0,1-12.4-4.6,16.6,16.6,0,0,1-3.8-5.3,15.7,15.7,0,0,1-1.4-6.4,19.8,19.8,0,0,1,4.1-11.4,41.4,41.4,0,0,1,8.3-7.9,44.9,44.9,0,0,0-6.5,9,17.8,17.8,0,0,0-2.2,10.1,11.8,11.8,0,0,0,4.8,8,12.1,12.1,0,0,0,8.6,2.4,8.8,8.8,0,0,0,6.6-4.6,19.1,19.1,0,0,0,1.9-9.1,52.3,52.3,0,0,0-1.6-10.4c-.8-3.5-1.8-7.1-2.8-10.7-4-14.5-8.3-29.4-9.5-45a76.8,76.8,0,0,1,1.5-23.4A42.2,42.2,0,0,1,100.6,252.3Z" style="fill:#bbc0d6"/><path d="M111,254.5a90.9,90.9,0,0,0-5.4,28.2,68,68,0,0,0,4.8,27.5,34.2,34.2,0,0,0,3.3,5.9,14.6,14.6,0,0,0,4.6,4.3,8.4,8.4,0,0,0,5.6,1,8.7,8.7,0,0,0,4.9-3.2,11.6,11.6,0,0,0,2.3-5.9,11.1,11.1,0,0,0-1.4-6.4,16,16,0,0,0-4.5-5.2,34.6,34.6,0,0,0-6.2-3.6,26.8,26.8,0,0,1,6.8,2.7,16.4,16.4,0,0,1,5.7,5.1,13.4,13.4,0,0,1,2.4,7.5,14.2,14.2,0,0,1-2.3,7.8,12.1,12.1,0,0,1-6.8,4.9,12.9,12.9,0,0,1-4.4.4,15.1,15.1,0,0,1-4.1-1.3,20,20,0,0,1-6.3-5.3,35.7,35.7,0,0,1-4-6.8,55.5,55.5,0,0,1-4.1-14.6,65.2,65.2,0,0,1,9.1-43Z" style="fill:#bbc0d6"/><path d="M82.9,279.3a51.8,51.8,0,0,0-1.1,19.6c.6,6.6,2.1,12.9,2.9,19.8A23.9,23.9,0,0,1,85,324a10.6,10.6,0,0,1-1.6,6,7.6,7.6,0,0,1-1.1,1.4l-.7.5-.6.5a13.4,13.4,0,0,1-2.7,1.3,7.6,7.6,0,0,1-6.4-.5,8.6,8.6,0,0,1-3.9-4.5,11.8,11.8,0,0,1,4.4-14.4,12,12,0,0,0-3,8.9,9.4,9.4,0,0,0,1.3,4.2,6.4,6.4,0,0,0,2.8,2.6,3.8,3.8,0,0,0,3.3-.2,5.9,5.9,0,0,0,1.7-1l.4-.3.3-.3a2.1,2.1,0,0,0,.4-.6,7.7,7.7,0,0,0,.7-3.7,35.7,35.7,0,0,0-.4-4.6c-.8-6.5-2.1-13.3-2-20.2S79.2,285.1,82.9,279.3Z" style="fill:#bbc0d6"/><path d="M110.9,331.6a24.2,24.2,0,0,1,7.8,9,27.2,27.2,0,0,1,2.2,5.6,38.7,38.7,0,0,1,1.3,5.9,92,92,0,0,1,.8,11.7c.2,3.8.3,7.6,1.4,10.6a10.1,10.1,0,0,0,2.8,3.7,7,7,0,0,0,4.1,1.8c3,.3,6.3-1.7,8.5-4.3a13.5,13.5,0,0,0,2.4-4.6,8.1,8.1,0,0,0,.1-5.1,8.4,8.4,0,0,0-2.9-4.4,17.2,17.2,0,0,0-4.9-2.8,15.9,15.9,0,0,1,5.5,2,10.5,10.5,0,0,1,4,4.6,11.2,11.2,0,0,1,.6,6.3,16.3,16.3,0,0,1-2.4,5.8,14.8,14.8,0,0,1-4.6,4.4,12.4,12.4,0,0,1-6.5,2,11.3,11.3,0,0,1-6.5-2.4,17.5,17.5,0,0,1-2.4-2.3,13.2,13.2,0,0,1-1.9-2.9,19.6,19.6,0,0,1-1.7-6.3,56.5,56.5,0,0,1-.4-5.9c-.1-3.9,0-7.7-.3-11.4a53.2,53.2,0,0,0-.6-5.6,45.4,45.4,0,0,0-1.2-5.3,33.8,33.8,0,0,0-2.2-5.2A49.4,49.4,0,0,0,110.9,331.6Z" style="fill:#bbc0d6"/><path d="M105.5,239.5l81.5-4.6V162.8l-81.5,4.5Z" style="fill:#d8984d"/><path d="M105.5,167.5l81.5-4.7L112.5,137l-81.6,4.7Z" style="fill:#b27833"/><path d="M30.9,141.7l81.6-4.7L95.4,118.6l-81.6,4.6Z" style="fill:#d8984d"/><path d="M187,162.8l15.4-25.4-74.6-25.8L112.5,137Z" style="fill:#d8984d"/><path d="M30.9,205l74.6,34.6V167.4L30.9,141.5Z" style="fill:#f9b25f"/><path d="M67.8,173.8l37.7-6.4L31.2,141.7,1,145.7Z" style="fill:#d8984d"/><path d="M85,267.5l20.5-28.1L30.6,204.9,17,230.3Z" style="fill:#d8984d"/><path d="M105.5,167.5l81.6-4.6-15.3-16.5L90.3,151Z" style="fill:#f9b25f"/><path d="M120.6,255.9l79.5-6.6-13.2-14.6-81.6,4.7Z" style="fill:#f9b25f"/><path d="M72.7,357.1a21,21,0,0,0-.6,14.6A21.3,21.3,0,0,0,80,383.5a19.4,19.4,0,0,0,13.6,3.7,30.2,30.2,0,0,0,7.3-1.3,59.8,59.8,0,0,0,7.1-2.5,36.6,36.6,0,0,1-6.7,3.7l-3.7,1.3a25.3,25.3,0,0,1-3.8.7,21.5,21.5,0,0,1-8-.3,20.1,20.1,0,0,1-7.3-3.3,22.4,22.4,0,0,1-8.3-13.3,23.3,23.3,0,0,1-.3-7.9A16,16,0,0,1,72.7,357.1Z" style="fill:#bbc0d6"/><ellipse cx="127.7" cy="197.8" rx="15.6" ry="10.8" style="fill:#f7e0a6"/><path d="M142.9,204a128.4,128.4,0,0,0,50.9-14.8c28.5-15.5,30.2-62.6,24.8-100.5-1.4-9.7-22-6.4-22-6.4s-10.6,62.2-5.1,83.5L140.8,190Z" style="fill:#cfd1f0"/></svg>