<svg id="Managing_people" data-name="Managing people" xmlns="http://www.w3.org/2000/svg" xmlns:xlink="http://www.w3.org/1999/xlink" width="310" height="233.975" viewBox="0 0 310 233.975">
  <defs>
    <clipPath id="clip-path">
      <rect id="Rectangle_4901" data-name="Rectangle 4901" width="27.559" height="27.559" rx="13.649" fill="none"/>
    </clipPath>
    <clipPath id="clip-path-2">
      <rect id="Rectangle_4902" data-name="Rectangle 4902" width="27.559" height="27.559" rx="13.78" fill="none"/>
    </clipPath>
    <clipPath id="clip-path-4">
      <rect id="Rectangle_4904" data-name="Rectangle 4904" width="28.268" height="28.268" rx="13.649" fill="none"/>
    </clipPath>
    <linearGradient id="linear-gradient" x1="-22.626" y1="165.146" x2="-22.644" y2="165.156" gradientUnits="objectBoundingBox">
      <stop offset="0" stop-color="#1a1a1a"/>
      <stop offset="0.338" stop-color="#232323"/>
      <stop offset="0.9" stop-color="#3c3c3c"/>
      <stop offset="1" stop-color="#424242"/>
    </linearGradient>
    <linearGradient id="linear-gradient-2" x1="-15.757" y1="102.879" x2="-15.768" y2="102.885" gradientUnits="objectBoundingBox">
      <stop offset="0" stop-color="#f8bbd0"/>
      <stop offset="0.139" stop-color="#eaaed2"/>
      <stop offset="0.377" stop-color="#da9ed5"/>
      <stop offset="0.645" stop-color="#d195d7"/>
      <stop offset="1" stop-color="#ce93d8"/>
    </linearGradient>
  </defs>
  <path id="Background-47" d="M618.544,1143.688c-32.949-58.66-60.111-2.571-145.608-65.816-34.768-25.72-115.844-21.235-145.932,10.04-33.118,34.422,4.992,74.322,0,116.746-11.181,95.014,123.532,3.736,199.366,40.369C579.878,1277.593,641.045,1183.749,618.544,1143.688Z" transform="translate(-313.333 -1061.173)" fill="#3444b2"/>
  <g id="Group_4196" data-name="Group 4196" transform="translate(-499 -263.543)">
    <g id="Browser-22" transform="translate(510.173 302.526)">
      <path id="Background-48" d="M369.064,1121.612H554.713a5.809,5.809,0,0,1,5.808,5.81V1250.7a5.809,5.809,0,0,1-5.808,5.809H369.064a5.809,5.809,0,0,1-5.809-5.809V1127.422A5.809,5.809,0,0,1,369.064,1121.612Z" transform="translate(-363.255 -1121.612)" fill="#e5e8f5"/>
      <path id="Background-49" d="M371.842,1121.612H557.49a5.809,5.809,0,0,1,5.809,5.81v121.826a5.809,5.809,0,0,1-5.809,5.809H371.842a5.809,5.809,0,0,1-5.809-5.809V1127.422A5.809,5.809,0,0,1,371.842,1121.612Z" transform="translate(-364.581 -1121.612)" fill="#fff"/>
      <path id="Shape-3646" d="M366.032,1135.536v-10.27c0-2.01,2.261-3.654,5.025-3.654H558.274c2.764,0,5.025,1.644,5.025,3.654v10.27Z" transform="translate(-364.58 -1121.612)" fill="#1a254f"/>
      <circle id="Shape-3647" cx="2.321" cy="2.321" r="2.321" transform="translate(8.705 4.497)" fill="#fa538d"/>
      <circle id="Shape-3648" cx="2.321" cy="2.321" r="2.321" transform="translate(17.547 4.584)" fill="#fab353"/>
      <circle id="Shape-3649" cx="2.321" cy="2.321" r="2.321" transform="translate(26.389 4.584)" fill="#9dc925"/>
      <g id="Person-40" transform="translate(12.566 25.276)">
        <g id="Shape-3650" transform="translate(38.249 4.345)">
          <path id="Path_4899" data-name="Path 4899" d="M461.621,1178.274h82.385a1.162,1.162,0,0,1,1.162,1.161v1.738a1.162,1.162,0,0,1-1.162,1.162H461.621a1.162,1.162,0,0,1-1.162-1.162v-1.738A1.162,1.162,0,0,1,461.621,1178.274Z" transform="translate(-460.459 -1178.274)" fill="#e5e8f5"/>
          <path id="Path_4898" data-name="Path 4898" d="M461.685,1192.68H591.065a1.161,1.161,0,0,1,1.161,1.162v1.738a1.161,1.161,0,0,1-1.161,1.161H461.685a1.161,1.161,0,0,1-1.162-1.161v-1.738A1.161,1.161,0,0,1,461.685,1192.68Z" transform="translate(-460.49 -1185.149)" fill="#e5e8f5"/>
          <path id="Path_4900" data-name="Path 4900" d="M461.685,1207.087H591.065a1.162,1.162,0,0,1,1.161,1.161v1.739a1.162,1.162,0,0,1-1.161,1.162H461.685a1.162,1.162,0,0,1-1.162-1.162v-1.739A1.162,1.162,0,0,1,461.685,1207.087Z" transform="translate(-460.49 -1192.024)" fill="#e5e8f5"/>
        </g>
        <g id="Profile">
          <path id="Path_239" data-name="Path 239" d="M394.42,1169.962h13.3a7.127,7.127,0,0,1,7.127,7.128h0v13.3a7.128,7.128,0,0,1-7.127,7.127h-13.3a7.127,7.127,0,0,1-7.127-7.127h0v-13.3a7.127,7.127,0,0,1,7.127-7.128Z" transform="translate(-387.293 -1169.962)" fill="#fff"/>
          <g id="Group_3935" data-name="Group 3935">
            <g id="Group_3934" data-name="Group 3934" clip-path="url(#clip-path)">
              <g id="Mask_Group_1" data-name="Mask Group 1" transform="translate(4.969 4.838)">
                <path id="Path_3" data-name="Path 3" d="M414.1,1189.826c1.51,4.744-3.844,7.435-8.4,7.5s-10.767.48-8.371-8.942c1.228-4.828,3.572-9.1,8.132-9.162S412.955,1186.222,414.1,1189.826Z" transform="translate(-396.797 -1179.217)" fill="#37474f"/>
                <rect id="Rectangle_2" data-name="Rectangle 2" width="4.211" height="4.686" transform="matrix(1, -0.013, 0.013, 1, 7.009, 12.629)" fill="#ffdfae"/>
                <path id="Path_4-2" data-name="Path 4-2" d="M410.246,1206.434l-.029-2.17,4.211-.056.026,1.888s-.264.836-1.912.858A3.509,3.509,0,0,1,410.246,1206.434Z" transform="translate(-403.202 -1191.145)" fill="#f4ca92"/>
                <path id="Path_5" data-name="Path 5" d="M412.487,1189.373c.053,3.982-2.647,7.046-4.92,7.067-1.82.019-4.166-1.9-5.213-4.941-.116-.338-1.717-.751-1.779-1.93-.068-1.293,1.265-.375,1.259-.784-.08-5.984,5.291-5.967,5.136-3.785C406.623,1189.892,412.434,1185.39,412.487,1189.373Z" transform="translate(-398.599 -1181.338)" fill="#ffdfae"/>
                <path id="Path_6" data-name="Path 6" d="M414.859,1218.427c-.034-2.549-3.943-7.757-8.959-7.69s-8.808,5.377-8.774,7.925Z" transform="translate(-396.954 -1194.257)" fill="#9bd075"/>
              </g>
            </g>
          </g>
        </g>
      </g>
      <g id="Person-41" transform="translate(12.566 59.523)">
        <g id="Shape-3651" transform="translate(38.249 4.345)">
          <path id="Path_4901" data-name="Path 4901" d="M461.621,1243.786h82.385a1.161,1.161,0,0,1,1.162,1.162v1.737a1.161,1.161,0,0,1-1.162,1.162H461.621a1.162,1.162,0,0,1-1.162-1.162v-1.737A1.162,1.162,0,0,1,461.621,1243.786Z" transform="translate(-460.459 -1243.786)" fill="#e5e8f5"/>
          <path id="Path_4902" data-name="Path 4902" d="M461.685,1258.192H591.065a1.162,1.162,0,0,1,1.161,1.162v1.738a1.162,1.162,0,0,1-1.161,1.162H461.685a1.162,1.162,0,0,1-1.162-1.162v-1.738A1.162,1.162,0,0,1,461.685,1258.192Z" transform="translate(-460.49 -1250.661)" fill="#e5e8f5"/>
          <path id="Path_4903" data-name="Path 4903" d="M461.685,1272.6H591.065a1.162,1.162,0,0,1,1.161,1.161v1.739a1.162,1.162,0,0,1-1.161,1.162H461.685a1.162,1.162,0,0,1-1.162-1.162v-1.739A1.162,1.162,0,0,1,461.685,1272.6Z" transform="translate(-460.49 -1257.536)" fill="#e5e8f5"/>
        </g>
        <g id="Profile-2">
          <path id="Path_4907" data-name="Path 4907" d="M394.844,1235.474H407.3a7.552,7.552,0,0,1,7.551,7.552v12.456a7.551,7.551,0,0,1-7.551,7.551H394.844a7.55,7.55,0,0,1-7.551-7.551v-12.456A7.551,7.551,0,0,1,394.844,1235.474Z" transform="translate(-387.293 -1235.474)" fill="#fff"/>
          <g id="Group_3937" data-name="Group 3937" transform="translate(0 0)">
            <g id="Group_3936" data-name="Group 3936" clip-path="url(#clip-path-2)">
              <g id="Mask_Group_2" data-name="Mask Group 2" transform="translate(4.56 4.838)">
                <path id="Path_7-2" data-name="Path 7-2" d="M414.245,1264.388c-.276,4.969-6.757,5.74-11.314,5.8s-8.205-6.875-5.808-16.3c1.227-4.829,3.572-9.1,8.132-9.162S414.826,1253.943,414.245,1264.388Z" transform="translate(-396.182 -1244.729)" fill="#37474f"/>
                <rect id="Rectangle_7" data-name="Rectangle 7" width="4.211" height="5.644" transform="matrix(1, -0.013, 0.013, 1, 7.418, 12.629)" fill="#ffdfae"/>
                <path id="Path_8-3" data-name="Path 8-3" d="M410.246,1272.466l-.029-2.17,4.211-.056.026,1.888s-.264.836-1.912.858A3.508,3.508,0,0,1,410.246,1272.466Z" transform="translate(-402.793 -1256.905)" fill="#f4ca92"/>
                <path id="Path_9" data-name="Path 9" d="M412.928,1257.723a13.711,13.711,0,0,1-.062,1.529c-.048.489.706-.9.871.132.208,1.281-1.253,1.856-1.348,2.131a4.843,4.843,0,0,1-4.088,3.546c-1.854.22-3.6-1.341-4.618-3.441-.13-.27-1.442-.277-1.552-1.359-.166-1.615.953-.428.88-.686-.528-1.864-.221-3.337,1.5-2.722.349.125-.077-1.22.291-1.162.292.049.258,1.151.581,1.162a7.446,7.446,0,0,0,.83-.027C409.173,1256.553,412.89,1254.792,412.928,1257.723Z" transform="translate(-398.927 -1249.96)" fill="#ffdfae"/>
                <path id="Path_10" data-name="Path 10" d="M413.749,1284.392c-.03-2.178-3.028-6.825-5.212-6.576-.933.106-2.35.582-2.94.6l-3-.525c-4.709,1.086-6.612,4.6-6.584,6.736Z" transform="translate(-396.015 -1260.514)" fill="#f0af56"/>
                <path id="Path_11" data-name="Path 11" d="M411.034,1278.089l-3.627,3.315.3-4.055Z" transform="translate(-401.452 -1260.296)" fill="#fff"/>
                <path id="Path_12" data-name="Path 12" d="M414.232,1278.057l3.627,3.315-.3-4.055Z" transform="translate(-404.709 -1260.281)" fill="#fff"/>
              </g>
            </g>
          </g>
        </g>
      </g>
      <g id="Person-42" transform="translate(12.566 93.565)">
        <g id="Shape-3652" transform="translate(38.249 4.345)">
          <path id="Path_4904" data-name="Path 4904" d="M461.621,1308.9h82.385a1.161,1.161,0,0,1,1.162,1.162v1.738a1.162,1.162,0,0,1-1.162,1.162H461.621a1.162,1.162,0,0,1-1.162-1.162v-1.738A1.161,1.161,0,0,1,461.621,1308.9Z" transform="translate(-460.459 -1308.903)" fill="#e5e8f5"/>
          <path id="Path_4905" data-name="Path 4905" d="M461.685,1323.31H591.065a1.161,1.161,0,0,1,1.161,1.162v1.737a1.162,1.162,0,0,1-1.161,1.163H461.685a1.163,1.163,0,0,1-1.162-1.163v-1.737A1.162,1.162,0,0,1,461.685,1323.31Z" transform="translate(-460.49 -1315.778)" fill="#e5e8f5"/>
          <path id="Path_4906" data-name="Path 4906" d="M461.685,1337.716H591.065a1.161,1.161,0,0,1,1.161,1.161v1.738a1.161,1.161,0,0,1-1.161,1.162H461.685a1.162,1.162,0,0,1-1.162-1.162v-1.738A1.162,1.162,0,0,1,461.685,1337.716Z" transform="translate(-460.49 -1322.653)" fill="#e5e8f5"/>
        </g>
        <g id="Profile-3">
          <path id="Path_4908" data-name="Path 4908" d="M394.844,1300.591H407.3a7.551,7.551,0,0,1,7.551,7.551V1320.6a7.551,7.551,0,0,1-7.551,7.551H394.844a7.551,7.551,0,0,1-7.551-7.551v-12.458A7.551,7.551,0,0,1,394.844,1300.591Z" transform="translate(-387.293 -1300.591)" fill="#fff"/>
          <g id="Group_3939" data-name="Group 3939" transform="translate(0 0)">
            <g id="Group_3938" data-name="Group 3938" clip-path="url(#clip-path-2)">
              <g id="Mask_Group_3" data-name="Mask Group 3" transform="translate(4.56 3.895)">
                <path id="Path_13" data-name="Path 13" d="M411.815,1319.36c-1.74,0-10.791,3.047-11.894-3.771-.675-4.171,1.162-6.092,4.351-6.672,0,0-.544-.877,0-.872.438.006.6.5,1.162.581.409.055-.167-.64.291-.581.5.065.865.775,1.45.581,1.741-.581,3.74,1.408,4.352,1.741C413.679,1311.53,413.846,1319.36,411.815,1319.36Z" transform="translate(-397.813 -1308.041)" fill="#37474f"/>
                <rect id="Rectangle_12" data-name="Rectangle 12" width="4.211" height="6.477" transform="matrix(1, -0.013, 0.013, 1, 7.417, 13.573)" fill="#ffdfae"/>
                <path id="Path_14" data-name="Path 14" d="M410.246,1337.065l-.029-2.172,4.211-.056.026,1.888s-.264.837-1.912.859A3.515,3.515,0,0,1,410.246,1337.065Z" transform="translate(-402.793 -1320.829)" fill="#f4ca92"/>
                <path id="Path_15" data-name="Path 15" d="M412.688,1320.964c-.012.161.946-.588.991-.182.291,2.611-1.06,2.451-1.162,2.9-.558,2.5-1.74,3.481-3.191,4.062-.635.254-2.952.593-3.772,0a6.958,6.958,0,0,1-3.191-3.19c-.488-1.141-2.03-.582-2.321-3.191-.062-.551,1.45,0,1.45,0s-.287-1.234-.291-1.451c-.079-5.983,3.363-2.207,5.512-2.611C411.36,1316.43,413.1,1315.559,412.688,1320.964Z" transform="translate(-397.938 -1312.074)" fill="#ffdfae"/>
                <path id="Path_16" data-name="Path 16" d="M415.529,1348.041c-.018-1.334-2.015-3.268-3.771-4.931-.913-.866-2.82-2.322-4.061-2.322a1.729,1.729,0,0,1-2.031,1.451c-1.8-.3-1.891-.984-2.184-1.3a7.263,7.263,0,0,0-3.618,1.593c-2.117,1.8-3.867,4.836-3.849,6.2Z" transform="translate(-396.016 -1323.669)" fill="#f74e88"/>
              </g>
            </g>
          </g>
        </g>
      </g>
    </g>
    <g id="Person-43" transform="translate(713.356 370.764)">
      <ellipse id="Shape-3653" cx="25.232" cy="6.806" rx="25.232" ry="6.806" transform="translate(0 113.143)" fill="#1a254f" opacity="0.15"/>
      <g id="Shape-3654" transform="translate(28.921 112.015)">
        <rect id="Shape-3655" width="3.933" height="6.077" transform="translate(8.451 0.386) rotate(-5.631)" fill="#ffdfae"/>
        <path id="Shape-3656" d="M821.175,1482.326l-13.911-.013a2.56,2.56,0,0,1,.3-1.527l13.277-.192Z" transform="translate(-807.246 -1473.182)" fill="#92aed9"/>
        <path id="Shape-3657" d="M807.567,1477.368c.863-1.392,3.62-1.1,5.445-2.858a3.367,3.367,0,0,1,2.922-1.039,2.531,2.531,0,0,0,2.5,1.714c.871-.1.693-.78,1.19-1.063a.571.571,0,0,1,.643.071l.776,3.978-13.781.182A1.836,1.836,0,0,1,807.567,1477.368Z" transform="translate(-807.253 -1469.764)" fill="#fff"/>
      </g>
      <g id="Shape-3658" transform="translate(5.234 111.246)">
        <rect id="Shape-3659" width="6.077" height="3.933" transform="translate(8.511 6.039) rotate(-83.631)" fill="#ffdfae"/>
        <path id="Shape-3660" d="M775.856,1480.957l-13.909-.255a2.563,2.563,0,0,1,.323-1.523l13.279.041Z" transform="translate(-761.935 -1471.737)" fill="#92aed9"/>
        <path id="Shape-3661" d="M762.279,1475.714c.888-1.376,3.639-1.036,5.494-2.759a3.371,3.371,0,0,1,2.94-.99,2.531,2.531,0,0,0,2.467,1.757c.874-.091.706-.767,1.209-1.042a.572.572,0,0,1,.641.082l.706,3.991-13.783-.059A1.847,1.847,0,0,1,762.279,1475.714Z" transform="translate(-761.943 -1468.272)" fill="#fff"/>
      </g>
      <path id="Shape-3662" d="M785.119,1357.776h14.5l-16.6,58.15-4.775-.752s2.36-24.938,2.534-27.354C781.415,1379.031,785.119,1357.776,785.119,1357.776Z" transform="translate(-764.484 -1302.554)" fill="#92aed9"/>
      <path id="Shape-3663" d="M815.876,1358.174l-12.962-.342,3.753,31.38,6.758,27.173,4.776-.752s-2.15-27.416-2.324-29.833C815.238,1377.012,815.876,1358.174,815.876,1358.174Z" transform="translate(-776.257 -1302.58)" fill="#b0c9f1"/>
      <path id="Shape-3664" d="M824.8,1265.749c.466,8.517,6.122,6.646,5.509,7.553-2.438,3.61-11.017,1.831-11.017-6.345s-5-11.381-.918-12.993C819.905,1253.361,824.19,1254.569,824.8,1265.749Z" transform="translate(-782.872 -1252.952)" fill="#37474f"/>
      <path id="Shape-3665" d="M806.726,1265.884c-3.139-3.875-8.462-4.679-7.015-8.963,1.53-4.533,9.181-4.533,11.017-2.719C817.571,1260.958,810.4,1270.416,806.726,1265.884Z" transform="translate(-774.612 -1252.582)" fill="#263238" opacity="0.704" style="isolation: isolate"/>
      <path id="Shape-3666" d="M803.235,1267.63c-2.575-4.26-7.725-4.6-6.895-9.036,1.1-5.856,10.709-8.961,13.772-3.929C813.968,1261,806.917,1273.724,803.235,1267.63Z" transform="translate(-773.078 -1252.142)" fill="#37474f"/>
      <path id="Shape-3667" d="M803.862,1276.372h-2.8l-4.141,6.828-3.043,6.2,17.648-.163-5.421-5.749Z" transform="translate(-771.945 -1263.705)" fill="#ffdfae"/>
      <path id="Shape-3668" d="M808.709,1280.134s-1.46,4.534-2.859,4.534c-1.665,0-3.952-3.617-4.755-5.536-.076-.181,4.389-4.16,4.389-4.16l1.939,1.063Z" transform="translate(-775.389 -1263.037)" fill="#f4ca92"/>
      <path id="Shape-3669" d="M807.833,1268.823c.456.866-1.457,2.431-1.521,2.89-.532,3.8-3.195,5.2-4.716,5.2-2.435,0-5.344-6.373-5.344-10.85,0-2.748,3.227-.739,4.434-.024,2.265,1.341,4.618-1.059,5.6,1.849C806.611,1268.857,807.175,1267.574,807.833,1268.823Z" transform="translate(-773.077 -1258.114)" fill="#ffdfae"/>
      <path id="Shape-3670" d="M770.41,1319.706c1.346,8.15,9.8,7.235,9.8,7.235l.784-2.661-6.8-7.846,8.636-20.857a26.073,26.073,0,0,0-4.3.8C775.011,1300.24,769.3,1313.006,770.41,1319.706Z" transform="translate(-760.678 -1272.869)" fill="#9499ea"/>
      <path id="Shape-3671" d="M807.437,1321.509l-13.094-.04,2.385-30.542s.108,2.05,4.073,2.214c1.93.079,6.451-1.812,6.451-1.812Z" transform="translate(-772.166 -1270.651)" fill="#fff"/>
      <path id="Shape-3672" d="M813.775,1316.4l1.176,12.323-1.543.348-.612.129-.159.034-7.163,1.6-.135.034-1.212.269-.1-.4-.6-2.56-1.531-6.539-.232-.99-.4-1.757-.209-.871-.416-1.768.968-2.27.146-.36.024-.035,3.012-7.11,4.885-13.323.012-.024.342-.908.2-.511v-.012l4.959,2.886-.245,3.072v.035l-.331,4.224-.563,7.063s-.135,1.75-.245,3.165-.2,2.49-.2,2.49Z" transform="translate(-775.171 -1271.019)" fill="#adadea"/>
      <path id="Shape-3673" d="M826.683,1317.651c-3.221,7.831-16.358,10.87-16.358,10.87l-.783-2.733,13.061-10.32-3.77-10.713.591-7.547S829.331,1311.212,826.683,1317.651Z" transform="translate(-779.42 -1273.647)" fill="#9499ea"/>
      <path id="Shape-3674" d="M792.8,1290.971l0,.059.009.141.025.723.288,9.753.562,12.073,0,.022.075,1.489.037.744-.905,4.217-.6,2.763-.023.108-.063.3-.229,1.068-.011.05-1.1,5.094-1.248-.758-.681-.408L786.622,1327s.154-1.025.4-2.564c.022-.189.059-.405.086-.619.1-.69.218-1.454.346-2.253.019-.143.036-.285.064-.428.022-.19.052-.382.083-.573.1-.608.191-1.24.286-1.871.089-.584.178-1.168.263-1.741.482-3.195.885-5.933.874-6.024-.009-.069-.239-1.363-.567-3.219-.319-1.8-.729-4.108-1.118-6.318l-.022-.1-.2-1.145-.32-1.8c-.416-2.29-.717-4.006-.745-4.166Z" transform="translate(-768.207 -1270.672)" fill="#adadea"/>
      <path id="Shape-3675" d="M809.419,1304.51l-6.466,8.937,2.971-7.083,5.417-14.77Z" transform="translate(-776.276 -1270.969)" fill="#9499ea"/>
      <path id="Shape-3676" d="M796.6,1290.81l.156,10.8.606,12.223-3.318-10.955Z" transform="translate(-772.026 -1270.595)" fill="#9499ea"/>
    </g>
    <g id="Profile-4" transform="translate(755.239 318.768)">
      <path id="Shape-3677" d="M839.175,1152.679h14a7.137,7.137,0,0,1,7.134,7.136v14a7.135,7.135,0,0,1-7.135,7.134h-14a7.134,7.134,0,0,1-7.134-7.135v-14A7.136,7.136,0,0,1,839.175,1152.679Z" transform="translate(-832.04 -1152.679)" fill="#4bb2ff"/>
      <g id="Shape-3678" transform="translate(0 0)">
        <g id="Group_3941" data-name="Group 3941">
          <g id="Group_3940" data-name="Group 3940" clip-path="url(#clip-path-4)">
            <g id="Group_11" data-name="Group 11" transform="translate(2.817 3.452)">
              <g id="Group_10" data-name="Group 10">
                <path id="Path_38" data-name="Path 38" d="M859.235,1175.949c2.647,3.085-6.961,2.381-12.319,2.45-4.713.063-5-1.163-4.349-3.827,1.043-4.268-1.22-5.471-.212-8.857,1.453-4.887,4.208-6.923,9.454-6.331C861.092,1160.43,857.133,1173.5,859.235,1175.949Z" transform="translate(-839.654 -1159.283)" fill="#37474f"/>
                <rect id="Rectangle_18" data-name="Rectangle 18" width="4.951" height="5.51" transform="matrix(1, -0.013, 0.013, 1, 8.721, 14.868)" fill="#ffdfae"/>
                <path id="Path_39-2" data-name="Path 39-2" d="M854.16,1191.32l-.034-2.551,4.951-.067.029,2.22s-.309.982-2.247,1.009A4.119,4.119,0,0,1,854.16,1191.32Z" transform="translate(-845.397 -1173.324)" fill="#f4ca92"/>
                <path id="Path_40" data-name="Path 40" d="M857.159,1177.8c-.14,3.281-3.437,6.368-6.11,6.394-2.365.025-6.221-3.111-6.729-5.866-.055-.3-1.307-.2-1.442-1.853-.126-1.542,1.1-.141,1.093-.33-.035-2.639.921-2.024,1.886-1.2,1.2,1.03,7.021.442,8.576-.228.82-.351,1.682.436,2.237,1.271.151.228.993-1.106,1.2-.291C858.221,1177.1,857.176,1177.411,857.159,1177.8Z" transform="translate(-840.025 -1166.419)" fill="#ffdfae"/>
                <path id="Path_41-2" data-name="Path 41-2" d="M858.278,1205.69c-.029-2.225-6.3-8.03-6.3-8.03l-6.741.172s-7.841,5.675-7.809,8.135Z" transform="translate(-837.429 -1177.598)" fill="#92aed9"/>
              </g>
            </g>
          </g>
        </g>
      </g>
    </g>
    <path id="Shape-3679" d="M814.428,1183.294l.014-10.389h10.617c4.628,0,8.38,3.2,8.38,7.141V1190.6s-3.068-.048-3.679,0H822.07C820.1,1190.6,814.428,1188.675,814.428,1183.294Z" transform="translate(-68.396 -843.563)" opacity="0.301" fill="url(#linear-gradient)" style="isolation: isolate"/>
    <g id="Profile-5" transform="translate(733.878 329.341)">
      <path id="Shape-3680" d="M798.315,1172.9h14a7.136,7.136,0,0,1,7.134,7.136v14a7.135,7.135,0,0,1-7.135,7.134h-14a7.136,7.136,0,0,1-7.135-7.136v-14A7.136,7.136,0,0,1,798.315,1172.9Z" transform="translate(-791.179 -1172.904)" fill="#11bc9b"/>
      <g id="Shape-3681" transform="translate(0)">
        <g id="Group_3943" data-name="Group 3943">
          <g id="Group_3942" data-name="Group 3942" clip-path="url(#clip-path-4)">
            <g id="Group_15" data-name="Group 15" transform="translate(2.817 3.452)">
              <g id="Group_14" data-name="Group 14">
                <path id="Path_43" data-name="Path 43" d="M818.425,1198.9c2.655,3.591-6.954,2.752-12.314,2.823-4.713.061-5-1.365-4.356-4.458,1.034-4.96-1.232-6.363-.233-10.3,1.444-5.677,4.194-8.039,9.442-7.339C820.249,1180.864,816.318,1196.047,818.425,1198.9Z" transform="translate(-798.808 -1179.508)" fill="#37474f"/>
                <path id="Path_243" data-name="Path 243" d="M813.251,1207.891l4.95-.064.072,5.509-4.951.064Z" transform="translate(-804.529 -1193.023)" fill="#ffdfae"/>
                <path id="Path_44" data-name="Path 44" d="M813.3,1211.545l-.034-2.552,4.951-.065.029,2.219s-.309.983-2.247,1.008A4.125,4.125,0,0,1,813.3,1211.545Z" transform="translate(-804.536 -1193.548)" fill="#f4ca92"/>
                <path id="Path_45" data-name="Path 45" d="M816.3,1195.706c-.14,3.281-3.437,6.367-6.11,6.393-2.365.024-6.22-3.111-6.729-5.867-.054-.3-1.307-.2-1.441-1.852-.126-1.543,1.1-.142,1.093-.331-.036-2.637,1.357-2.029,2.558-2.434a2.315,2.315,0,0,0,1.729-2.015C808.373,1193.553,816.5,1191.027,816.3,1195.706Z" transform="translate(-799.164 -1184.325)" fill="#ffdfae"/>
                <path id="Path_46" data-name="Path 46" d="M817.417,1225.917c-.029-2.226-6.3-8.031-6.3-8.031l-6.742.173s-7.842,5.674-7.809,8.134Z" transform="translate(-796.568 -1197.824)" fill="#eceff1"/>
              </g>
            </g>
          </g>
        </g>
      </g>
    </g>
    <g id="Profile-6" transform="translate(762.877 350.933)">
      <rect id="Shape-3682" width="28.268" height="28.268" rx="13.649" transform="translate(0 0)" fill="url(#linear-gradient-2)"/>
      <g id="Shape-3683" transform="translate(0 0)">
        <path id="Path_4897" data-name="Path 4897" d="M853.787,1214.208h14a7.137,7.137,0,0,1,7.134,7.136v14a7.136,7.136,0,0,1-7.135,7.134h-14a7.135,7.135,0,0,1-7.134-7.135v-14A7.137,7.137,0,0,1,853.787,1214.208Z" transform="translate(-846.652 -1214.208)" fill="#f5c1bc"/>
        <g id="Group_3945" data-name="Group 3945">
          <g id="Group_3944" data-name="Group 3944" clip-path="url(#clip-path-4)">
            <g id="Group_19" data-name="Group 19" transform="translate(2.817 5.302)">
              <g id="Group_18" data-name="Group 18">
                <path id="Path_47" data-name="Path 47" d="M860.61,1233.772c-2.823-11.145,3.435-6.374,7.8-9.373.433-.3,2.829.813,3.549,1.236,2.338,1.381,2.431,6.7.992,7.936C869.561,1236.486,861.237,1236.25,860.61,1233.772Z" transform="translate(-855.793 -1224.349)" fill="#37474f"/>
                <path id="Path_48" data-name="Path 48" d="M873.665,1256.895l-11.351.492,2.934-3.329.416-4.864,4.951-.066.245,4.8Z" transform="translate(-856.944 -1236.174)" fill="#ffdfae"/>
                <path id="Path_49" data-name="Path 49" d="M868.769,1252.848l-.034-2.551,4.951-.066.029,2.219s-.31.985-2.247,1.009A4.12,4.12,0,0,1,868.769,1252.848Z" transform="translate(-860.008 -1236.702)" fill="#ffe082"/>
                <path id="Path_50" data-name="Path 50" d="M872.886,1240.668c-.426,3.2-2.027,4.515-3.232,4.492-.945-.02-4.149.539-5.261-.234a5.314,5.314,0,0,1-2.553-3.863c-.055-.3-1.475.1-1.61-1.547-.125-1.543,1.14-.586,1.138-.776-.036-2.636,1.8-4.149,2.991-3.712,1.859.68,7.978-.139,8.526,3.215.068.41.536-.53.847.179C874.469,1240.1,872.961,1240.088,872.886,1240.668Z" transform="translate(-855.945 -1229.41)" fill="#ffdfae"/>
                <path id="Path_51" data-name="Path 51" d="M872.89,1267.219c-.029-2.227-6.3-8.03-6.3-8.03s-1.991,2.129-2.9,2.2c-1.083.09-3.843-2.029-3.843-2.029s-7.841,5.674-7.808,8.134Z" transform="translate(-852.041 -1240.976)" fill="#455a64"/>
                <path id="Path_52" data-name="Path 52" d="M870.425,1246.731h-4.438c-2.251,0-3.443-2.864-3.792-4.464a18.416,18.416,0,0,1-.407-5.735s.892,6.718,3.691,8.264c1.2.664,4.048.121,5.392.018,2.245-.172,3.009-10.756,3.009-8.318l-.3,5.274C873.583,1244.208,872.676,1246.731,870.425,1246.731Z" transform="translate(-856.66 -1229.972)" fill="#455a64"/>
              </g>
            </g>
          </g>
        </g>
      </g>
    </g>
    <g id="Table-3" transform="translate(682.816 408.007)">
      <path id="Shape-3684" d="M708.8,1364.22l-4.33,58.167h1.953l6.835-58.094Z" transform="translate(-698.738 -1342.873)" fill="#f9b25f"/>
      <path id="Shape-3685" d="M853.7,1364.22l4.329,58.167h-1.952l-6.835-58.094Z" transform="translate(-767.826 -1342.873)" fill="#f9b25f"/>
      <rect id="Shape-3686" width="84.397" height="2.204" transform="translate(5.792 21.283)" fill="#d8984d"/>
      <rect id="Shape-3687" width="93.498" height="3.481" transform="translate(0 18.382)" fill="#f9b25f"/>
      <g id="Laptop-6" transform="translate(32.296 0)">
        <path id="Shape-3688" d="M756.41,1323.385h26.3a1.305,1.305,0,0,1,1.127,1.423l1.879,15.536a1.3,1.3,0,0,1-1.127,1.423h-26.3a1.305,1.305,0,0,1-1.127-1.423l-1.879-15.536A1.306,1.306,0,0,1,756.41,1323.385Z" transform="translate(-755.283 -1323.385)" fill="#d8d6dd"/>
        <circle id="Shape-3689" cx="2.611" cy="2.611" r="2.611" transform="translate(12.513 6.465)" fill="#fff"/>
      </g>
    </g>
  </g>
</svg>
