<?xml version="1.0" encoding="utf-8"?>
<!-- Generator: Adobe Illustrator 23.0.4, SVG Export Plug-In . SVG Version: 6.00 Build 0)  -->
<svg version="1.1" id="Laag_1" xmlns="http://www.w3.org/2000/svg" xmlns:xlink="http://www.w3.org/1999/xlink" x="0px" y="0px"
	 width="690px" height="504.5px" viewBox="0 0 690 504.5" style="enable-background:new 0 0 690 504.5;" xml:space="preserve">
<style type="text/css">
	.st0{fill:#FFFFFF;}
	.st1{fill:#E73F29;}
	.st2{fill:#31B297;}
	.st3{fill:#F5C1BC;}
	.st4{fill:#384A9A;}
	.st5{fill:#20274D;}
</style>
<g>
	<g>
		<path class="st5" d="M102.4,407.9v38.6H96c-1.3,0-2.2-0.6-2.5-1.8l-0.7-2.7c-0.8,0.7-1.6,1.4-2.4,2.1s-1.7,1.2-2.6,1.6
			c-0.9,0.5-1.9,0.8-3,1s-2.3,0.4-3.5,0.4c-2.1,0-4-0.4-5.6-1.1s-3-1.7-4.1-3c-1.1-1.3-1.9-2.8-2.5-4.6c-0.6-1.8-0.9-3.8-0.9-5.9
			v-24.6h10.3v24.6c0,2.1,0.5,3.8,1.5,5c1,1.2,2.5,1.8,4.4,1.8c1.4,0,2.8-0.3,4.1-1s2.5-1.5,3.6-2.6v-27.8H102.4z"/>
		<path class="st5" d="M171.7,392.2v54.4h-9.9v-33.4c0-0.7,0-1.4,0.1-2.2c0-0.8,0.1-1.6,0.2-2.4L146.5,438c-0.9,1.6-2.2,2.4-3.9,2.4
			H141c-0.9,0-1.6-0.2-2.3-0.6c-0.7-0.4-1.2-1-1.6-1.8l-15.6-29.6c0.1,0.9,0.1,1.7,0.2,2.5c0,0.8,0.1,1.6,0.1,2.3v33.4h-9.9v-54.4
			h8.5c0.5,0,0.9,0,1.3,0c0.4,0,0.7,0.1,1,0.2c0.3,0.1,0.5,0.3,0.8,0.5c0.2,0.2,0.5,0.6,0.7,1l15.2,29c0.5,0.9,0.9,1.8,1.3,2.7
			c0.4,0.9,0.8,1.9,1.2,2.8c0.4-1,0.8-2,1.2-2.9c0.4-0.9,0.9-1.9,1.3-2.7l15.1-28.9c0.2-0.4,0.5-0.8,0.7-1c0.2-0.2,0.5-0.4,0.8-0.5
			c0.3-0.1,0.6-0.2,1-0.2c0.4,0,0.8,0,1.3,0H171.7z"/>
		<path class="st5" d="M179.9,413.3c2.3-2,4.8-3.6,7.5-4.6c2.7-1,5.7-1.5,8.9-1.5c2.3,0,4.4,0.4,6.2,1.1c1.8,0.8,3.3,1.8,4.6,3.1
			c1.3,1.3,2.2,2.9,2.9,4.8c0.7,1.8,1,3.9,1,6.1v24.3h-4.7c-1,0-1.7-0.1-2.2-0.4c-0.5-0.3-0.9-0.8-1.3-1.7L202,442
			c-1,0.9-1.9,1.6-2.8,2.2c-0.9,0.6-1.9,1.2-2.8,1.6c-1,0.4-2,0.8-3.1,1c-1.1,0.2-2.4,0.3-3.7,0.3c-1.7,0-3.2-0.2-4.6-0.7
			c-1.4-0.5-2.6-1.1-3.6-2c-1-0.9-1.8-2-2.3-3.3c-0.5-1.3-0.8-2.8-0.8-4.6c0-1.4,0.4-2.8,1.1-4.3c0.7-1.4,2-2.7,3.7-3.9
			s4.1-2.1,7-2.9c2.9-0.8,6.6-1.2,11-1.3v-2c0-2.4-0.5-4.2-1.5-5.3c-1-1.1-2.5-1.7-4.4-1.7c-1.4,0-2.6,0.2-3.6,0.5
			c-1,0.3-1.8,0.7-2.5,1.1c-0.7,0.4-1.4,0.7-2,1.1c-0.6,0.3-1.3,0.5-2.2,0.5c-0.7,0-1.3-0.2-1.8-0.5c-0.5-0.4-0.9-0.8-1.2-1.3
			L179.9,413.3z M201,430.4c-2.5,0.1-4.6,0.3-6.3,0.7c-1.7,0.3-3,0.7-4,1.2c-1,0.5-1.7,1.1-2.1,1.7c-0.4,0.6-0.6,1.3-0.6,2.1
			c0,1.5,0.4,2.6,1.3,3.2c0.8,0.6,2,0.9,3.5,0.9c1.7,0,3.2-0.3,4.5-0.9c1.3-0.6,2.5-1.6,3.8-2.9V430.4z"/>
		<path class="st5" d="M228.9,414.3c1.2-2.2,2.6-3.9,4.2-5.2c1.6-1.3,3.5-1.9,5.6-1.9c1.7,0,3.2,0.4,4.3,1.2l-0.7,7.6
			c-0.1,0.5-0.3,0.8-0.6,1c-0.3,0.2-0.6,0.3-1.1,0.3c-0.4,0-1-0.1-1.7-0.2c-0.8-0.1-1.4-0.2-2.1-0.2c-1,0-1.8,0.1-2.5,0.4
			c-0.7,0.3-1.4,0.7-2,1.2c-0.6,0.5-1.1,1.1-1.6,1.8s-0.9,1.5-1.3,2.5v23.7h-10.3v-38.6h6.1c1,0,1.8,0.2,2.2,0.6
			c0.4,0.4,0.7,1,0.9,1.9L228.9,414.3z"/>
		<path class="st5" d="M257.8,390.7v31.7h1.7c0.6,0,1.2-0.1,1.5-0.3c0.4-0.2,0.7-0.5,1.1-1l8.5-11.4c0.4-0.6,0.9-1,1.4-1.3
			c0.5-0.3,1.2-0.5,2-0.5h9.4L272.5,422c-0.9,1.2-1.9,2.1-3,2.8c0.6,0.4,1.1,0.9,1.5,1.4c0.4,0.5,0.8,1.1,1.2,1.8l12,18.6h-9.3
			c-0.8,0-1.5-0.1-2.1-0.4c-0.6-0.3-1-0.7-1.4-1.4l-8.7-14.2c-0.4-0.6-0.7-1-1.1-1.2s-0.9-0.3-1.7-0.3h-2.2v17.4h-10.3v-55.9H257.8z
			"/>
		<path class="st5" d="M294.7,428.9c0.3,3.6,1.4,6.3,3.1,7.9c1.7,1.7,4,2.5,6.8,2.5c1.4,0,2.7-0.2,3.7-0.5s1.9-0.7,2.7-1.1
			c0.8-0.4,1.5-0.8,2.1-1.1c0.6-0.3,1.3-0.5,1.9-0.5c0.8,0,1.4,0.3,1.9,0.9l3,3.7c-1.1,1.3-2.3,2.3-3.6,3.2c-1.3,0.8-2.7,1.5-4.1,2
			s-2.9,0.8-4.3,1c-1.4,0.2-2.8,0.3-4.2,0.3c-2.7,0-5.2-0.4-7.6-1.3c-2.3-0.9-4.4-2.2-6.1-3.9c-1.7-1.7-3.1-3.9-4.1-6.5
			c-1-2.6-1.5-5.6-1.5-9c0-2.6,0.4-5.1,1.3-7.4s2.1-4.3,3.7-6.1s3.6-3.1,5.9-4.1c2.3-1,4.9-1.5,7.9-1.5c2.5,0,4.8,0.4,6.8,1.2
			c2.1,0.8,3.9,1.9,5.4,3.4c1.5,1.5,2.7,3.3,3.5,5.5c0.8,2.2,1.3,4.7,1.3,7.5c0,0.8,0,1.4-0.1,1.9s-0.2,0.9-0.4,1.2
			s-0.4,0.5-0.7,0.6s-0.7,0.2-1.2,0.2H294.7z M311,422.7c0-1.1-0.1-2.1-0.4-3.1c-0.3-1-0.7-1.8-1.4-2.6c-0.6-0.8-1.4-1.3-2.4-1.8
			s-2.1-0.7-3.4-0.7c-2.5,0-4.4,0.7-5.8,2.1c-1.4,1.4-2.3,3.4-2.7,6H311z"/>
		<path class="st5" d="M366.5,446.6h-10.3v-31.2H339v20.2c0,1.1,0.3,1.9,0.8,2.5c0.5,0.6,1.2,0.9,2.2,0.9c0.5,0,0.9-0.1,1.3-0.2
			c0.4-0.1,0.6-0.2,0.9-0.4c0.2-0.1,0.5-0.3,0.7-0.4c0.2-0.1,0.4-0.2,0.7-0.2c0.3,0,0.5,0.1,0.7,0.2c0.2,0.1,0.4,0.4,0.6,0.7
			l3.1,4.9c-1.4,1.1-3,2-4.8,2.5s-3.7,0.9-5.6,0.9c-1.7,0-3.3-0.3-4.6-0.8s-2.5-1.2-3.4-2.2c-0.9-1-1.6-2.1-2.1-3.4
			c-0.5-1.3-0.7-2.9-0.7-4.6v-20.8h-3.6c-0.6,0-1-0.2-1.4-0.5c-0.4-0.3-0.6-0.9-0.6-1.6v-4l6.2-1.1l2.1-10c0.3-1.1,1-1.7,2.3-1.7
			h5.4v11.8h27.4V446.6z M368.1,396.9c0,0.8-0.2,1.7-0.5,2.4c-0.4,0.8-0.8,1.4-1.4,2s-1.3,1-2.1,1.3s-1.6,0.5-2.5,0.5
			c-0.8,0-1.7-0.2-2.4-0.5c-0.8-0.3-1.4-0.8-2-1.3c-0.6-0.6-1-1.2-1.4-2c-0.3-0.8-0.5-1.6-0.5-2.4c0-0.9,0.2-1.7,0.5-2.5
			c0.3-0.8,0.8-1.4,1.4-2c0.6-0.6,1.2-1,2-1.4c0.8-0.3,1.6-0.5,2.4-0.5c0.9,0,1.7,0.2,2.5,0.5c0.8,0.3,1.5,0.8,2.1,1.4
			c0.6,0.6,1.1,1.2,1.4,2C367.9,395.2,368.1,396,368.1,396.9z"/>
		<path class="st5" d="M384.9,412.4c0.8-0.8,1.6-1.4,2.4-2.1c0.8-0.6,1.7-1.2,2.7-1.6c0.9-0.5,1.9-0.8,3-1c1.1-0.2,2.3-0.4,3.5-0.4
			c2.1,0,4,0.4,5.6,1.1c1.6,0.7,3,1.7,4.1,3c1.1,1.3,1.9,2.8,2.5,4.6c0.6,1.8,0.8,3.8,0.8,5.9v24.6h-10.3V422c0-2.1-0.5-3.8-1.5-5
			c-1-1.2-2.5-1.8-4.4-1.8c-1.4,0-2.8,0.3-4.1,0.9c-1.3,0.6-2.5,1.5-3.6,2.6v27.8h-10.3v-38.6h6.4c1.3,0,2.2,0.6,2.6,1.8
			L384.9,412.4z"/>
		<path class="st5" d="M452.3,409.2v3.8c0,0.6-0.2,1.1-0.5,1.4c-0.3,0.4-0.9,0.6-1.7,0.8l-3.1,0.6c0.4,1.2,0.6,2.5,0.6,3.9
			c0,1.9-0.4,3.7-1.2,5.2s-1.9,2.8-3.2,3.9c-1.4,1.1-3,1.9-4.9,2.5c-1.9,0.6-3.9,0.9-6.1,0.9c-1.4,0-2.7-0.1-3.9-0.3
			c-1,0.7-1.6,1.4-1.6,2.1c0,0.7,0.4,1.2,1.1,1.6c0.7,0.3,1.6,0.6,2.8,0.7c1.2,0.1,2.5,0.2,4,0.3c1.5,0,3,0.1,4.5,0.2
			c1.5,0.1,3,0.3,4.5,0.7c1.5,0.3,2.8,0.8,4,1.5c1.2,0.7,2.1,1.7,2.8,2.8c0.7,1.2,1.1,2.7,1.1,4.5c0,1.7-0.4,3.4-1.3,5
			s-2.1,3.1-3.7,4.3c-1.6,1.3-3.6,2.3-5.9,3.1c-2.3,0.8-5,1.2-8,1.2c-3,0-5.6-0.3-7.7-0.8c-2.2-0.6-4-1.3-5.4-2.2
			c-1.4-0.9-2.5-2-3.2-3.2c-0.7-1.2-1-2.5-1-3.8c0-1.7,0.5-3.2,1.6-4.4c1-1.2,2.5-2.2,4.3-2.9c-1-0.5-1.8-1.3-2.3-2.2
			c-0.6-0.9-0.9-2-0.9-3.5c0-1.1,0.4-2.4,1.3-3.6s2.1-2.3,3.9-3.2c-2-1-3.5-2.5-4.7-4.2s-1.7-3.8-1.7-6.2c0-1.9,0.4-3.7,1.2-5.2
			c0.8-1.5,1.9-2.9,3.3-4s3-1.9,4.9-2.5c1.9-0.6,4-0.9,6.2-0.9c3.3,0,6.2,0.6,8.7,1.9H452.3z M442,448.2c0-0.7-0.2-1.2-0.6-1.6
			c-0.4-0.4-1-0.8-1.7-1c-0.7-0.2-1.6-0.4-2.5-0.5s-2-0.2-3.1-0.3c-1.1-0.1-2.2-0.1-3.4-0.2c-1.2,0-2.3-0.1-3.4-0.3
			c-0.9,0.5-1.6,1.1-2.2,1.9s-0.8,1.5-0.8,2.4c0,0.6,0.1,1.2,0.4,1.7c0.3,0.5,0.8,1,1.4,1.3s1.6,0.7,2.7,0.9s2.5,0.3,4.1,0.3
			c1.7,0,3.1-0.1,4.3-0.3c1.2-0.2,2.1-0.5,2.8-1c0.7-0.4,1.2-0.9,1.6-1.5C441.8,449.5,442,448.8,442,448.2z M432.2,425.8
			c2.1,0,3.7-0.5,4.7-1.6c1-1.1,1.5-2.5,1.5-4.2c0-1.8-0.5-3.2-1.5-4.2c-1-1-2.6-1.5-4.7-1.5s-3.7,0.5-4.7,1.5c-1,1-1.5,2.4-1.5,4.2
			c0,1.7,0.5,3.1,1.5,4.1C428.6,425.3,430.1,425.8,432.2,425.8z"/>
		<path class="st5" d="M488.5,402.6c-0.4,0.6-0.7,1-1.1,1.3c-0.4,0.3-0.8,0.4-1.4,0.4c-0.5,0-1.1-0.2-1.8-0.6
			c-0.6-0.4-1.4-0.8-2.2-1.3s-1.8-0.9-2.9-1.3c-1.1-0.4-2.4-0.6-3.9-0.6c-2.6,0-4.5,0.6-5.8,1.7c-1.3,1.2-1.9,2.7-1.9,4.6
			c0,1.2,0.4,2.2,1.1,3c0.7,0.8,1.6,1.5,2.8,2c1.2,0.6,2.5,1.1,4,1.5s3,0.9,4.5,1.5c1.5,0.5,3.1,1.2,4.5,1.9s2.8,1.6,4,2.7
			s2.1,2.4,2.8,4c0.7,1.6,1.1,3.5,1.1,5.8c0,2.5-0.4,4.8-1.3,7s-2.1,4-3.7,5.7c-1.6,1.6-3.6,2.9-6,3.8c-2.4,0.9-5.1,1.4-8.1,1.4
			c-1.7,0-3.4-0.2-5.2-0.5c-1.7-0.4-3.4-0.8-4.9-1.5c-1.6-0.6-3.1-1.4-4.5-2.2c-1.4-0.9-2.6-1.8-3.7-2.9l3.3-5.3
			c0.3-0.4,0.6-0.7,1.1-1c0.4-0.3,0.9-0.4,1.4-0.4c0.7,0,1.4,0.2,2.1,0.7c0.8,0.5,1.6,1,2.6,1.6s2.1,1.2,3.4,1.6
			c1.3,0.5,2.8,0.8,4.6,0.8c2.6,0,4.7-0.6,6.1-1.8c1.4-1.2,2.2-3,2.2-5.4c0-1.4-0.4-2.5-1.1-3.3c-0.7-0.8-1.6-1.6-2.8-2.1
			c-1.1-0.6-2.5-1.1-3.9-1.5c-1.5-0.4-3-0.9-4.5-1.4c-1.5-0.5-3.1-1.1-4.5-1.8c-1.5-0.7-2.8-1.6-3.9-2.8c-1.1-1.1-2.1-2.6-2.8-4.3
			c-0.7-1.7-1.1-3.8-1.1-6.3c0-2,0.4-4,1.2-5.9c0.8-1.9,2-3.6,3.5-5.1c1.5-1.5,3.5-2.7,5.7-3.6c2.3-0.9,4.9-1.3,7.8-1.3
			c3.3,0,6.3,0.5,9.1,1.5c2.8,1,5.1,2.4,7.1,4.2L488.5,402.6z"/>
		<path class="st5" d="M532.2,407.9v38.6h-6.4c-1.3,0-2.2-0.6-2.5-1.8l-0.7-2.7c-0.8,0.7-1.6,1.4-2.4,2.1c-0.8,0.6-1.7,1.2-2.6,1.6
			c-0.9,0.5-1.9,0.8-3,1s-2.3,0.4-3.5,0.4c-2.1,0-4-0.4-5.6-1.1s-3-1.7-4.1-3c-1.1-1.3-1.9-2.8-2.5-4.6c-0.6-1.8-0.9-3.8-0.9-5.9
			v-24.6h10.3v24.6c0,2.1,0.5,3.8,1.5,5c1,1.2,2.5,1.8,4.4,1.8c1.4,0,2.8-0.3,4.1-1s2.5-1.5,3.6-2.6v-27.8H532.2z"/>
		<path class="st5" d="M552.6,397c0,0.9-0.2,1.7-0.5,2.4c-0.3,0.7-0.8,1.4-1.4,2c-0.6,0.6-1.3,1-2.1,1.3c-0.8,0.3-1.6,0.5-2.5,0.5
			c-0.8,0-1.7-0.2-2.4-0.5c-0.8-0.3-1.4-0.8-2-1.3c-0.6-0.6-1-1.2-1.4-2c-0.3-0.8-0.5-1.6-0.5-2.4s0.2-1.7,0.5-2.5s0.8-1.4,1.4-2
			c0.6-0.6,1.2-1,2-1.3c0.8-0.3,1.6-0.5,2.4-0.5c0.9,0,1.7,0.2,2.5,0.5c0.8,0.3,1.5,0.8,2.1,1.3c0.6,0.6,1.1,1.2,1.4,2
			S552.6,396.1,552.6,397z M551.4,407.9v38.6H541v-38.6H551.4z"/>
		<path class="st5" d="M573.6,447.2c-1.8,0-3.3-0.3-4.6-0.8s-2.5-1.2-3.4-2.2c-0.9-1-1.6-2.1-2.1-3.4s-0.7-2.9-0.7-4.6v-20.8h-3.6
			c-0.5,0-1-0.2-1.4-0.5c-0.4-0.3-0.6-0.9-0.6-1.6v-4l6.2-1.1l2.1-10c0.3-1.1,1-1.7,2.3-1.7h5.4v11.8h10v7.2h-10v20.2
			c0,1.1,0.3,1.9,0.8,2.5c0.5,0.6,1.2,0.9,2.2,0.9c0.5,0,0.9-0.1,1.3-0.2c0.3-0.1,0.6-0.2,0.9-0.4c0.2-0.1,0.5-0.3,0.7-0.4
			c0.2-0.1,0.4-0.2,0.7-0.2c0.3,0,0.5,0.1,0.7,0.2c0.2,0.1,0.4,0.4,0.6,0.7l3.1,4.9c-1.4,1.1-3,2-4.8,2.5
			C577.4,446.9,575.5,447.2,573.6,447.2z"/>
		<path class="st5" d="M596.4,428.9c0.3,3.6,1.4,6.3,3.1,7.9c1.7,1.7,4,2.5,6.8,2.5c1.4,0,2.7-0.2,3.7-0.5c1-0.3,1.9-0.7,2.7-1.1
			c0.8-0.4,1.5-0.8,2.1-1.1c0.6-0.3,1.3-0.5,1.9-0.5c0.8,0,1.4,0.3,1.9,0.9l3,3.7c-1.1,1.3-2.3,2.3-3.6,3.2c-1.3,0.8-2.7,1.5-4.1,2
			c-1.4,0.5-2.9,0.8-4.3,1c-1.4,0.2-2.8,0.3-4.2,0.3c-2.7,0-5.2-0.4-7.6-1.3c-2.3-0.9-4.4-2.2-6.1-3.9c-1.7-1.7-3.1-3.9-4.1-6.5
			c-1-2.6-1.5-5.6-1.5-9c0-2.6,0.4-5.1,1.3-7.4s2.1-4.3,3.7-6.1c1.6-1.7,3.6-3.1,5.9-4.1c2.3-1,4.9-1.5,7.9-1.5
			c2.5,0,4.8,0.4,6.8,1.2c2.1,0.8,3.9,1.9,5.4,3.4c1.5,1.5,2.7,3.3,3.5,5.5c0.8,2.2,1.3,4.7,1.3,7.5c0,0.8,0,1.4-0.1,1.9
			s-0.2,0.9-0.4,1.2s-0.4,0.5-0.7,0.6s-0.7,0.2-1.2,0.2H596.4z M612.7,422.7c0-1.1-0.1-2.1-0.4-3.1c-0.3-1-0.7-1.8-1.4-2.6
			c-0.6-0.8-1.4-1.3-2.4-1.8c-1-0.4-2.1-0.7-3.4-0.7c-2.5,0-4.4,0.7-5.8,2.1c-1.4,1.4-2.3,3.4-2.7,6H612.7z"/>
	</g>
	<g>
		<g>
			<g>
				<path class="st4" d="M394.4,270.5c-12.9,12.9-30.6,20.8-50.2,20.8c-19,0-36.8-7.4-50.3-20.8C280.4,257,273,239.2,273,220.2l0-61
					c0-5.9,4.8-10.7,10.7-10.7c5.9,0,10.7,4.8,10.7,10.7v61c0,13.3,5.2,25.8,14.6,35.2c9.4,9.4,21.9,14.6,35.2,14.6
					c27.4,0,49.7-22.3,49.7-49.8l0-61.3c0-5.9,4.8-10.7,10.7-10.7c5.9,0,10.7,4.8,10.7,10.7v61.3
					C415.2,239.8,407.2,257.6,394.4,270.5z"/>
			</g>
		</g>
		<g>
			<g>
				<path class="st1" d="M365.9,242c-5.8,5.8-13.5,9-21.8,9c-17,0-30.8-13.8-30.8-30.8l0-20.9c0-5.9,4.8-10.7,10.7-10.7
					c5.9,0,10.7,4.8,10.7,10.7l0,20.9c0,5.2,4.2,9.5,9.5,9.5c2.5,0,4.9-1,6.7-2.8c0,0,0,0,0,0c1.8-1.8,2.8-4.2,2.8-6.7v-78.9
					c0-8.2,3.1-16,8.8-21.9c5.8-6.1,13.6-9.4,21.9-9.4c6.1,0,12.1,1.9,17.2,5.4c0.6,0.4,1.3,0.9,1.9,1.4c4.6,3.7,5.3,10.4,1.6,15
					c-3.7,4.6-10.4,5.3-15,1.6c-0.2-0.2-0.4-0.3-0.6-0.4c-1.1-0.7-2.8-1.6-5.1-1.6c-5.1,0-9.4,4.6-9.4,10l0,78.9
					C375,228.4,371.8,236.2,365.9,242C365.9,242,365.9,242,365.9,242z"/>
			</g>
		</g>
		<g>
			<g>
				<path class="st2" d="M331.6,170.7c-1.9,1.9-4.6,3.1-7.5,3.1c-5.9,0-10.7-4.8-10.7-10.7v-51.3c0-13.3-5.2-25.8-14.6-35.2
					c-4.2-4.2-4.2-10.9,0-15.1s10.9-4.2,15.1,0c13.4,13.4,20.8,31.3,20.8,50.3l0,51.3C334.7,166.1,333.5,168.7,331.6,170.7z"/>
			</g>
		</g>
		<g>
			<g>
				<path class="st3" d="M452.4,171c-1.9,1.9-4.6,3.1-7.5,3.1c-5.9,0-10.7-4.8-10.7-10.7v-42.9c0-5.9,4.8-10.7,10.7-10.7
					c5.9,0,10.7,4.8,10.7,10.7v42.9C455.5,166.5,454.3,169.1,452.4,171z"/>
			</g>
		</g>
		<g>
			<g>
				<path class="st2" d="M422.8,299c-21,21-48.9,32.6-78.7,32.6c-28.7,0-56-10.9-76.8-30.7c-4.3-4.1-4.4-10.8-0.4-15.1
					c4.1-4.3,10.8-4.4,15.1-0.4c16.8,16,38.9,24.8,62.1,24.8c24,0,46.6-9.4,63.6-26.3c0,0,0,0,0,0c17-17,26.4-39.7,26.4-63.7v-20.9
					c0-5.9,4.8-10.7,10.7-10.7c5.9,0,10.7,4.8,10.7,10.7l0,20.9C455.5,249.9,443.9,277.9,422.8,299C422.9,299,422.8,299,422.8,299z"
					/>
			</g>
		</g>
		<g>
			<g>
				<path class="st3" d="M262.7,274.9c-0.7,0.7-1.6,1.4-2.5,1.9c-5.2,2.8-11.7,0.8-14.4-4.4c-8.5-16-13-34-13-52.2l0-100.6
					c0-8.2,3.2-16,9-21.8c0,0,0,0,0,0c5.8-5.8,13.5-9,21.8-9c8.2,0,16,3.2,21.8,9c5.8,5.8,9,13.6,9,21.8v3.5
					c0,5.9-4.8,10.7-10.7,10.7c-5.9,0-10.7-4.8-10.7-10.7v-3.5c0-5.2-4.2-9.5-9.5-9.5c-5.2,0-9.5,4.3-9.5,9.5l0,100.6
					c0,14.7,3.6,29.3,10.5,42.2C266.8,266.6,265.9,271.7,262.7,274.9z"/>
			</g>
		</g>
	</g>
</g>
</svg>
