<svg xmlns="http://www.w3.org/2000/svg" xmlns:xlink="http://www.w3.org/1999/xlink" width="313" height="233.227" viewBox="0 0 313 233.227">
  <defs>
    <clipPath id="clip-path">
      <rect id="Rectangle_28" data-name="Rectangle 28" width="22.047" height="24.206" rx="1.582" fill="none"/>
    </clipPath>
    <clipPath id="clip-path-2">
      <rect id="Rectangle_34" data-name="Rectangle 34" width="22.047" height="24.206" rx="1.582" transform="translate(0 1.373) rotate(-3.571)" fill="none"/>
    </clipPath>
  </defs>
  <g id="Group_3742" data-name="Group 3742" transform="translate(-794.72 -219.172)">
    <path id="Background" d="M473.53,264.145c6.772-76.4,19.077-115.023-37.272-114.317-28.625.358-160.05,50.615-235.171,57.266-56.135,4.97-45.262,175.951,43.5,175.951S466.758,340.543,473.53,264.145Z" transform="translate(628.141 69.354)" fill="#1a254f" opacity="0.15"/>
    <g id="Browser" transform="translate(833.451 264.769)">
      <path id="Background-2" data-name="Background" d="M5.831,0H245.567A5.831,5.831,0,0,1,251.4,5.831v137.13a5.831,5.831,0,0,1-5.831,5.831H5.831A5.831,5.831,0,0,1,0,142.961V5.831A5.831,5.831,0,0,1,5.831,0Z" transform="translate(1.458 0.292)" fill="#e5e8f5"/>
      <path id="Background-3" data-name="Background" d="M5.831,0H245.567A5.831,5.831,0,0,1,251.4,5.831V141.5a5.831,5.831,0,0,1-5.831,5.831H5.831A5.831,5.831,0,0,1,0,141.5V5.831A5.831,5.831,0,0,1,5.831,0Z" transform="translate(0 0)" fill="#fff"/>
      <path id="Shape" d="M415.182,329.262l-.321-9.475a6.275,6.275,0,0,1,6.4-6.1H659.857a6.275,6.275,0,0,1,6.4,6.1l.321,9.475Z" transform="translate(-414.861 -313.687)" fill="#56557e"/>
      <circle id="Shape-2" data-name="Shape" cx="2.596" cy="2.596" r="2.596" transform="translate(8.027 5.276)" fill="#fa538d"/>
      <circle id="Shape-3" data-name="Shape" cx="2.596" cy="2.596" r="2.596" transform="translate(19.418 5.276)" fill="#fab353"/>
      <circle id="Shape-4" data-name="Shape" cx="2.596" cy="2.596" r="2.596" transform="translate(30.81 5.276)" fill="#9dc925"/>
      <g id="Content" transform="translate(199.947 24.271)">
        <path id="Shape-5" data-name="Shape" d="M1.394,0H40.667A1.394,1.394,0,0,1,42.06,1.394V114.513a1.394,1.394,0,0,1-1.394,1.394H1.394A1.394,1.394,0,0,1,0,114.513V1.394A1.394,1.394,0,0,1,1.394,0Z" transform="translate(0)" fill="#e5e8f5"/>
        <g id="Shape-6" data-name="Shape" transform="translate(3.371 7.946)">
          <path id="Shape-7" data-name="Shape" d="M1.166,0H11.692a1.166,1.166,0,0,1,1.166,1.166V12.951a1.166,1.166,0,0,1-1.166,1.166H1.166A1.166,1.166,0,0,1,0,12.951V1.166A1.166,1.166,0,0,1,1.166,0Z" fill="#fff"/>
          <path id="Shape-8" data-name="Shape" d="M1.166,0H11.692a1.166,1.166,0,0,1,1.166,1.166v.547A1.166,1.166,0,0,1,11.692,2.88H1.166A1.166,1.166,0,0,1,0,1.713V1.166A1.166,1.166,0,0,1,1.166,0Z" transform="translate(15.411 0.08)" fill="#fff"/>
          <path id="Shape-9" data-name="Shape" d="M1.166,0H20.04a1.166,1.166,0,0,1,1.166,1.166v.547A1.166,1.166,0,0,1,20.04,2.88H1.166A1.166,1.166,0,0,1,0,1.713V1.166A1.166,1.166,0,0,1,1.166,0Z" transform="translate(15.411 5.619)" fill="#fff"/>
          <path id="Shape-10" data-name="Shape" d="M1.166,0H20.04a1.166,1.166,0,0,1,1.166,1.166v.547A1.166,1.166,0,0,1,20.04,2.88H1.166A1.166,1.166,0,0,1,0,1.713V1.166A1.166,1.166,0,0,1,1.166,0Z" transform="translate(15.411 11.318)" fill="#fff"/>
        </g>
        <g id="Shape-11" data-name="Shape" transform="translate(3.371 27.211)">
          <path id="Shape-12" data-name="Shape" d="M1.166,0H11.692a1.166,1.166,0,0,1,1.166,1.166V12.951a1.166,1.166,0,0,1-1.166,1.166H1.166A1.166,1.166,0,0,1,0,12.951V1.166A1.166,1.166,0,0,1,1.166,0Z" fill="#fff"/>
          <path id="Shape-13" data-name="Shape" d="M1.166,0H11.692a1.166,1.166,0,0,1,1.166,1.166v.547A1.166,1.166,0,0,1,11.692,2.88H1.166A1.166,1.166,0,0,1,0,1.713V1.166A1.166,1.166,0,0,1,1.166,0Z" transform="translate(15.411 0.08)" fill="#fff"/>
          <path id="Shape-14" data-name="Shape" d="M1.166,0H20.04a1.166,1.166,0,0,1,1.166,1.166v.547A1.166,1.166,0,0,1,20.04,2.88H1.166A1.166,1.166,0,0,1,0,1.713V1.166A1.166,1.166,0,0,1,1.166,0Z" transform="translate(15.411 5.619)" fill="#fff"/>
          <path id="Shape-15" data-name="Shape" d="M1.166,0H20.04a1.166,1.166,0,0,1,1.166,1.166v.547A1.166,1.166,0,0,1,20.04,2.88H1.166A1.166,1.166,0,0,1,0,1.713V1.166A1.166,1.166,0,0,1,1.166,0Z" transform="translate(15.411 11.318)" fill="#fff"/>
        </g>
        <g id="Shape-16" data-name="Shape" transform="translate(3.312 46.475)">
          <path id="Shape-17" data-name="Shape" d="M1.166,0H11.692a1.166,1.166,0,0,1,1.166,1.166V12.951a1.166,1.166,0,0,1-1.166,1.166H1.166A1.166,1.166,0,0,1,0,12.951V1.166A1.166,1.166,0,0,1,1.166,0Z" fill="#fff"/>
          <path id="Shape-18" data-name="Shape" d="M1.166,0H11.692a1.166,1.166,0,0,1,1.166,1.166v.547A1.166,1.166,0,0,1,11.692,2.88H1.166A1.166,1.166,0,0,1,0,1.713V1.166A1.166,1.166,0,0,1,1.166,0Z" transform="translate(15.411 0.08)" fill="#fff"/>
          <path id="Shape-19" data-name="Shape" d="M1.166,0H20.04a1.166,1.166,0,0,1,1.166,1.166v.547A1.166,1.166,0,0,1,20.04,2.88H1.166A1.166,1.166,0,0,1,0,1.713V1.166A1.166,1.166,0,0,1,1.166,0Z" transform="translate(15.411 5.619)" fill="#fff"/>
          <path id="Shape-20" data-name="Shape" d="M1.166,0H20.04a1.166,1.166,0,0,1,1.166,1.166v.547A1.166,1.166,0,0,1,20.04,2.88H1.166A1.166,1.166,0,0,1,0,1.713V1.166A1.166,1.166,0,0,1,1.166,0Z" transform="translate(15.411 11.318)" fill="#fff"/>
        </g>
        <g id="Shape-21" data-name="Shape" transform="translate(3.312 65.739)">
          <path id="Shape-22" data-name="Shape" d="M1.166,0H11.692a1.166,1.166,0,0,1,1.166,1.166V12.951a1.166,1.166,0,0,1-1.166,1.166H1.166A1.166,1.166,0,0,1,0,12.951V1.166A1.166,1.166,0,0,1,1.166,0Z" fill="#fff"/>
          <path id="Shape-23" data-name="Shape" d="M1.166,0H11.692a1.166,1.166,0,0,1,1.166,1.166v.547A1.166,1.166,0,0,1,11.692,2.88H1.166A1.166,1.166,0,0,1,0,1.713V1.166A1.166,1.166,0,0,1,1.166,0Z" transform="translate(15.411 0.08)" fill="#fff"/>
          <path id="Shape-24" data-name="Shape" d="M1.166,0H20.04a1.166,1.166,0,0,1,1.166,1.166v.547A1.166,1.166,0,0,1,20.04,2.88H1.166A1.166,1.166,0,0,1,0,1.713V1.166A1.166,1.166,0,0,1,1.166,0Z" transform="translate(15.411 5.619)" fill="#fff"/>
          <path id="Shape-25" data-name="Shape" d="M1.166,0H20.04a1.166,1.166,0,0,1,1.166,1.166v.547A1.166,1.166,0,0,1,20.04,2.88H1.166A1.166,1.166,0,0,1,0,1.713V1.166A1.166,1.166,0,0,1,1.166,0Z" transform="translate(15.411 11.318)" fill="#fff"/>
        </g>
        <g id="Shape-26" data-name="Shape" transform="translate(3.312 85.003)">
          <path id="Shape-27" data-name="Shape" d="M1.166,0H11.692a1.166,1.166,0,0,1,1.166,1.166V12.951a1.166,1.166,0,0,1-1.166,1.166H1.166A1.166,1.166,0,0,1,0,12.951V1.166A1.166,1.166,0,0,1,1.166,0Z" fill="#fff"/>
          <path id="Shape-28" data-name="Shape" d="M1.166,0H11.692a1.166,1.166,0,0,1,1.166,1.166v.547A1.166,1.166,0,0,1,11.692,2.88H1.166A1.166,1.166,0,0,1,0,1.713V1.166A1.166,1.166,0,0,1,1.166,0Z" transform="translate(15.411 0.08)" fill="#fff"/>
          <path id="Shape-29" data-name="Shape" d="M1.166,0H20.04a1.166,1.166,0,0,1,1.166,1.166v.547A1.166,1.166,0,0,1,20.04,2.88H1.166A1.166,1.166,0,0,1,0,1.713V1.166A1.166,1.166,0,0,1,1.166,0Z" transform="translate(15.411 5.619)" fill="#fff"/>
          <path id="Shape-30" data-name="Shape" d="M1.166,0H20.04a1.166,1.166,0,0,1,1.166,1.166v.547A1.166,1.166,0,0,1,20.04,2.88H1.166A1.166,1.166,0,0,1,0,1.713V1.166A1.166,1.166,0,0,1,1.166,0Z" transform="translate(15.411 11.318)" fill="#fff"/>
        </g>
      </g>
      <path id="Shape-31" data-name="Shape" d="M624.149,564.188,441.02,566.317a1.527,1.527,0,0,1-1.614-1.425l-2.633-26.3a1.527,1.527,0,0,1,1.424-1.614l183.862-6.287a1.527,1.527,0,0,1,1.614,1.425l1.9,30.458A1.527,1.527,0,0,1,624.149,564.188Z" transform="translate(-430.552 -469.094)" fill="#bbc0d6"/>
      <g id="Content-2" data-name="Content" transform="translate(7.947 107.247)">
        <path id="Shape-32" data-name="Shape" d="M2.332,0h178.2a2.332,2.332,0,0,1,2.332,2.332v28.9a2.332,2.332,0,0,1-2.332,2.332H2.332A2.332,2.332,0,0,1,0,31.229V2.332A2.332,2.332,0,0,1,2.332,0Z" fill="#e5e8f5"/>
        <path id="Shape-33" data-name="Shape" d="M2.332,0H19.715a2.332,2.332,0,0,1,2.332,2.332V21.873a2.332,2.332,0,0,1-2.332,2.332H2.332A2.332,2.332,0,0,1,0,21.873V2.332A2.332,2.332,0,0,1,2.332,0Z" transform="translate(7.24 4.262)" fill="#f0f4fa"/>
        <rect id="Shape-34" data-name="Shape" width="83.713" height="4.937" rx="1.392" transform="translate(37.099 4.4)" fill="#fff"/>
        <rect id="Shape-35" data-name="Shape" width="138.06" height="4.937" rx="1.787" transform="translate(37.099 13.896)" fill="#fff"/>
        <rect id="Shape-36" data-name="Shape" width="138.06" height="4.937" rx="1.787" transform="translate(37.099 23.668)" fill="#fff"/>
        <g id="Shape-37" data-name="Shape" transform="translate(7.24 4.262)" clip-path="url(#clip-path)">
          <path id="Path_4" data-name="Path 4" d="M475.647,728.786a4.974,4.974,0,1,0-4.382-.141c-6.725.5-11.951,4.234-11.951,8.771,0,4.877,6.037,8.83,13.485,8.83s13.485-3.953,13.485-8.83C486.284,733.18,481.726,729.642,475.647,728.786Z" transform="translate(-461.882 -715.662)" fill="#8f97b9"/>
        </g>
      </g>
      <g id="Content-3" data-name="Content" transform="translate(6.21 52.738)">
        <path id="Shape-38" data-name="Shape" d="M2.332,0h178.2a2.332,2.332,0,0,1,2.332,2.332v28.9a2.332,2.332,0,0,1-2.332,2.332H2.332A2.332,2.332,0,0,1,0,31.229V2.332A2.332,2.332,0,0,1,2.332,0Z" transform="translate(0 11.389) rotate(-3.571)" fill="#e5e8f5"/>
        <path id="Shape-39" data-name="Shape" d="M2.332,0H19.715a2.332,2.332,0,0,1,2.332,2.332V21.873a2.332,2.332,0,0,1-2.332,2.332H2.332A2.332,2.332,0,0,1,0,21.873V2.332A2.332,2.332,0,0,1,2.332,0Z" transform="translate(7.491 15.192) rotate(-3.571)" fill="#f0f4fa"/>
        <rect id="Shape-40" data-name="Shape" width="83.713" height="4.937" rx="1.392" transform="translate(37.301 13.47) rotate(-3.571)" fill="#fff"/>
        <rect id="Shape-41" data-name="Shape" width="138.06" height="4.937" rx="1.787" transform="translate(37.893 22.948) rotate(-3.571)" fill="#fff"/>
        <rect id="Shape-42" data-name="Shape" width="138.06" height="4.937" rx="1.787" transform="translate(38.501 32.701) rotate(-3.571)" fill="#fff"/>
        <g id="Shape-43" data-name="Shape" transform="translate(7.491 13.819)" clip-path="url(#clip-path-2)">
          <path id="Path_8" data-name="Path 8" d="M485.762,580.439c-.264-4.228-5.033-7.476-11.154-7.951a4.974,4.974,0,1,0-4.382.133c-6.681.917-11.664,4.971-11.381,9.5.3,4.867,6.576,8.436,14.009,7.972S486.065,585.305,485.762,580.439Z" transform="translate(-460.053 -558.873)" fill="#8f97b9"/>
        </g>
      </g>
    </g>
    <g id="Person" transform="translate(1008.25 340.102)">
      <ellipse id="Shape-44" data-name="Shape" cx="20.337" cy="5.517" rx="20.337" ry="5.517" transform="translate(0 90.192)" fill="#1a254f" opacity="0.15"/>
      <path id="Shape-45" data-name="Shape" d="M1078.007,593.718s-.318,14.3,1.609,17.157c1.673,2.476,8.7,11.223,8.7,11.223l5.738-5.907s-5.286-5.613-9.116-7.607l-5.006-14.866Z" transform="translate(-1064.562 -589.566)" fill="#ffdfae"/>
      <path id="Shape-46" data-name="Shape" d="M1090.937,655.595c2.672,3.65,6.505,8.777,6.505,8.777l7.149-6.069s-3.784-3.3-7.564-6.055C1096,651.5,1090.542,655.055,1090.937,655.595Z" transform="translate(-1073.822 -631.409)" fill="#9499ea"/>
      <path id="Shape-47" data-name="Shape" d="M1079.895,581.992c-.369,1.359-1.333,2.279-2.154,2.054s-1.1-1.624-.818-2.868c.292-1.285,1.333-2.279,2.153-2.054S1080.263,580.632,1079.895,581.992Z" transform="translate(-1063.723 -579.092)" fill="#ffdfae"/>
      <path id="Shape-48" data-name="Shape" d="M1113.828,902.928c.361-.11,1.245.357,1.811-.344,1.234-1.53,4.156,1.275,4.156,1.275a14.132,14.132,0,0,1-.13,2.515c-.082.3-1.929.391-2.554.207-.651-.191-.736-.946-1.375-1.188-1.1-.418-1.543-.454-1.892-1.072C1113.423,903.575,1113.514,903.024,1113.828,902.928Z" transform="translate(-1090.038 -810.436)" fill="#37474f"/>
      <path id="Shape-49" data-name="Shape" d="M1113.828,902.928c.361-.11,1.245.357,1.811-.344,1.234-1.53,4.156,1.275,4.156,1.275s.02,1.266-.055,2.077c-.01.112-2.63.645-3.308-.612-.253-.468-1.195-.284-1.811-.689a2.21,2.21,0,0,1-1.06-1.24C1113.567,903.144,1113.669,902.977,1113.828,902.928Z" transform="translate(-1090.038 -810.436)" fill="#fff"/>
      <path id="Shape-50" data-name="Shape" d="M1120.634,800.315c-.815.829-4.161-1.331-4.161-1.331s-.59-3.868.767-4.622c1.152-.64.183-1.968.5-3.868.457-2.723.982-6.382-.59-9.841-2.715-5.974-2.218-23.752-2.218-23.752s9.56.282,9.595.335c2.565,3.883-4.5,12.459-1.954,22.336.752,2.917.011,8.18.126,10.922C1122.906,795.4,1122.1,798.82,1120.634,800.315Z" transform="translate(-1090.995 -706.43)" fill="#37474f"/>
      <path id="Shape-51" data-name="Shape" d="M1070.232,903.22s5.1-1.154,6.382.936a16.845,16.845,0,0,1,.264,3.153s-6.28.611-8.506.611c-.874,0-3.106-.476-3.774-1.246-.239-.275-.078-1.492.207-1.454A5.907,5.907,0,0,0,1070.232,903.22Z" transform="translate(-1054.891 -810.991)" fill="#37474f"/>
      <path id="Shape-52" data-name="Shape" d="M1071.016,903.22s5.1-1.154,6.382.936a6.48,6.48,0,0,1,.218,1.716c.022.43-5.484,1.222-8.912.9-2.488-.233-3.234-1.569-3.114-1.553A5.907,5.907,0,0,0,1071.016,903.22Z" transform="translate(-1055.674 -810.991)" fill="#fff"/>
      <path id="Shape-53" data-name="Shape" d="M1086.928,799.31c-.516,1.519-6-.924-6-.924a4.037,4.037,0,0,1,.812-2.66c.639-1.006-.145-2.308-.164-4.12-.043-4.174-1.488-9.156-2.456-13.762-.175-.833.839-1.751.853-2.336a36.171,36.171,0,0,1,5.559-18.205s7.312-1.99,8.083,0c2.9,7.486-9.857,18.949-8.837,21.156,3.274,7.086,1.291,13.827,2.025,15.832A15.162,15.162,0,0,1,1086.928,799.31Z" transform="translate(-1065.357 -706.086)" fill="#37474f"/>
      <path id="Shape-54" data-name="Shape" d="M1124.788,651.452H1117.8v-8.245l6.9-.731Z" transform="translate(-1093.078 -624.485)" fill="#ffdfae"/>
      <path id="Shape-55" data-name="Shape" d="M1117.123,609.2a8.886,8.886,0,0,1-.951,6.277c-.88,1.261-2.218-.407-3.918-.486-4.943-.23-6.168-7.71-6.433-8.413-.749-1.984,7.624-5.068,10.779-.281C1117.126,607.1,1116.914,607.912,1117.123,609.2Z" transform="translate(-1084.462 -596.756)" fill="#37474f"/>
      <path id="Shape-56" data-name="Shape" d="M1117.8,641.08v-4.37l6.834-2.682.083,4.248Z" transform="translate(-1093.078 -618.434)" fill="#f4ca92"/>
      <path id="Shape-57" data-name="Shape" d="M1116.375,616.873c.154,1.585.408.883-.249,2.268-.78,1.644-1.171,2.978-1.545,3.267-.983.761-3.137,2.605-4.325,2.525-2.408-.162-2.523-1.936-3.275-3.514-.344-.722-1.237.077-1.269-.833-.044-1.24.624-3.769.385-5.055-.2-1.055-.322-1.84-.322-1.84,1.568.024,4.234,1.252,8.2,0,.379-.119.568,2.45.838,2.747.474.521.087-.622.748-.508C1115.566,615.931,1116.281,615.9,1116.375,616.873Z" transform="translate(-1084.416 -603.868)" fill="#ffdfae"/>
      <path id="Shape-58" data-name="Shape" d="M1067.174,629.481s-2.15,16.053,1.175,16.905c2.887.74,13.93,2.648,13.93,2.648l.456-7.884s-7.671-.737-11.871.229l-2.13-12.14Z" transform="translate(-1056.329 -615.006)" fill="#ffdfae"/>
      <path id="Shape-59" data-name="Shape" d="M1088.556,687.5c2.244,2.6,14.25,1.214,14.25,1.214s4.419-24.438-1.505-30.261c-.249-.245-1.412,0-1.412,0-3.984,0-6.92,1.042-8.879,3.044a27.172,27.172,0,0,0-4.44.264c-.982.531-3.1,4.924-2.762,6.132l4.254,1.022q-.076.9-.076,1.883Z" transform="translate(-1068.704 -635.849)" fill="#adadea"/>
      <path id="Shape-60" data-name="Shape" d="M1069.714,619.763c-.369,1.3-1.333,2.185-2.153,1.969s-1.1-1.557-.818-2.75c.292-1.232,1.333-2.185,2.154-1.97S1070.083,618.46,1069.714,619.763Z" transform="translate(-1056.433 -606.227)" fill="#ffdfae"/>
    </g>
    <g id="Person-2" data-name="Person" transform="translate(835.025 341.067)">
      <path id="Shape-61" data-name="Shape" d="M519.163,907.048H515.7s-1.205,2.688-.223,3.289c0,0,3.088.174,3.69-.148,1.2-.64,3-1.7,2.866-2.261C521.849,907.164,519.163,907.048,519.163,907.048Z" transform="translate(-488.213 -814.925)" fill="#37474f"/>
      <path id="Shape-62" data-name="Shape" d="M477.6,793.428h-3.531c-3.535-14.856-3.535-22.512-3.535-22.512l-2.565-9.648-3.211,12.507c.321,5.718-2.261,19.708-2.261,19.708l-4.079-.054-1.366-19.3,1.284-25.728H477.6Z" transform="translate(-446.65 -701.31)" fill="#92aed9"/>
      <path id="Shape-63" data-name="Shape" d="M551.99,650.853s-3.646,8.255-7.568,9.467c-2.922.9-9.9-1.444-9.9-1.444l1.236-4.9,7.465,1.728,7.021-5.131Z" transform="translate(-502.128 -631.245)" fill="#f6b89f"/>
      <path id="Shape-64" data-name="Shape" d="M485.989,640h-9.108l1.506-7.775h6.41Z" transform="translate(-460.851 -618.106)" fill="#f6b89f"/>
      <path id="Shape-65" data-name="Shape" d="M425.027,590.707s-4.737,11.229-4.619,14.418c.18,4.856,8.217,8.04,8.217,8.04l-1.079-6.027-3.532-2.882,2.044-12.107Z" transform="translate(-420.406 -588.375)" fill="#f6b89f"/>
      <path id="Shape-66" data-name="Shape" d="M462.754,675.234c-2.788,4.257-22.475,0-22.475,0,4.816-4.763,3.532-20.172,3.532-20.172L436.77,648.4l1.169-5.908s6.3,2.36,7.8,2.209a64.586,64.586,0,0,1,11.88,0c1.22.168,11.031,3.92,11.031,3.92l-1,5.647-5-1.3S464.039,673.273,462.754,675.234Z" transform="translate(-432.125 -625.457)" fill="#ff6369"/>
      <path id="Shape-67" data-name="Shape" d="M463.8,907.048H460.33s-1.2,2.688-.223,3.289c0,0,3.089.174,3.691-.148,1.2-.64,3-1.7,2.865-2.261C466.483,907.164,463.8,907.048,463.8,907.048Z" transform="translate(-448.562 -814.925)" fill="#37474f"/>
      <path id="Shape-68" data-name="Shape" d="M590.058,645.956c-.7,1.224-1.861,1.873-2.6,1.45-.531-.3-.639-1.125-.441-1.985.078-.336,1.245.09,1.409-.228.6-1.171.534-1.082,1.385-1.055C590.725,644.167,590.755,644.732,590.058,645.956Z" transform="translate(-539.66 -626.63)" fill="#f6b89f"/>
      <path id="Shape-69" data-name="Shape" d="M434.2,583.845c.412-1.347.586-1.505,1.4-1.255l.277,3.676C435,586.511,433.791,585.192,434.2,583.845Z" transform="translate(-430.227 -582.491)" fill="#f6b89f"/>
      <path id="Shape-70" data-name="Shape" d="M485,604c-1.489,4.148-.375,3.8-3.758,3.8-6.018,0-7.19-2.968-7.19-7.41s2.495-5.792,5.752-6.767C485.006,592.067,486.6,599.553,485,604Z" transform="translate(-458.826 -590.313)" fill="#694a52"/>
    </g>
  </g>
</svg>
