<svg viewBox="0 0 139.514 139.5">
  <path fill="rgba(255,255,255,0.1)" d="m131.429 37.217 6.477-6.477a5.457 5.457 0 0 0-3.836-9.317h-15.993V5.48a5.457 5.457 0 0 0-9.317-3.836l-6.477 6.477A68.906 68.906 0 0 0 69.75 0a69.8 69.8 0 1 0 61.679 37.217ZM112.6 32.334h8.27l-10.516 10.512h-13.7v-13.7l10.512-10.512V26.9a5.443 5.443 0 0 0 5.434 5.434Zm-42.85 96.255a58.839 58.839 0 1 1 24.412-112.4l-6.826 6.826a5.35 5.35 0 0 0-1.594 3.836v19.184L65.914 65.864a5.461 5.461 0 0 0 7.722 7.722l19.829-19.829H112.6a5.472 5.472 0 0 0 3.836-1.594l6.826-6.826a58.879 58.879 0 0 1-53.512 83.252ZM112.7 69.75A42.946 42.946 0 1 1 69.75 26.8a5.431 5.431 0 0 1 0 10.861 32.085 32.085 0 1 0 32.085 32.089 5.431 5.431 0 0 1 10.861 0Z"/>
  <path fill="#3444b2" d="M69.75 3a66.453 66.453 0 0 0-37.337 11.388A66.851 66.851 0 0 0 8.239 43.751a66.738 66.738 0 0 0 6.149 63.336 66.851 66.851 0 0 0 29.363 24.174 66.738 66.738 0 0 0 63.336-6.149 66.85 66.85 0 0 0 24.174-29.363 66.7 66.7 0 0 0-2.483-57.128l-1.038-1.959 8.044-8.044a2.458 2.458 0 0 0-1.715-4.2h-18.992V5.48a2.458 2.458 0 0 0-2.5-2.445 2.339 2.339 0 0 0-1.7.73l-8.051 8.051-1.963-1.05a65.584 65.584 0 0 0-15.037-5.794A66.437 66.437 0 0 0 69.75 3m.025 69.193a2.448 2.448 0 0 0 1.74-.728l20.708-20.708H112.6a2.479 2.479 0 0 0 1.715-.716l9.879-9.879 1.8 3.926a61.8 61.8 0 0 1-56.236 87.5 61.839 61.839 0 1 1 0-123.678 61.242 61.242 0 0 1 25.661 5.553l3.926 1.8-9.879 9.879a2.349 2.349 0 0 0-.716 1.715v20.421L68.035 67.985a2.468 2.468 0 0 0 1.74 4.208M111.6 45.846H93.654V27.9l16.512-16.512V26.9a2.433 2.433 0 0 0 2.431 2.431h15.513L111.6 45.846M69.75 29.8A39.961 39.961 0 0 0 29.8 69.75a39.946 39.946 0 1 0 79.892 0 2.431 2.431 0 0 0-4.861 0A35.085 35.085 0 1 1 69.75 34.665a2.431 2.431 0 0 0 0-4.861m0-29.8a68.906 68.906 0 0 1 32.533 8.121l6.477-6.477a5.457 5.457 0 0 1 9.317 3.836v15.939h15.993a5.458 5.458 0 0 1 3.836 9.317l-6.477 6.477A69.738 69.738 0 1 1 69.75 0Zm.025 75.193a5.468 5.468 0 0 1-3.861-9.329l19.829-19.833V26.854a5.35 5.35 0 0 1 1.594-3.836l6.826-6.826a58.83 58.83 0 1 0 29.1 29.146l-6.826 6.826a5.472 5.472 0 0 1-3.836 1.594H93.465L73.636 73.586a5.443 5.443 0 0 1-3.861 1.607Zm40.58-32.347 10.512-10.512H112.6a5.443 5.443 0 0 1-5.431-5.431v-8.27L96.654 29.146v13.7ZM69.75 26.8a5.431 5.431 0 0 1 0 10.861 32.085 32.085 0 1 0 32.085 32.089 5.431 5.431 0 0 1 10.861 0A42.946 42.946 0 1 1 69.75 26.8Z"/>
</svg>
