<svg xmlns="http://www.w3.org/2000/svg" xmlns:xlink="http://www.w3.org/1999/xlink" width="119.831" height="90" viewBox="0 0 119.831 90">
  <defs>
    <clipPath id="clip-path">
      <rect id="Rectangle_3081" data-name="Rectangle 3081" width="36.681" height="9.525" fill="none"/>
    </clipPath>
    <clipPath id="clip-path-2">
      <path id="Path_4916" data-name="Path 4916" d="M6.081,0a6.081,6.081,0,0,1,6.081,6.081v7.728H0V6.081A6.081,6.081,0,0,1,6.081,0Z" fill="none"/>
    </clipPath>
    <radialGradient id="radial-gradient" cx="-77.239" cy="-14.279" r="1.032" gradientTransform="translate(-4.868 0) scale(0.933 1)" gradientUnits="objectBoundingBox">
      <stop offset="0.219" stop-color="#e7e7e7"/>
      <stop offset="0.883" stop-color="#fff"/>
    </radialGradient>
  </defs>
  <g id="Marketing_tool_to_increase_sales" data-name="Marketing tool to increase sales" transform="translate(-89.259 -20.968)">
    <path id="Background" d="M95.9,141.125c-13.569,16.639-6.938,31.6,25.506,31.912,14.791.142,20.531,14.452,42.576,4.5,21.812-9.851,32.556,5.03,40.249-3.982,4.978-5.831,5.448-31.3,4.415-39.8C206.219,113.824,184.457,98.931,164,98.931c-15.71,0-23.647,19.07-45.823,17.59C102.282,115.459,104.988,129.976,95.9,141.125Z" transform="translate(0 -70.086)" fill="#f2f5f8"/>
    <g id="Monitor" transform="translate(106.83 38.475)">
      <path id="Shape" d="M584.157,759.666H556.595l6.473-20.056h14.423Z" transform="translate(-531.862 -696.791)" fill="#bfbfbf"/>
      <path id="Shape-2" data-name="Shape" d="M2.762,0H74.238A2.762,2.762,0,0,1,77,2.762V41.668a2.762,2.762,0,0,1-2.762,2.762H2.762A2.762,2.762,0,0,1,0,41.668V2.762A2.762,2.762,0,0,1,2.762,0Z" fill="#37474f"/>
      <path id="Shape-3" data-name="Shape" d="M1.841,0H71.068a1.841,1.841,0,0,1,1.841,1.841V35.348a1.841,1.841,0,0,1-1.841,1.841H1.841A1.841,1.841,0,0,1,0,35.348V1.841A1.841,1.841,0,0,1,1.841,0Z" transform="translate(2.045 1.848)" fill="#56557e"/>
      <path id="Shape-4" data-name="Shape" d="M399.854,322.519H330.821a1.944,1.944,0,0,1-1.938-1.938V289.452h72.909v31.129A1.944,1.944,0,0,1,399.854,322.519Z" transform="translate(-326.838 -283.485)" fill="#f2f5f8"/>
      <path id="Shape-5" data-name="Shape" d="M1.733,0h44.83a1.733,1.733,0,1,1,0,3.466H1.733A1.733,1.733,0,0,1,1.733,0Z" transform="translate(14.352 60.75)" fill="#d8d6dd"/>
      <circle id="Shape-6" data-name="Shape" cx="1.289" cy="1.289" r="1.289" transform="translate(37.211 40.412)" fill="#fff"/>
      <circle id="Shape-7" data-name="Shape" cx="0.867" cy="0.867" r="0.867" transform="translate(4.028 3.032)" fill="#fa538d"/>
      <circle id="Shape-8" data-name="Shape" cx="0.867" cy="0.867" r="0.867" transform="translate(7.44 3.032)" fill="#fab353"/>
      <circle id="Shape-9" data-name="Shape" cx="0.867" cy="0.867" r="0.867" transform="translate(10.851 3.032)" fill="#9dc925"/>
      <g id="Content" transform="translate(2.045 5.969)">
        <path id="Shape-11" data-name="Shape" d="M0,0H72.909V4.733H0Z" fill="#99acd5"/>
        <path id="Shape-12" data-name="Shape" d="M.46,0H36.431a.46.46,0,0,1,.46.46v1.87a.46.46,0,0,1-.46.46H.46A.46.46,0,0,1,0,2.331V.46A.46.46,0,0,1,.46,0Z" transform="translate(18.182 0.971)" fill="#fff"/>
        <path id="Shape-13" data-name="Shape" d="M343.9,302.831v-.185a1.182,1.182,0,0,1,1-1.3h9.641a1.182,1.182,0,0,1,1,1.3v.185a1.182,1.182,0,0,1-1,1.3H344.9A1.182,1.182,0,0,1,343.9,302.831Z" transform="translate(-342.672 -300.372)" fill="#fff"/>
        <rect id="Shape-14" data-name="Shape" width="36.681" height="15.446" transform="translate(18.271 6.603)" fill="#fff"/>
        <path id="Shape-15" data-name="Shape" d="M0,0H36.681V9.525H0Z" transform="translate(18.275 23.54)" fill="#fff"/>
        <path id="Shape-16" data-name="Shape" d="M1032.334,396.056c.1-.081.093-.477.093-.477V369.742h-13.981v26.493h12.063l.879-.006A1.906,1.906,0,0,0,1032.334,396.056Z" transform="translate(-961.997 -363.172)" fill="#fff"/>
        <path id="Shape-17" data-name="Shape" d="M1026.292,396.056a1.623,1.623,0,0,0,.053-.477V369.742h-7.9v26.493h6.815l.5-.006S1026.15,396.261,1026.292,396.056Z" transform="translate(-1009.641 -363.172)" fill="#fff"/>
        <circle id="Shape-18" data-name="Shape" cx="1.046" cy="1.046" r="1.046" transform="translate(56.929 1.321)" fill="#fff"/>
        <circle id="Shape-19" data-name="Shape" cx="1.046" cy="1.046" r="1.046" transform="translate(60.439 1.321)" fill="#fff"/>
        <g id="Group_2586" data-name="Group 2586" transform="translate(18.275 23.54)" clip-path="url(#clip-path)">
          <g id="Group_2585" data-name="Group 2585" transform="translate(16.741 5.158)">
            <g id="Group_2584" data-name="Group 2584" transform="translate(0 0)">
              <path id="Path_800" data-name="Path 800" d="M756.623,654.1l4.265,2.226-4.265,2.225Z" transform="translate(-756.623 -654.099)" fill="#839fdb"/>
            </g>
          </g>
        </g>
        <circle id="Shape-20" data-name="Shape" cx="1.046" cy="1.046" r="1.046" transform="translate(63.904 1.321)" fill="#fff"/>
        <g id="Shape-21" data-name="Shape" transform="translate(47.529 7.648)">
          <path id="Path_4919" data-name="Path 4919" d="M.46,0H5.57a.46.46,0,0,1,.46.46V2.321a.46.46,0,0,1-.46.46H.46A.46.46,0,0,1,0,2.321V.46A.46.46,0,0,1,.46,0Z" transform="translate(0 0)" fill="#92aed9"/>
          <path id="Path_802" data-name="Path 802" d="M934.838,390.55h-.208a.092.092,0,0,1-.058-.017.1.1,0,0,1-.032-.044l-.108-.3h-.6l-.108.3a.1.1,0,0,1-.031.042.089.089,0,0,1-.057.019h-.209l.568-1.446h.275ZM933.9,390h.461l-.176-.481q-.012-.032-.026-.075t-.028-.095q-.014.051-.028.1c-.009.029-.018.055-.026.077Z" transform="translate(-932.369 -388.484)" fill="#fff"/>
          <path id="Path_803" data-name="Path 803" d="M950.311,389.827a.782.782,0,0,1-.053.292.656.656,0,0,1-.38.378.812.812,0,0,1-.3.053h-.552V389.1h.552a.8.8,0,0,1,.3.054.677.677,0,0,1,.231.149.666.666,0,0,1,.149.229A.782.782,0,0,1,950.311,389.827Zm-.275,0a.666.666,0,0,0-.032-.214.454.454,0,0,0-.091-.16.393.393,0,0,0-.144-.1.494.494,0,0,0-.19-.035H949.3v1.018h.281a.492.492,0,0,0,.19-.035.392.392,0,0,0,.144-.1.454.454,0,0,0,.091-.16A.665.665,0,0,0,950.035,389.827Z" transform="translate(-946.408 -388.484)" fill="#fff"/>
          <path id="Path_804" data-name="Path 804" d="M963.761,389.222a.076.076,0,0,1-.026.031.064.064,0,0,1-.035.009.087.087,0,0,1-.045-.015l-.059-.035a.49.49,0,0,0-.08-.034.333.333,0,0,0-.108-.016.317.317,0,0,0-.1.014.2.2,0,0,0-.07.038.151.151,0,0,0-.043.057.189.189,0,0,0-.014.074.128.128,0,0,0,.029.085.235.235,0,0,0,.076.058.7.7,0,0,0,.107.043l.123.041a1.185,1.185,0,0,1,.122.05.425.425,0,0,1,.107.072.325.325,0,0,1,.076.107.369.369,0,0,1,.029.153.5.5,0,0,1-.034.184.424.424,0,0,1-.1.149.461.461,0,0,1-.158.1.579.579,0,0,1-.213.037.68.68,0,0,1-.136-.014.716.716,0,0,1-.129-.038.675.675,0,0,1-.115-.06.562.562,0,0,1-.1-.078l.078-.129a.1.1,0,0,1,.027-.024.065.065,0,0,1,.034-.009.1.1,0,0,1,.054.021l.068.045a.52.52,0,0,0,.093.046.358.358,0,0,0,.129.021.264.264,0,0,0,.178-.054.2.2,0,0,0,.063-.157.146.146,0,0,0-.028-.093.233.233,0,0,0-.076-.061.573.573,0,0,0-.107-.042l-.122-.037a1.053,1.053,0,0,1-.122-.048.393.393,0,0,1-.107-.073.334.334,0,0,1-.076-.113.43.43,0,0,1-.028-.167.4.4,0,0,1,.123-.287.457.457,0,0,1,.149-.093.541.541,0,0,1,.2-.035.677.677,0,0,1,.236.04.534.534,0,0,1,.184.112Z" transform="translate(-958.873 -388.339)" fill="#fff"/>
        </g>
        <g id="Shape-22" data-name="Shape" transform="translate(47.529 24.564)">
          <path id="Path_4920" data-name="Path 4920" d="M.46,0H5.57a.46.46,0,0,1,.46.46V2.321a.46.46,0,0,1-.46.46H.46A.46.46,0,0,1,0,2.321V.46A.46.46,0,0,1,.46,0Z" transform="translate(0 0)" fill="#92aed9"/>
          <path id="Path_802-2" data-name="Path 802" d="M934.838,390.55h-.208a.092.092,0,0,1-.058-.017.1.1,0,0,1-.032-.044l-.108-.3h-.6l-.108.3a.1.1,0,0,1-.031.042.089.089,0,0,1-.057.019h-.209l.568-1.446h.275ZM933.9,390h.461l-.176-.481q-.012-.032-.026-.075t-.028-.095q-.014.051-.028.1c-.009.029-.018.055-.026.077Z" transform="translate(-932.369 -388.484)" fill="#fff"/>
          <path id="Path_803-2" data-name="Path 803" d="M950.311,389.827a.782.782,0,0,1-.053.292.656.656,0,0,1-.38.378.812.812,0,0,1-.3.053h-.552V389.1h.552a.8.8,0,0,1,.3.054.677.677,0,0,1,.231.149.666.666,0,0,1,.149.229A.782.782,0,0,1,950.311,389.827Zm-.275,0a.666.666,0,0,0-.032-.214.454.454,0,0,0-.091-.16.393.393,0,0,0-.144-.1.494.494,0,0,0-.19-.035H949.3v1.018h.281a.492.492,0,0,0,.19-.035.392.392,0,0,0,.144-.1.454.454,0,0,0,.091-.16A.665.665,0,0,0,950.035,389.827Z" transform="translate(-946.408 -388.484)" fill="#fff"/>
          <path id="Path_804-2" data-name="Path 804" d="M963.761,389.222a.076.076,0,0,1-.026.031.064.064,0,0,1-.035.009.087.087,0,0,1-.045-.015l-.059-.035a.49.49,0,0,0-.08-.034.333.333,0,0,0-.108-.016.317.317,0,0,0-.1.014.2.2,0,0,0-.07.038.151.151,0,0,0-.043.057.189.189,0,0,0-.014.074.128.128,0,0,0,.029.085.235.235,0,0,0,.076.058.7.7,0,0,0,.107.043l.123.041a1.185,1.185,0,0,1,.122.05.425.425,0,0,1,.107.072.325.325,0,0,1,.076.107.369.369,0,0,1,.029.153.5.5,0,0,1-.034.184.424.424,0,0,1-.1.149.461.461,0,0,1-.158.1.579.579,0,0,1-.213.037.68.68,0,0,1-.136-.014.716.716,0,0,1-.129-.038.675.675,0,0,1-.115-.06.562.562,0,0,1-.1-.078l.078-.129a.1.1,0,0,1,.027-.024.065.065,0,0,1,.034-.009.1.1,0,0,1,.054.021l.068.045a.52.52,0,0,0,.093.046.358.358,0,0,0,.129.021.264.264,0,0,0,.178-.054.2.2,0,0,0,.063-.157.146.146,0,0,0-.028-.093.233.233,0,0,0-.076-.061.573.573,0,0,0-.107-.042l-.122-.037a1.053,1.053,0,0,1-.122-.048.393.393,0,0,1-.107-.073.334.334,0,0,1-.076-.113.43.43,0,0,1-.028-.167.4.4,0,0,1,.123-.287.457.457,0,0,1,.149-.093.541.541,0,0,1,.2-.035.677.677,0,0,1,.236.04.534.534,0,0,1,.184.112Z" transform="translate(-958.873 -388.339)" fill="#fff"/>
        </g>
      </g>
    </g>
    <g id="Tablet" transform="translate(167.065 62.347)">
      <path id="Shape-23" data-name="Shape" d="M1.841,0H30.9a1.841,1.841,0,0,1,1.841,1.841V39.027A1.841,1.841,0,0,1,30.9,40.868H1.841A1.841,1.841,0,0,1,0,39.027V1.841A1.841,1.841,0,0,1,1.841,0Z" transform="translate(0 0.115)" fill="#e5e8f5"/>
      <path id="Shape-24" data-name="Shape" d="M1.841,0H30.9a1.841,1.841,0,0,1,1.841,1.841v36.84A1.841,1.841,0,0,1,30.9,40.522H1.841A1.841,1.841,0,0,1,0,38.681V1.841A1.841,1.841,0,0,1,1.841,0Z" transform="translate(0.575)" fill="#fff"/>
      <rect id="Shape-25" data-name="Shape" width="29.88" height="36.144" rx="5.112" transform="translate(2.008 2.606)" fill="#e5e8f5"/>
      <g id="Shape-26" data-name="Shape" transform="translate(14.945 0.723)">
        <circle id="Ellipse_48" data-name="Ellipse 48" cx="0.532" cy="0.532" r="0.532" transform="translate(1.471)" fill="#e5e8f5"/>
        <circle id="Ellipse_49" data-name="Ellipse 49" cx="0.323" cy="0.323" r="0.323" transform="translate(3.361 0.168)" fill="#e5e8f5"/>
        <circle id="Ellipse_50" data-name="Ellipse 50" cx="0.323" cy="0.323" r="0.323" transform="translate(0 0.168)" fill="#e5e8f5"/>
      </g>
      <g id="Content-2" data-name="Content" transform="translate(3.241 3.257)">
        <path id="Shape-27" data-name="Shape" d="M1079.513,826.351V813.833a1.32,1.32,0,0,1,1.317-1.317h24.744a1.321,1.321,0,0,1,1.317,1.317v12.518Z" transform="translate(-1079.495 -790.858)" fill="#fff"/>
        <path id="Shape-28" data-name="Shape" d="M1.151,0H26.227a1.151,1.151,0,0,1,1.151,1.151V12.684a1.151,1.151,0,0,1-1.151,1.151H1.151A1.151,1.151,0,0,1,0,12.684V1.151A1.151,1.151,0,0,1,1.151,0Z" transform="translate(0.018 2.813)" fill="#fff"/>
        <circle id="Shape-29" data-name="Shape" cx="1.018" cy="1.018" r="1.018" transform="translate(0.015 18.9)" fill="#fff"/>
        <path id="Shape-30" data-name="Shape" d="M.923,0H13.3a.923.923,0,0,1,0,1.846H.923A.923.923,0,0,1,.923,0Z" transform="translate(3.225 18.995)" fill="#fff"/>
        <path id="Shape-31" data-name="Shape" d="M.46,0H10.2a.46.46,0,1,1,0,.921H.46A.46.46,0,0,1,.46,0Z" transform="translate(2.074 23.598)" fill="#e5e8f5"/>
        <path id="Shape-32" data-name="Shape" d="M.46,0h22.4a.46.46,0,0,1,0,.921H.46A.46.46,0,0,1,.46,0Z" transform="translate(2.074 25.899)" fill="#e5e8f5"/>
        <path id="Shape-33" data-name="Shape" d="M.46,0h22.4a.46.46,0,0,1,0,.921H.46A.46.46,0,0,1,.46,0Z" transform="translate(2.074 28.201)" fill="#e5e8f5"/>
        <path id="Shape-34" data-name="Shape" d="M.46,0h22.4a.46.46,0,0,1,0,.921H.46A.46.46,0,0,1,.46,0Z" transform="translate(2.074 30.503)" fill="#e5e8f5"/>
        <path id="Shape-35" data-name="Shape" d="M.46,0h22.4a.46.46,0,0,1,0,.921H.46A.46.46,0,0,1,.46,0Z" transform="translate(2.074 32.804)" fill="#e5e8f5"/>
        <circle id="Shape-36" data-name="Shape" cx="1.018" cy="1.018" r="1.018" fill="#fff"/>
        <path id="Shape-37" data-name="Shape" d="M.923,0H7.077a.923.923,0,1,1,0,1.846H.923A.923.923,0,0,1,.923,0Z" transform="translate(3.209 0.095)" fill="#fff"/>
      </g>
      <g id="Chart" transform="translate(3.526 6.586)">
        <g id="Shape-38" data-name="Shape" transform="translate(0 11.753)">
          <line id="Line_2" data-name="Line 2" x2="26.718" transform="translate(0 0)" fill="#1976d2"/>
        </g>
        <rect id="Shape-39" data-name="Shape" width="1.374" height="5.38" transform="translate(10.428 6.213)" fill="#92aed9"/>
        <rect id="Shape-40" data-name="Shape" width="1.374" height="6.004" transform="translate(13.176 5.589)" fill="#f9b25f"/>
        <rect id="Shape-41" data-name="Shape" width="1.374" height="6.813" transform="translate(15.923 4.78)" fill="#92aed9"/>
        <rect id="Shape-42" data-name="Shape" width="1.374" height="10.319" transform="translate(25.767 11.593) rotate(-180)" fill="#f9b25f"/>
        <rect id="Shape-43" data-name="Shape" width="1.374" height="8.312" transform="translate(23.019 11.593) rotate(-180)" fill="#92aed9"/>
        <rect id="Shape-44" data-name="Shape" width="1.374" height="7.716" transform="translate(20.272 11.593) rotate(-180)" fill="#f9b25f"/>
        <rect id="Shape-45" data-name="Shape" width="1.374" height="3.556" transform="translate(1.843 8.037)" fill="#f9b25f"/>
        <rect id="Shape-46" data-name="Shape" width="1.374" height="4.086" transform="translate(4.591 7.507)" fill="#92aed9"/>
        <rect id="Shape-47" data-name="Shape" width="1.374" height="4.762" transform="translate(8.94 11.593) rotate(-180)" fill="#f9b25f"/>
        <path id="Shape-48" data-name="Shape" d="M1105.345,596.835v-.327c7.838,0,20.872-5.993,21-6.053l.138.3C1126.354,590.812,1113.255,596.835,1105.345,596.835Z" transform="translate(-1103.496 -590.304)" fill="#92aed9"/>
        <path id="Shape-49" data-name="Shape" d="M1341.349,590.716l-.324-.05.264-1.7-1.781.076-.014-.327,2.18-.093Z" transform="translate(-1318.477 -588.623)" fill="#92aed9"/>
      </g>
    </g>
    <g id="Mailbox" transform="translate(92.346 73.25)">
      <path id="Shape-50" data-name="Shape" d="M287.426,845.993l-5.84-1.1V832.657h5.84Z" transform="translate(-268.928 -816.997)" fill="#f9b25f"/>
      <path id="Shape-51" data-name="Shape" d="M281.611,836.124v-3.369h5.84v5.7Z" transform="translate(-268.951 -817.087)" fill="#d8984d"/>
      <path id="Shape-52" data-name="Shape" d="M6.075,0H18.55a6.075,6.075,0,0,1,6.075,6.075v7.733H0V6.075A6.075,6.075,0,0,1,6.075,0Z" transform="translate(0 5.189)" fill="#f9b25f"/>
      <path id="Shape-53" data-name="Shape" d="M5.408,0a5.408,5.408,0,0,1,5.408,5.408v8.4H0v-8.4A5.408,5.408,0,0,1,5.408,0Z" transform="translate(0 5.189)" fill="#d8984d"/>
      <g id="Shape-54" data-name="Shape" transform="translate(11.579)">
        <path id="Path_4918" data-name="Path 4918" d="M0,0H.69V10.154H0Z" transform="translate(3.687)" fill="#ff6369"/>
        <path id="Path_4917" data-name="Path 4917" d="M0,0H4.373V2.762H0Z" fill="#ff6369"/>
        <path id="Path_818" data-name="Path 818" d="M307.1,764.469a.942.942,0,1,1,.942-.942A.943.943,0,0,1,307.1,764.469Zm0-1.475a.533.533,0,1,0,.533.533A.533.533,0,0,0,307.1,762.994Z" transform="translate(-303.065 -752.661)" fill="#ff6369"/>
      </g>
    </g>
    <g id="Mail" transform="translate(91.001 78.439)">
      <g id="Shape-55" data-name="Shape" transform="translate(0)">
        <g id="Mask_Group_4" data-name="Mask Group 4" clip-path="url(#clip-path-2)">
          <g id="Group_2600" data-name="Group 2600" transform="translate(0.132 5.723)">
            <g id="Group_2599" data-name="Group 2599">
              <rect id="Rectangle_3102" data-name="Rectangle 3102" width="12.679" height="7.267" transform="translate(0.082 0.082)" fill="#eaeaea"/>
              <path id="Path_819" data-name="Path 819" d="M124.991,782.081H112.148V774.65h12.843Zm-12.679-.164h12.515v-7.1H112.312Z" transform="translate(-112.148 -774.65)" fill="#eaeaea"/>
            </g>
            <path id="Path_820" data-name="Path 820" d="M119.455,803.105l-6.307,5.019h12.679Z" transform="translate(-113.066 -800.776)" fill="#fff"/>
            <path id="Path_821" data-name="Path 821" d="M119.685,781.245l-6.537-5.6h12.679Z" transform="translate(-112.951 -775.453)" fill="#d8d6dd"/>
            <path id="Path_841" data-name="Path 841" d="M119.455,780.67l-6.307-5.019h12.679Z" transform="translate(-112.951 -775.453)" fill="#fff"/>
          </g>
        </g>
      </g>
    </g>
    <g id="Social" transform="translate(96.099 20.968)">
      <g id="Content-3" data-name="Content" transform="translate(68.874 0)">
        <circle id="Shape-56" data-name="Shape" cx="8.163" cy="8.163" r="8.163" transform="translate(0)" fill="#e8e2f5"/>
        <path id="Shape-57" data-name="Shape" d="M1092.617,125.13h-5.769l-1.665,1.992.346-1.992h-1.09a.426.426,0,0,1-.425-.425V120a.426.426,0,0,1,.425-.425h8.178a.426.426,0,0,1,.425.425v4.707A.426.426,0,0,1,1092.617,125.13Z" transform="translate(-1080.366 -115.185)" fill="#8765db"/>
        <g id="Shape-58" data-name="Shape" transform="translate(5.482 6.406)">
          <circle id="Ellipse_62" data-name="Ellipse 62" cx="0.761" cy="0.761" r="0.761" fill="#fff"/>
          <circle id="Ellipse_63" data-name="Ellipse 63" cx="0.761" cy="0.761" r="0.761" transform="translate(1.964)" fill="#fff"/>
          <circle id="Ellipse_64" data-name="Ellipse 64" cx="0.761" cy="0.761" r="0.761" transform="translate(3.839)" fill="#fff"/>
        </g>
      </g>
      <g id="Content-4" data-name="Content" transform="translate(0 21.878)">
        <circle id="Shape-59" data-name="Shape" cx="4.617" cy="4.617" r="4.617" transform="translate(0 0)" fill="#f7d2d2"/>
        <g id="Shape-60" data-name="Shape" transform="translate(1.556 2.482)">
          <path id="Path_827" data-name="Path 827" d="M200.757,362.195c0,.772-.264,1.4-1.035,1.4h-3.97c-.772,0-1.118-.625-1.118-1.4v-1.478c0-.772.313-1.4,1.085-1.4h4.035c.772,0,1,.625,1,1.4Z" transform="translate(-194.634 -359.32)" fill="#cd201f"/>
          <g id="Group_2606" data-name="Group 2606" transform="translate(2.448 1.301)">
            <path id="Path_828" data-name="Path 828" d="M224.535,375.213l1.668.871-1.668.87Z" transform="translate(-224.535 -375.213)" fill="#fff"/>
            <path id="Path_829" data-name="Path 829" d="M224.535,375.355l1.45.97.217-.113-1.539-.8-.129-.056Z" transform="translate(-224.535 -375.342)" fill="#e8e0e0"/>
          </g>
        </g>
      </g>
      <g id="Content-5" data-name="Content" transform="translate(0.193 37.528)">
        <circle id="Shape-61" data-name="Shape" cx="5.908" cy="5.908" r="5.908" transform="translate(0 0)" fill="#99acd5"/>
        <path id="Shape-62" data-name="Shape" d="M232.33,507.27h.736v-1.157h-1.1a1.5,1.5,0,0,0-1.136.558,1.579,1.579,0,0,0-.306,1.116h0v.868H229.43v1.229h1.091v3.175h1.258v-3.175h1.082l.151-1.229h-1.233v-.868h0A.5.5,0,0,1,232.33,507.27Z" transform="translate(-224.988 -502.43)" fill="#fff"/>
      </g>
      <g id="Content-6" data-name="Content" transform="translate(90.821 19.822)">
        <circle id="Shape-63" data-name="Shape" cx="4.586" cy="4.586" r="4.586" transform="translate(0 0)" fill="#b9e29f"/>
        <g id="Shape-64" data-name="Shape" transform="translate(2.36 2.339)">
          <path id="Path_831" data-name="Path 831" d="M1313.292,231.245a2.226,2.226,0,0,0-1.914,3.363l-.281,1.132,1.116-.321a2.226,2.226,0,1,0,1.079-4.174Zm.025,4.083a1.839,1.839,0,0,1-1.047-.326l-.635.183.162-.655a1.848,1.848,0,1,1,1.52.8Z" transform="translate(-1311.066 -231.245)" fill="#fff"/>
          <path id="Path_832" data-name="Path 832" d="M1325.067,246.636l.077-.089c.043-.05.108-.1.112-.171a.506.506,0,0,0-.046-.2l-.048-.122a.813.813,0,0,0-.105-.221.2.2,0,0,0-.225-.035.544.544,0,0,0-.3.63,1.977,1.977,0,0,0,1.571,1.428s.47.067.6-.218a.5.5,0,0,0,.041-.215.18.18,0,0,0-.1-.139c-.069-.04-.13-.077-.209-.115a.336.336,0,0,0-.225-.062.333.333,0,0,0-.138.11l-.154.161A1.537,1.537,0,0,1,1325.067,246.636Z" transform="translate(-1323.404 -244.586)" fill="url(#radial-gradient)"/>
        </g>
      </g>
    </g>
    <g id="Person" transform="translate(137.269 54.144)">
      <path id="Shape-65" data-name="Shape" d="M717.037,435.4c.24,1.613,2.221,3.569,3.459,3.35s1.34-2.007,1.983-3.457c.076-.172.5-.686.51-.932.035-.634-1.33-.561-1.706-1-.794-.932-2.625.619-2.646.6C717.805,433.409,716.9,434.467,717.037,435.4Z" transform="translate(-713.642 -431.006)" fill="#455a64"/>
      <rect id="Shape-66" data-name="Shape" width="2.096" height="2.732" transform="translate(5.682 6.994)" fill="#ffdfae"/>
      <path id="Shape-67" data-name="Shape" d="M457.9,415l-2.275-1.047a3.828,3.828,0,0,0,.407,1.345c.309.413.9.895,1.35.784C457.739,416,457.9,415,457.9,415Z" transform="translate(-450.097 -407.394)" fill="#f4ca92"/>
      <rect id="Shape-68" data-name="Shape" width="1.094" height="1.178" transform="translate(0.237 0.61)" fill="#ffdfae"/>
      <path id="Shape-69" data-name="Shape" d="M801.355,490.126c-.149.122-.37.024-.553-.2s-.392-.586-.243-.708.5.116.681.34S801.5,490,801.355,490.126Z" transform="translate(-790.293 -482.536)" fill="#ffdfae"/>
      <path id="Shape-70" data-name="Shape" d="M684.714,436.946l-5.923.008.245-1.413c0-.219-2.353-1.685-3.04-3.109-.5-1.034-.159-6.346-.159-6.346l1.3.146.714,5.269c.66.141,3.338,1.388,3.552,1.388,0,0,.555,1.077,1.19,1.07a.9.9,0,0,0,.912-.818l2.969.75-.259-1.842.467-.5s1.8,2.94,1.145,3.479c-.854.7-3.261.148-3.261.148Z" transform="translate(-675.724 -424.602)" fill="#ff6369"/>
      <path id="Shape-71" data-name="Shape" d="M728.929,454.306c.115.449.587.518.741.909.411,1.046,1.552,1.971,2.438,1.814.751-.133,1.592-1.751,1.307-3.356a7.517,7.517,0,0,0-.281-1.135c-.225-.644-1.454,1.444-3.133.195-.393-.292-.08,1.21-.507,1.286C729.474,454.021,728.711,453.454,728.929,454.306Z" transform="translate(-724.538 -448.773)" fill="#ffdfae"/>
      <g id="Shape-72" data-name="Shape" transform="translate(8.748 3.427)">
        <ellipse id="Ellipse_65" data-name="Ellipse 65" cx="0.296" cy="0.529" rx="0.296" ry="0.529" transform="translate(0 2.262) rotate(-37.343)" fill="#ff6369"/>
        <path id="Path_837" data-name="Path 837" d="M796.955,483.515l-.227.173a.088.088,0,0,1-.121-.024l-.61-.8a.088.088,0,0,1,.009-.123l.227-.173a.088.088,0,0,1,.121.024l.418.719.192.08A.088.088,0,0,1,796.955,483.515Z" transform="translate(-794.879 -479.876)" fill="#37474f"/>
        <circle id="Ellipse_66" data-name="Ellipse 66" cx="0.483" cy="0.483" r="0.483" transform="translate(2.181 0.549)" fill="#ff6369"/>
        <path id="Path_838" data-name="Path 838" d="M792.118,452.952a4.4,4.4,0,0,0-2.015.812l-.626-.82s1.339-.921,1.278-1.778C790.755,451.156,792.125,452.952,792.118,452.952Z" transform="translate(-788.912 -451.057)" fill="#92aed9"/>
        <path id="Path_4921" data-name="Path 4921" d="M.178,0H.633A.178.178,0,0,1,.812.178V1.223A.178.178,0,0,1,.633,1.4H.178A.178.178,0,0,1,0,1.223V.178A.178.178,0,0,1,.178,0Z" transform="translate(0.121 1.954) rotate(-37.343)" fill="#92aed9"/>
        <path id="Path_4922" data-name="Path 4922" d="M.092,0A.092.092,0,0,1,.184.092V2.264a.092.092,0,1,1-.184,0V.092A.092.092,0,0,1,.092,0Z" transform="translate(1.748 0.112) rotate(-37.343)" fill="#37474f"/>
      </g>
      <ellipse id="Shape-73" data-name="Shape" cx="0.18" cy="0.407" rx="0.18" ry="0.407" transform="matrix(0.757, -0.653, 0.653, 0.757, 10.109, 6.359)" fill="#ffdfae"/>
      <path id="Shape-74" data-name="Shape" d="M677.123,408.44c.065-.355.175-.581.909-.41.458.107.83.361.765.716s-.5.5-.965.411S677.058,408.8,677.123,408.44Z" transform="translate(-677.001 -407.972)" fill="#ffdfae"/>
    </g>
  </g>
</svg>
